<?xml version="1.0" encoding="UTF-8"?>
<svg id="Layer_2" data-name="Layer 2" xmlns="http://www.w3.org/2000/svg" viewBox="0 0 340.24 340.24">
  <defs>
    <style>
      .cls-1 {
        fill: #f8bc33;
      }

      .cls-1, .cls-2, .cls-3, .cls-4, .cls-5 {
        stroke-width: 0px;
      }

      .cls-2 {
        fill: #a87e1a;
      }

      .cls-3 {
        fill: #fff;
      }

      .cls-4 {
        fill: #ffdd8e;
      }

      .cls-5 {
        fill: #66a2cb;
      }
    </style>
  </defs>
  <g id="Layer_1-2" data-name="Layer 1">
    <g>
      <g>
        <circle class="cls-2" cx="170.12" cy="170.12" r="14.04"/>
        <path class="cls-5" d="m154.27,147.98s-2.56-9.28-4.92-23.53c-.6-3.56-1.15-7.43-1.69-11.53-.5-4.11-.98-8.44-1.32-12.95-.18-2.25-.35-4.54-.45-6.86-.15-2.32-.2-4.67-.27-7.05-.09-2.37-.03-4.77-.06-7.17.05-2.4.1-4.82.2-7.23.26-4.82.61-9.65,1.27-14.37.16-1.18.32-2.36.48-3.53.21-1.16.41-2.32.61-3.47.36-2.31.92-4.56,1.41-6.78.13-.56.25-1.11.38-1.66.15-.54.31-1.09.46-1.62.3-1.08.6-2.15.9-3.2.6-2.11,1.38-4.12,2.04-6.11.73-1.97,1.57-3.83,2.32-5.66.82-1.8,1.72-3.49,2.53-5.14,1.8-3.21,3.53-6.12,5.36-8.51,1.67-2.51,3.53-4.38,4.91-6.04,1.45-1.6,2.76-2.71,3.57-3.54.84-.8,1.29-1.23,1.29-1.23.76-.73,1.98-.71,2.71.06.73.76.71,1.98-.06,2.71,0,0-.02.02-.03.02l-.14.13s-.43.39-1.23,1.13c-.78.76-2.04,1.77-3.44,3.24-1.33,1.55-3.15,3.26-4.78,5.6-1.79,2.22-3.51,4.96-5.32,7.99-.81,1.57-1.73,3.17-2.56,4.88-.76,1.75-1.62,3.53-2.37,5.42-.68,1.91-1.5,3.84-2.13,5.89-.32,1.02-.63,2.06-.96,3.1-.16.52-.32,1.05-.49,1.57-.14.54-.27,1.07-.41,1.61-.54,2.16-1.14,4.35-1.55,6.61-.23,1.13-.46,2.26-.69,3.4-.18,1.15-.37,2.3-.56,3.46-.77,4.63-1.23,9.39-1.6,14.16-.16,2.39-.27,4.78-.38,7.16-.03,2.38-.15,4.76-.12,7.12,0,2.36,0,4.7.09,7.01.05,2.31.15,4.59.28,6.84.23,4.49.6,8.82,1,12.93.43,4.1.89,7.98,1.4,11.54,1.99,14.27,4.32,23.62,4.32,23.62Z"/>
        <circle class="cls-2" cx="170.12" cy="170.12" r="14.04"/>
        <path class="cls-5" d="m147.98,185.97s-9.28,2.56-23.53,4.92c-3.56.6-7.43,1.15-11.53,1.69-4.11.5-8.44.98-12.95,1.32-2.25.18-4.54.35-6.86.45-2.32.15-4.67.2-7.05.27-2.37.09-4.77.03-7.17.06-2.4-.05-4.82-.1-7.23-.2-4.82-.26-9.65-.61-14.37-1.27-1.18-.16-2.36-.32-3.53-.48-1.16-.21-2.32-.41-3.47-.61-2.31-.36-4.56-.92-6.78-1.41-.56-.13-1.11-.25-1.66-.38-.54-.15-1.09-.31-1.62-.46-1.08-.3-2.15-.6-3.2-.9-2.11-.6-4.12-1.38-6.11-2.04-1.97-.73-3.83-1.57-5.66-2.32-1.8-.82-3.49-1.72-5.14-2.53-3.21-1.8-6.12-3.53-8.51-5.36-2.51-1.67-4.38-3.53-6.05-4.91-1.6-1.45-2.71-2.76-3.54-3.57-.8-.84-1.23-1.29-1.23-1.29-.73-.76-.71-1.98.06-2.71.76-.73,1.98-.71,2.71.06,0,0,.02.02.02.03l.13.14s.39.43,1.13,1.23c.76.78,1.77,2.04,3.24,3.44,1.55,1.33,3.26,3.15,5.6,4.78,2.22,1.79,4.96,3.51,7.99,5.32,1.57.81,3.17,1.73,4.88,2.56,1.75.76,3.53,1.62,5.42,2.37,1.91.68,3.84,1.5,5.89,2.13,1.02.32,2.06.63,3.1.96.52.16,1.05.32,1.57.49.54.14,1.07.27,1.61.41,2.16.54,4.35,1.14,6.61,1.55,1.13.23,2.26.46,3.4.69,1.15.18,2.3.37,3.46.56,4.63.77,9.39,1.23,14.16,1.6,2.39.16,4.78.27,7.16.38,2.38.04,4.76.15,7.12.12,2.36,0,4.7,0,7.01-.09,2.31-.05,4.59-.15,6.84-.28,4.49-.23,8.82-.6,12.93-1,4.1-.43,7.98-.89,11.54-1.4,14.27-1.99,23.62-4.32,23.62-4.32Z"/>
        <circle class="cls-2" cx="170.12" cy="170.12" r="14.04"/>
        <path class="cls-5" d="m185.97,192.27s2.56,9.28,4.92,23.53c.6,3.56,1.15,7.43,1.69,11.53.5,4.11.98,8.44,1.32,12.95.18,2.25.35,4.54.45,6.86.15,2.32.2,4.67.27,7.05.09,2.37.03,4.77.06,7.17-.05,2.4-.1,4.82-.2,7.23-.26,4.82-.61,9.65-1.27,14.37-.16,1.18-.32,2.36-.48,3.53-.21,1.16-.41,2.32-.61,3.47-.36,2.31-.92,4.56-1.41,6.78-.13.56-.25,1.11-.38,1.66-.15.54-.31,1.09-.46,1.62-.3,1.08-.6,2.15-.9,3.2-.6,2.11-1.38,4.12-2.04,6.11-.73,1.97-1.57,3.83-2.32,5.66-.82,1.8-1.72,3.49-2.53,5.14-1.8,3.21-3.53,6.12-5.36,8.51-1.67,2.51-3.53,4.38-4.91,6.05-1.45,1.6-2.76,2.71-3.57,3.54-.84.8-1.29,1.23-1.29,1.23-.76.73-1.98.71-2.71-.06-.73-.76-.71-1.98.06-2.71,0,0,.02-.02.03-.02l.14-.13s.43-.39,1.23-1.13c.78-.76,2.04-1.77,3.44-3.24,1.33-1.55,3.15-3.26,4.78-5.6,1.79-2.22,3.51-4.96,5.32-7.99.81-1.57,1.73-3.17,2.56-4.88.76-1.75,1.62-3.53,2.37-5.42.68-1.91,1.5-3.84,2.13-5.89.32-1.02.63-2.06.96-3.1.16-.52.32-1.05.49-1.57.14-.54.27-1.07.41-1.61.54-2.16,1.14-4.35,1.55-6.61.23-1.13.46-2.26.69-3.4.18-1.15.37-2.3.56-3.46.77-4.63,1.23-9.39,1.6-14.16.16-2.38.27-4.78.38-7.16.04-2.38.15-4.76.12-7.12,0-2.36,0-4.7-.09-7.01-.05-2.31-.15-4.59-.28-6.84-.23-4.49-.6-8.82-1-12.93-.43-4.1-.89-7.98-1.4-11.54-1.99-14.27-4.32-23.62-4.32-23.62Z"/>
        <circle class="cls-4" cx="170.12" cy="170.12" r="14.04"/>
        <path class="cls-5" d="m192.27,154.27s9.28-2.56,23.53-4.92c3.56-.6,7.43-1.15,11.53-1.69,4.11-.5,8.44-.98,12.95-1.32,2.25-.18,4.54-.35,6.86-.45,2.32-.15,4.67-.2,7.05-.27,2.37-.09,4.77-.03,7.17-.06,2.4.05,4.82.1,7.23.2,4.82.26,9.65.61,14.37,1.27,1.18.16,2.36.32,3.53.48,1.16.21,2.32.41,3.47.61,2.31.36,4.56.92,6.78,1.41.56.13,1.11.25,1.66.38.54.15,1.09.31,1.62.46,1.08.3,2.15.6,3.2.9,2.11.6,4.12,1.38,6.11,2.04,1.97.73,3.83,1.57,5.66,2.32,1.8.82,3.49,1.72,5.14,2.53,3.21,1.8,6.12,3.53,8.51,5.36,2.51,1.67,4.38,3.53,6.05,4.91,1.6,1.45,2.71,2.76,3.54,3.57.8.84,1.23,1.29,1.23,1.29.73.76.71,1.98-.06,2.71-.76.73-1.98.71-2.71-.06,0,0-.02-.02-.02-.03l-.13-.14s-.39-.43-1.13-1.23c-.76-.78-1.77-2.04-3.24-3.44-1.55-1.33-3.26-3.15-5.6-4.78-2.22-1.79-4.96-3.51-7.99-5.32-1.57-.81-3.17-1.73-4.88-2.56-1.75-.76-3.53-1.62-5.42-2.37-1.91-.68-3.84-1.5-5.89-2.13-1.02-.32-2.06-.63-3.1-.96-.52-.16-1.05-.32-1.57-.49-.54-.14-1.07-.27-1.61-.41-2.16-.54-4.35-1.14-6.61-1.55-1.13-.23-2.26-.46-3.4-.69-1.15-.18-2.3-.37-3.46-.56-4.63-.77-9.39-1.23-14.16-1.6-2.38-.16-4.78-.27-7.16-.38-2.38-.04-4.76-.15-7.12-.12-2.36,0-4.7,0-7.01.09-2.31.05-4.59.15-6.84.28-4.49.23-8.82.6-12.93,1-4.1.43-7.98.89-11.54,1.4-14.27,1.99-23.62,4.32-23.62,4.32Z"/>
        <path class="cls-1" d="m146.37,163.65L28.47,102.35c-.94-.49-1.31-1.65-.82-2.59.49-.94,1.65-1.31,2.59-.82.01,0,.04.02.05.03l116.08,64.68Z"/>
        <path class="cls-1" d="m163.65,193.87l-61.3,117.9c-.49.94-1.65,1.31-2.59.82-.94-.49-1.31-1.65-.82-2.59,0-.01.02-.04.03-.05l64.68-116.08Z"/>
        <path class="cls-1" d="m193.87,176.59l117.9,61.3c.94.49,1.31,1.65.82,2.59-.49.94-1.65,1.31-2.59.82-.01,0-.04-.02-.05-.03l-116.08-64.68Z"/>
        <path class="cls-1" d="m176.59,146.37l61.3-117.9c.49-.94,1.65-1.31,2.59-.82.94.49,1.31,1.65.82,2.59,0,.01-.02.04-.03.05l-64.68,116.08Z"/>
        <path class="cls-4" d="m165.71,142.09s-.33-6.18.02-15.45c.36-9.27,1.41-21.65,4-33.82.62-3.05,1.38-6.07,2.19-9.02.39-1.48.87-2.93,1.29-4.37.46-1.43.95-2.84,1.42-4.23.52-1.37,1.04-2.72,1.54-4.04.56-1.3,1.09-2.58,1.64-3.81.59-1.22,1.16-2.4,1.71-3.54.61-1.12,1.19-2.2,1.75-3.24,1.22-2.03,2.35-3.89,3.49-5.46,1.06-1.62,2.2-2.89,3.04-4,.89-1.08,1.67-1.86,2.16-2.42.51-.55.77-.85.77-.85.71-.78,1.93-.84,2.71-.13.78.71.84,1.93.13,2.71-.01.02-.03.03-.04.05l-.1.1s-.26.27-.75.76c-.48.51-1.23,1.21-2.1,2.18-.83,1.01-1.94,2.15-3,3.65-1.14,1.44-2.28,3.17-3.52,5.06-.58.98-1.18,1.99-1.8,3.05-.58,1.08-1.17,2.2-1.78,3.35-.56,1.18-1.14,2.39-1.73,3.63-.54,1.27-1.09,2.56-1.65,3.87-.51,1.34-1.04,2.69-1.55,4.08-.47,1.4-.99,2.8-1.43,4.24-.91,2.88-1.77,5.82-2.5,8.8-3.03,11.92-4.56,24.2-5.28,33.42-.71,9.23-.62,15.42-.62,15.42Z"/>
        <path class="cls-4" d="m147.19,153.42s-4.6-4.13-10.91-10.94c-6.3-6.8-14.31-16.31-21.08-26.74-1.71-2.59-3.31-5.26-4.83-7.93-.77-1.32-1.46-2.69-2.18-4.01-.69-1.34-1.33-2.68-1.99-3.99-.6-1.34-1.19-2.66-1.76-3.94-.52-1.31-1.06-2.59-1.53-3.85-.44-1.28-.88-2.52-1.3-3.72-.36-1.22-.72-2.4-1.05-3.53-.58-2.3-1.09-4.41-1.39-6.33-.4-1.89-.49-3.59-.68-4.97-.13-1.39-.14-2.49-.19-3.24-.03-.75-.05-1.15-.05-1.15-.05-1.06,1.6-1.96,2.66-2.01,1.06-.05,2.84.77,2.84,1.83v.21s-.83.37-.82,1.07c.02.7-.43,1.72-.36,3.03.13,1.3-.06,2.9.25,4.71.21,1.82.52,3.85.99,6.07.28,1.1.52,2.24.83,3.43.36,1.17.7,2.39,1.08,3.63.44,1.23.87,2.5,1.33,3.79.51,1.28,1.03,2.58,1.56,3.91.59,1.3,1.16,2.64,1.79,3.98.66,1.32,1.27,2.68,1.98,4.01,1.39,2.67,2.86,5.37,4.46,7.99,6.28,10.57,13.88,20.34,19.9,27.36,6.02,7.03,10.46,11.34,10.46,11.34Z"/>
        <path class="cls-4" d="m142.09,174.53s-6.18.33-15.45-.02c-9.27-.36-21.65-1.41-33.82-4-3.05-.62-6.07-1.38-9.02-2.19-1.48-.39-2.93-.87-4.37-1.29-1.43-.46-2.84-.95-4.23-1.42-1.37-.52-2.72-1.04-4.04-1.54-1.3-.56-2.58-1.09-3.81-1.64-1.22-.59-2.4-1.16-3.54-1.71-1.12-.61-2.2-1.19-3.24-1.75-2.03-1.22-3.89-2.35-5.46-3.49-1.62-1.06-2.89-2.2-4-3.04-1.08-.89-1.86-1.67-2.42-2.16-.55-.51-.85-.77-.85-.77-.78-.71-.84-1.93-.13-2.71.71-.78,1.93-.84,2.71-.13.02.01.03.03.05.04l.1.1s.27.26.76.75c.51.48,1.21,1.23,2.18,2.1,1.01.83,2.15,1.94,3.65,3,1.44,1.14,3.17,2.28,5.06,3.52.98.58,1.99,1.18,3.05,1.8,1.08.58,2.2,1.17,3.35,1.78,1.18.56,2.39,1.14,3.63,1.73,1.27.54,2.56,1.09,3.87,1.65,1.34.51,2.69,1.04,4.08,1.55,1.4.47,2.8.99,4.24,1.43,2.88.91,5.82,1.77,8.8,2.5,11.92,3.03,24.2,4.56,33.42,5.28,9.23.71,15.42.62,15.42.62Z"/>
        <path class="cls-4" d="m153.42,193.06s-4.13,4.6-10.94,10.91c-6.8,6.3-16.31,14.31-26.74,21.08-2.59,1.71-5.26,3.31-7.93,4.83-1.32.77-2.69,1.46-4.01,2.18-1.34.69-2.68,1.33-3.99,1.99-1.34.6-2.66,1.19-3.94,1.76-1.31.52-2.59,1.06-3.85,1.53-1.28.44-2.52.88-3.72,1.3-1.22.36-2.4.72-3.53,1.05-2.3.58-4.41,1.09-6.33,1.39-1.89.4-3.59.49-4.97.68-1.39.13-2.49.14-3.24.19-.75.03-1.15.05-1.15.05-1.06.05-1.96.96-2.01-.09-.05-1.06.77-.27,1.83-.27h.21s.37-1.74,1.07-1.74c.7-.02,1.72-.85,3.03-.92,1.3-.13,2.9-.58,4.7-.89,1.82-.21,3.85-.84,6.07-1.31,1.1-.28,2.24-.68,3.43-.99,1.17-.36,2.39-.78,3.63-1.16,1.23-.44,2.5-.91,3.79-1.37,1.28-.51,2.58-1.05,3.91-1.58,1.3-.59,2.64-1.17,3.98-1.8,1.32-.66,2.68-1.28,4.01-1.99,2.67-1.39,5.37-2.87,7.99-4.46,10.57-6.28,20.34-13.89,27.36-19.9,7.03-6.02,11.34-10.47,11.34-10.47Z"/>
        <path class="cls-4" d="m174.53,198.15s.33,6.18-.02,15.45c-.36,9.27-1.41,21.65-4,33.82-.62,3.05-1.38,6.07-2.19,9.02-.39,1.48-.87,2.93-1.29,4.37-.46,1.43-.95,2.84-1.42,4.23-.52,1.37-1.04,2.72-1.54,4.04-.56,1.3-1.09,2.58-1.64,3.81-.59,1.22-1.16,2.4-1.71,3.54-.61,1.12-1.19,2.2-1.75,3.24-1.22,2.03-2.35,3.89-3.49,5.46-1.06,1.62-2.19,2.89-3.04,4-.89,1.08-1.67,1.86-2.16,2.42-.51.55-.77.85-.77.85-.71.78-1.93.84-2.71.13-.78-.71-.84-1.93-.13-2.71.01-.02.03-.03.04-.05l.1-.1s.26-.27.75-.76c.48-.51,1.23-1.21,2.1-2.18.83-1.01,1.94-2.15,3-3.65,1.14-1.44,2.28-3.17,3.52-5.06.58-.98,1.18-1.99,1.8-3.05.58-1.08,1.17-2.2,1.78-3.35.56-1.18,1.14-2.39,1.73-3.63.54-1.26,1.09-2.56,1.65-3.87.51-1.34,1.04-2.69,1.55-4.08.47-1.4.99-2.8,1.43-4.24.91-2.88,1.77-5.82,2.5-8.8,3.03-11.92,4.56-24.2,5.28-33.42.71-9.23.62-15.42.62-15.42Z"/>
        <path class="cls-4" d="m193.06,186.82s4.6,4.13,10.91,10.94c6.3,6.8,14.31,16.31,21.08,26.74,1.71,2.59,3.31,5.26,4.83,7.93.77,1.32,1.46,2.69,2.18,4.01.69,1.34,1.33,2.68,1.99,3.99.6,1.34,1.19,2.66,1.76,3.94.52,1.31,1.06,2.59,1.53,3.85.44,1.28.88,2.52,1.3,3.72.36,1.22.72,2.4,1.05,3.53.58,2.3,1.09,4.41,1.39,6.33.4,1.89.49,3.59.68,4.97.13,1.39.14,2.49.19,3.24.03.75.05,1.15.05,1.15.05,1.06.49,1.96-.57,2.01-1.06.05-.75-.77-.75-1.83v-.21s-1.26-.37-1.27-1.07c-.02-.7-.61-1.72-.68-3.03-.13-1.3-.46-2.9-.77-4.7-.21-1.82-.78-3.85-1.25-6.07-.28-1.1-.65-2.24-.96-3.43-.36-1.17-.77-2.39-1.15-3.63-.44-1.23-.9-2.5-1.36-3.79-.51-1.28-1.05-2.58-1.58-3.91-.59-1.3-1.17-2.64-1.8-3.98-.66-1.32-1.28-2.68-1.99-4.01-1.39-2.67-2.87-5.37-4.46-7.99-6.28-10.57-13.89-20.34-19.9-27.36-6.02-7.03-10.47-11.34-10.47-11.34Z"/>
        <path class="cls-4" d="m198.15,165.71s6.18-.33,15.45.02c9.27.36,21.65,1.41,33.82,4,3.05.62,6.07,1.38,9.02,2.19,1.48.39,2.93.87,4.37,1.29,1.43.46,2.84.95,4.23,1.42,1.37.52,2.72,1.04,4.04,1.54,1.3.56,2.58,1.09,3.81,1.64,1.22.59,2.4,1.16,3.54,1.71,1.12.61,2.2,1.19,3.24,1.75,2.03,1.22,3.89,2.35,5.46,3.49,1.62,1.06,2.89,2.2,4,3.04,1.08.89,1.86,1.67,2.42,2.16.55.51.85.78.85.78.78.71.84,1.93.13,2.71-.71.78-1.93.84-2.71.13-.02-.01-.03-.03-.05-.04l-.1-.1s-.27-.26-.76-.75c-.51-.48-1.21-1.23-2.18-2.1-1.01-.83-2.15-1.94-3.65-3-1.44-1.14-3.17-2.28-5.06-3.52-.98-.58-1.99-1.18-3.05-1.8-1.08-.58-2.2-1.17-3.35-1.78-1.18-.56-2.39-1.14-3.63-1.73-1.26-.54-2.56-1.09-3.87-1.65-1.34-.51-2.69-1.04-4.08-1.55-1.4-.47-2.8-.99-4.24-1.43-2.88-.91-5.82-1.77-8.8-2.5-11.92-3.03-24.2-4.56-33.42-5.28-9.23-.71-15.42-.62-15.42-.62Z"/>
        <path class="cls-4" d="m186.82,147.19s4.13-4.6,10.94-10.91c6.8-6.3,16.31-14.31,26.74-21.08,2.59-1.71,5.26-3.31,7.93-4.83,1.32-.77,2.69-1.46,4.01-2.18,1.34-.69,2.68-1.33,3.99-1.99,1.34-.6,2.66-1.19,3.94-1.76,1.31-.52,2.59-1.06,3.85-1.53,1.28-.44,2.52-.88,3.72-1.3,1.22-.36,2.4-.72,3.53-1.05,2.3-.58,4.41-1.09,6.33-1.39,1.89-.39,3.59-.49,4.97-.68,1.39-.13,2.49-.14,3.24-.19.75-.03,1.15-.05,1.15-.05,1.06-.05,1.96.59,2.01,1.65.05,1.06-.77,1.83-1.83,1.83h-.21s-.37.18-1.07.19c-.7.02-1.72.07-3.03.14-1.3.13-2.9.19-4.7.5-1.82.21-3.85.65-6.07,1.11-1.1.28-2.24.59-3.43.89-1.17.36-2.39.74-3.63,1.12-1.23.44-2.5.89-3.79,1.34-1.28.51-2.58,1.04-3.91,1.57-1.3.59-2.64,1.17-3.98,1.79-1.32.66-2.68,1.28-4.01,1.99-2.67,1.39-5.37,2.87-7.99,4.46-10.57,6.28-20.34,13.88-27.36,19.9-7.03,6.02-11.34,10.46-11.34,10.46Z"/>
        <path class="cls-1" d="m132.15,87.88s-.61-1.16-1.53-3.24c-.49-1.03-1-2.32-1.63-3.78-.57-1.48-1.27-3.14-1.92-4.99-.67-1.84-1.38-3.84-2.04-5.99-.72-2.13-1.32-4.42-1.99-6.79-.63-2.37-1.19-4.85-1.77-7.36-.24-1.27-.48-2.55-.72-3.83-.26-1.28-.49-2.57-.64-3.88-.35-2.6-.76-5.2-.9-7.79-.1-1.29-.2-2.58-.3-3.84-.07-1.27-.05-2.53-.08-3.76-.02-1.24-.03-2.46-.05-3.65.03-1.19.13-2.36.18-3.49.14-2.27.2-4.43.55-6.39.28-1.97.53-3.78.75-5.39.36-1.58.68-2.96.94-4.1.53-2.27.83-3.57.83-3.57.24-1.03,1.27-1.67,2.3-1.44,1.03.24,1.67,1.27,1.43,2.3,0,.03-.01.05-.02.08l-.05.18s-.34,1.23-.94,3.37c-.3,1.08-.67,2.38-1.09,3.88-.29,1.53-.61,3.26-.96,5.15-.43,1.88-.57,3.96-.81,6.15-.11,1.1-.26,2.22-.33,3.38-.04,1.16-.08,2.35-.11,3.55-.03,1.21-.11,2.43-.09,3.68.04,1.24.08,2.5.12,3.77.02,2.54.31,5.11.53,7.69.09,1.29.26,2.57.46,3.85.18,1.28.36,2.55.54,3.81.45,2.51.89,4.99,1.41,7.36.56,2.37,1.05,4.67,1.67,6.82.56,2.16,1.17,4.19,1.76,6.05.56,1.87,1.18,3.55,1.68,5.06.56,1.48,1.01,2.79,1.45,3.85.83,2.13,1.38,3.31,1.38,3.31Z"/>
        <path class="cls-3" d="m96.12,117.88s-1.1-.7-2.95-2.04c-.94-.65-2.03-1.51-3.3-2.46-1.23-1-2.67-2.08-4.16-3.36-1.5-1.26-3.12-2.64-4.76-4.17-1.69-1.48-3.36-3.17-5.12-4.88-1.73-1.74-3.46-3.6-5.21-5.49-.84-.98-1.69-1.96-2.54-2.96-.86-.98-1.71-1.99-2.5-3.04-1.6-2.08-3.26-4.13-4.68-6.3-.73-1.07-1.46-2.13-2.18-3.18-.7-1.06-1.31-2.16-1.95-3.22-.63-1.06-1.26-2.11-1.87-3.13-.57-1.04-1.07-2.1-1.59-3.12-1.01-2.04-2.04-3.93-2.72-5.81-.75-1.85-1.43-3.54-2.04-5.04-.48-1.55-.89-2.9-1.23-4.02-.68-2.23-1.07-3.51-1.07-3.51-.31-1.01.26-2.09,1.28-2.39,1.01-.31,2.09.26,2.39,1.28,0,.03.01.05.02.08l.05.18s.32,1.23.87,3.39c.28,1.08.61,2.39,1,3.9.52,1.47,1.1,3.13,1.74,4.94.57,1.84,1.48,3.72,2.37,5.73.46,1,.89,2.05,1.4,3.1.55,1.02,1.11,2.07,1.68,3.13.58,1.06,1.12,2.16,1.76,3.23.66,1.06,1.32,2.13,1.99,3.21,1.29,2.2,2.82,4.28,4.31,6.4.72,1.07,1.51,2.1,2.32,3.11.8,1.02,1.59,2.03,2.38,3.03,1.65,1.95,3.27,3.87,4.91,5.67,1.67,1.77,3.24,3.52,4.86,5.07,1.57,1.59,3.11,3.04,4.55,4.36,1.42,1.34,2.8,2.48,3.98,3.54,1.23,1.01,2.27,1.91,3.18,2.61,1.78,1.43,2.85,2.17,2.85,2.17Z"/>
        <path class="cls-1" d="m87.88,208.09s-1.16.61-3.24,1.53c-1.03.49-2.32,1-3.78,1.63-1.48.57-3.14,1.27-4.99,1.92-1.84.67-3.84,1.38-5.99,2.04-2.13.72-4.42,1.32-6.79,1.99-2.37.63-4.85,1.19-7.36,1.77-1.27.24-2.55.48-3.83.72-1.28.26-2.57.49-3.88.64-2.6.35-5.2.76-7.79.9-1.29.1-2.58.2-3.84.3-1.27.07-2.53.05-3.76.08-1.24.02-2.46.03-3.65.05-1.19-.03-2.36-.13-3.49-.18-2.27-.14-4.43-.2-6.39-.55-1.97-.28-3.78-.53-5.39-.75-1.58-.36-2.96-.68-4.1-.94-2.27-.53-3.57-.83-3.57-.83-1.03-.24-1.67-1.27-1.44-2.3.24-1.03,1.27-1.67,2.3-1.44.03,0,.05.01.08.02l.18.05s1.23.34,3.37.94c1.08.3,2.38.67,3.88,1.09,1.53.29,3.26.61,5.15.96,1.88.43,3.96.57,6.15.81,1.1.11,2.22.26,3.38.33,1.16.04,2.35.08,3.55.11,1.21.03,2.43.11,3.68.09,1.24-.04,2.5-.08,3.77-.12,2.54-.02,5.12-.31,7.69-.53,1.29-.09,2.57-.26,3.85-.46,1.28-.18,2.55-.36,3.81-.54,2.51-.45,4.99-.89,7.36-1.41,2.37-.56,4.67-1.05,6.82-1.67,2.16-.56,4.19-1.17,6.05-1.76,1.87-.56,3.55-1.18,5.06-1.68,1.48-.56,2.79-1.01,3.85-1.45,2.13-.83,3.31-1.38,3.31-1.38Z"/>
        <path class="cls-1" d="m117.88,244.12s-.7,1.1-2.04,2.95c-.65.94-1.51,2.03-2.46,3.3-1,1.23-2.08,2.67-3.36,4.16-1.26,1.5-2.64,3.12-4.17,4.76-1.48,1.69-3.17,3.36-4.88,5.12-1.74,1.73-3.6,3.46-5.49,5.21-.98.84-1.96,1.69-2.96,2.54-.98.86-1.99,1.71-3.04,2.5-2.08,1.6-4.13,3.26-6.3,4.68-1.07.73-2.13,1.46-3.18,2.18-1.06.7-2.16,1.31-3.22,1.95-1.06.63-2.11,1.26-3.13,1.87-1.04.57-2.1,1.07-3.12,1.59-2.04,1.01-3.93,2.04-5.81,2.72-1.85.75-3.54,1.43-5.04,2.04-1.55.48-2.9.89-4.02,1.23-2.23.68-3.51,1.07-3.51,1.07-1.01.31-2.09-.26-2.39-1.28-.31-1.01.26-2.09,1.28-2.39.03,0,.05-.01.08-.02l.18-.05s1.23-.32,3.39-.87c1.08-.28,2.4-.61,3.9-1,1.47-.52,3.13-1.1,4.94-1.74,1.84-.57,3.72-1.48,5.73-2.37,1-.46,2.05-.89,3.1-1.4,1.02-.55,2.07-1.11,3.13-1.68,1.06-.58,2.16-1.12,3.23-1.76,1.06-.66,2.13-1.32,3.21-1.99,2.2-1.29,4.28-2.82,6.4-4.31,1.07-.72,2.1-1.51,3.11-2.32,1.02-.8,2.03-1.59,3.03-2.38,1.95-1.65,3.87-3.27,5.67-4.9,1.77-1.67,3.52-3.24,5.07-4.86,1.59-1.57,3.04-3.11,4.36-4.55,1.34-1.42,2.48-2.8,3.54-3.98,1.01-1.23,1.91-2.27,2.61-3.18,1.43-1.78,2.17-2.85,2.17-2.85Z"/>
        <path class="cls-1" d="m208.09,252.36s.61,1.16,1.53,3.24c.49,1.03,1,2.32,1.63,3.78.57,1.48,1.27,3.14,1.92,4.99.67,1.84,1.38,3.84,2.04,5.99.72,2.13,1.32,4.42,1.99,6.79.63,2.37,1.19,4.85,1.77,7.36.24,1.27.48,2.55.72,3.83.26,1.28.49,2.57.64,3.88.35,2.6.76,5.2.9,7.79.1,1.29.2,2.58.3,3.84.07,1.27.05,2.53.08,3.76.02,1.24.03,2.46.05,3.65-.03,1.19-.13,2.36-.18,3.49-.14,2.27-.2,4.43-.55,6.39-.28,1.97-.53,3.78-.75,5.39-.36,1.58-.68,2.96-.94,4.1-.53,2.27-.83,3.57-.83,3.57-.24,1.03-1.27,1.67-2.3,1.44-1.03-.24-1.68-1.27-1.44-2.3,0-.03.01-.05.02-.08l.05-.18s.34-1.23.94-3.37c.3-1.08.67-2.38,1.09-3.88.29-1.53.61-3.26.96-5.15.43-1.88.57-3.96.81-6.15.11-1.1.26-2.22.33-3.38.04-1.16.08-2.35.11-3.55.03-1.21.11-2.43.09-3.68-.04-1.24-.08-2.5-.12-3.77-.02-2.54-.31-5.11-.53-7.69-.09-1.29-.26-2.57-.46-3.85-.18-1.28-.36-2.55-.54-3.81-.45-2.51-.89-4.99-1.41-7.36-.56-2.37-1.05-4.67-1.67-6.82-.56-2.16-1.17-4.19-1.76-6.05-.56-1.87-1.18-3.55-1.68-5.06-.56-1.48-1.01-2.79-1.45-3.85-.83-2.13-1.38-3.31-1.38-3.31Z"/>
        <path class="cls-1" d="m244.12,222.36s1.1.7,2.95,2.04c.94.65,2.03,1.51,3.3,2.46,1.23,1,2.67,2.08,4.16,3.36,1.5,1.26,3.12,2.64,4.76,4.17,1.69,1.48,3.36,3.17,5.12,4.88,1.73,1.74,3.46,3.6,5.21,5.49.84.98,1.69,1.96,2.54,2.96.86.98,1.71,1.99,2.5,3.04,1.6,2.08,3.26,4.13,4.68,6.3.73,1.07,1.46,2.13,2.18,3.18.7,1.06,1.31,2.16,1.95,3.22.63,1.06,1.26,2.11,1.87,3.13.57,1.04,1.07,2.1,1.59,3.12,1.01,2.04,2.04,3.93,2.72,5.81.75,1.85,1.43,3.54,2.04,5.04.48,1.55.89,2.9,1.23,4.02.68,2.23,1.07,3.51,1.07,3.51.31,1.01-.26,2.09-1.28,2.39-1.01.31-2.09-.26-2.39-1.28,0-.03-.01-.05-.02-.08l-.05-.18s-.32-1.23-.87-3.39c-.28-1.08-.61-2.4-1-3.9-.52-1.47-1.1-3.13-1.74-4.94-.57-1.84-1.48-3.72-2.37-5.74-.46-1-.89-2.05-1.4-3.1-.55-1.02-1.11-2.07-1.68-3.13-.58-1.06-1.12-2.16-1.76-3.23-.66-1.06-1.32-2.13-1.99-3.21-1.29-2.2-2.82-4.28-4.31-6.4-.72-1.07-1.51-2.1-2.32-3.11-.8-1.02-1.59-2.03-2.38-3.03-1.65-1.95-3.27-3.87-4.9-5.67-1.67-1.77-3.24-3.52-4.86-5.07-1.57-1.59-3.11-3.04-4.55-4.36-1.42-1.34-2.8-2.48-3.98-3.54-1.23-1.01-2.27-1.91-3.18-2.61-1.78-1.43-2.85-2.17-2.85-2.17Z"/>
        <path class="cls-1" d="m252.36,132.15s1.16-.61,3.24-1.53c1.03-.49,2.32-1,3.78-1.63,1.48-.57,3.14-1.27,4.99-1.92,1.84-.67,3.84-1.38,5.99-2.04,2.13-.72,4.42-1.32,6.79-1.99,2.37-.63,4.85-1.19,7.36-1.77,1.27-.24,2.55-.48,3.83-.72,1.28-.26,2.57-.49,3.88-.64,2.6-.35,5.2-.76,7.79-.9,1.29-.1,2.58-.2,3.84-.3,1.27-.07,2.53-.05,3.76-.08,1.24-.02,2.46-.03,3.65-.05,1.19.03,2.36.13,3.49.18,2.27.14,4.43.2,6.39.55,1.97.28,3.78.53,5.39.75,1.58.36,2.96.68,4.1.94,2.27.53,3.57.83,3.57.83,1.03.24,1.67,1.27,1.44,2.3-.24,1.03-1.27,1.67-2.3,1.43-.03,0-.05-.01-.08-.02l-.18-.05s-1.23-.34-3.37-.94c-1.08-.3-2.38-.67-3.88-1.09-1.53-.29-3.26-.61-5.15-.96-1.88-.43-3.96-.57-6.15-.81-1.1-.11-2.22-.26-3.38-.33-1.16-.04-2.35-.08-3.55-.11-1.21-.03-2.43-.11-3.68-.09-1.24.04-2.5.08-3.77.12-2.54.02-5.11.31-7.69.53-1.29.09-2.57.26-3.85.46-1.28.18-2.55.36-3.81.54-2.51.45-4.99.89-7.36,1.41-2.37.56-4.67,1.05-6.82,1.67-2.16.56-4.19,1.17-6.05,1.76-1.87.56-3.55,1.18-5.06,1.68-1.48.56-2.79,1.01-3.85,1.45-2.13.83-3.31,1.38-3.31,1.38Z"/>
        <path class="cls-1" d="m222.36,96.12s.7-1.1,2.04-2.95c.65-.94,1.51-2.03,2.46-3.3,1-1.23,2.08-2.67,3.36-4.16,1.26-1.5,2.64-3.12,4.17-4.76,1.48-1.69,3.17-3.36,4.88-5.12,1.74-1.73,3.6-3.46,5.49-5.21.98-.84,1.96-1.69,2.96-2.54.98-.86,1.99-1.71,3.04-2.5,2.08-1.6,4.13-3.26,6.3-4.68,1.07-.73,2.13-1.46,3.18-2.18,1.06-.7,2.16-1.31,3.22-1.95,1.06-.63,2.11-1.26,3.13-1.87,1.04-.57,2.1-1.07,3.11-1.59,2.04-1.01,3.93-2.04,5.81-2.72,1.85-.75,3.54-1.43,5.04-2.04,1.55-.48,2.9-.89,4.02-1.23,2.23-.68,3.51-1.07,3.51-1.07,1.01-.31,2.09.26,2.39,1.28.31,1.01-.26,2.09-1.28,2.39-.03,0-.05.01-.08.02l-.18.05s-1.23.32-3.39.87c-1.08.28-2.4.61-3.9,1-1.47.52-3.13,1.1-4.94,1.74-1.84.57-3.72,1.48-5.73,2.37-1,.46-2.05.89-3.1,1.4-1.02.55-2.07,1.11-3.13,1.68-1.06.58-2.16,1.12-3.23,1.76-1.06.66-2.13,1.32-3.21,1.99-2.2,1.29-4.28,2.82-6.4,4.31-1.07.72-2.1,1.51-3.11,2.32-1.02.8-2.03,1.59-3.03,2.38-1.95,1.65-3.87,3.27-5.67,4.9-1.77,1.67-3.52,3.24-5.07,4.86-1.59,1.57-3.04,3.11-4.36,4.55-1.34,1.42-2.48,2.8-3.54,3.98-1.01,1.23-1.91,2.27-2.61,3.18-1.43,1.78-2.18,2.85-2.18,2.85Z"/>
        <path class="cls-1" d="m94.94,118.77s-1.1-.7-2.95-2.04c-.94-.65-2.03-1.51-3.3-2.46-1.23-1-2.67-2.08-4.16-3.36-1.5-1.26-3.12-2.64-4.76-4.17-1.69-1.48-3.36-3.17-5.12-4.88-1.73-1.74-3.46-3.6-5.21-5.49-.84-.98-1.69-1.96-2.54-2.96-.86-.98-1.71-1.99-2.5-3.04-1.6-2.08-3.26-4.13-4.68-6.3-.73-1.07-1.46-2.13-2.18-3.18-.7-1.06-1.31-2.16-1.95-3.22-.63-1.06-1.26-2.11-1.87-3.13-.57-1.04-1.07-2.1-1.59-3.11-1.01-2.04-2.04-3.93-2.72-5.81-.75-1.85-1.43-3.54-2.04-5.04-.48-1.55-.89-2.9-1.23-4.02-.68-2.23-1.07-3.51-1.07-3.51-.31-1.01.26-2.09,1.28-2.39,1.01-.31,2.09.26,2.39,1.28,0,.03.01.05.02.08l.05.18s.32,1.23.87,3.39c.28,1.08.61,2.4,1,3.9.52,1.47,1.1,3.13,1.74,4.94.57,1.84,1.48,3.72,2.37,5.74.46,1,.89,2.05,1.4,3.1.55,1.02,1.11,2.07,1.68,3.13.58,1.06,1.12,2.16,1.76,3.23.66,1.06,1.32,2.13,1.99,3.21,1.29,2.2,2.82,4.28,4.31,6.4.72,1.07,1.51,2.1,2.32,3.11.8,1.02,1.59,2.03,2.38,3.03,1.65,1.95,3.27,3.87,4.9,5.67,1.67,1.77,3.24,3.52,4.86,5.07,1.57,1.59,3.11,3.04,4.55,4.36,1.42,1.34,2.8,2.48,3.98,3.54,1.23,1,2.27,1.91,3.18,2.61,1.78,1.43,2.85,2.17,2.85,2.17Z"/>
      </g>
      <g>
        <path class="cls-2" d="m184.05,171.89c-.98,7.69-8,13.14-15.7,12.17-7.69-.98-13.14-8-12.17-15.7s8-13.14,15.7-12.17,13.14,8,12.17,15.7Z"/>
        <path class="cls-5" d="m157.18,146.16s-1.38-9.53-1.92-23.96c-.15-3.61-.21-7.51-.23-11.65.02-4.14.09-8.5.32-13.01.1-2.26.23-4.55.42-6.87.15-2.32.39-4.66.62-7.02.21-2.36.57-4.73.84-7.12.35-2.38.71-4.77,1.11-7.15.87-4.75,1.82-9.5,3.06-14.1.31-1.15.61-2.3.92-3.44.35-1.13.7-2.25,1.05-3.37.65-2.25,1.48-4.41,2.25-6.55.19-.54.39-1.07.58-1.6.22-.52.44-1.04.66-1.55.44-1.03.87-2.05,1.3-3.06.86-2.02,1.89-3.92,2.79-5.81.97-1.86,2.04-3.6,3.01-5.33,1.04-1.68,2.15-3.25,3.16-4.78,2.19-2.96,4.27-5.63,6.39-7.77,1.97-2.28,4.06-3.9,5.63-5.38,1.64-1.4,3.08-2.34,3.99-3.06.93-.69,1.43-1.06,1.43-1.06.85-.63,2.05-.45,2.68.4.63.85.45,2.05-.4,2.68,0,0-.02.01-.03.02l-.16.11s-.47.34-1.37.97c-.87.65-2.24,1.5-3.82,2.78-1.51,1.37-3.53,2.84-5.45,4.96-2.06,1.98-4.11,4.48-6.28,7.26-1.01,1.45-2.11,2.92-3.15,4.52-.97,1.64-2.05,3.3-3.04,5.08-.92,1.81-1.97,3.63-2.85,5.57-.44.98-.89,1.96-1.34,2.96-.23.5-.45,1-.68,1.5-.2.51-.4,1.03-.61,1.55-.81,2.08-1.68,4.17-2.37,6.36-.37,1.09-.74,2.18-1.11,3.28-.33,1.12-.66,2.24-.99,3.36-1.34,4.5-2.4,9.16-3.37,13.84-.46,2.35-.87,4.7-1.28,7.05-.33,2.36-.75,4.7-1.01,7.04-.29,2.34-.59,4.66-.79,6.96-.24,2.3-.43,4.58-.58,6.82-.34,4.48-.51,8.83-.64,12.95-.09,4.12-.13,8.02-.06,11.62.18,14.41,1.32,23.97,1.32,23.97Z"/>
        <path class="cls-2" d="m171.89,156.19c7.69.98,13.14,8,12.17,15.7-.98,7.69-8,13.14-15.7,12.17-7.69-.98-13.14-8-12.17-15.7s8-13.14,15.7-12.17Z"/>
        <path class="cls-5" d="m146.16,183.06s-9.53,1.38-23.96,1.92c-3.61.15-7.51.21-11.65.23-4.14-.02-8.5-.09-13.01-.32-2.26-.1-4.55-.23-6.87-.42-2.32-.15-4.66-.39-7.02-.62-2.36-.21-4.73-.57-7.12-.84-2.38-.35-4.77-.71-7.15-1.11-4.75-.87-9.5-1.82-14.1-3.06-1.15-.31-2.3-.61-3.44-.92-1.13-.35-2.25-.7-3.37-1.05-2.25-.65-4.41-1.48-6.55-2.26-.53-.19-1.07-.39-1.6-.58-.52-.22-1.04-.44-1.55-.66-1.03-.44-2.05-.87-3.06-1.3-2.02-.86-3.92-1.89-5.81-2.79-1.86-.97-3.6-2.04-5.33-3.01-1.68-1.04-3.25-2.15-4.78-3.16-2.96-2.19-5.63-4.27-7.77-6.39-2.28-1.97-3.9-4.06-5.38-5.63-1.4-1.64-2.34-3.08-3.06-3.99-.69-.93-1.06-1.43-1.06-1.43-.63-.85-.45-2.05.4-2.68.85-.63,2.05-.45,2.68.4,0,0,.01.02.02.03l.11.16s.34.47.97,1.37c.65.87,1.5,2.24,2.78,3.82,1.37,1.51,2.84,3.53,4.96,5.45,1.98,2.06,4.48,4.11,7.26,6.28,1.45,1.01,2.92,2.11,4.52,3.15,1.64.97,3.3,2.05,5.08,3.04,1.81.92,3.63,1.97,5.57,2.85.98.44,1.96.89,2.96,1.34.5.23,1,.45,1.5.68.51.2,1.03.4,1.55.61,2.08.81,4.17,1.68,6.36,2.37,1.09.37,2.18.74,3.28,1.11,1.12.33,2.24.66,3.36.99,4.5,1.34,9.16,2.4,13.84,3.37,2.35.46,4.7.87,7.05,1.28,2.36.33,4.7.75,7.04,1.01,2.34.29,4.66.59,6.96.79,2.3.24,4.58.43,6.82.58,4.48.34,8.83.51,12.95.64,4.12.09,8.02.13,11.62.06,14.41-.18,23.97-1.32,23.97-1.32Z"/>
        <path class="cls-2" d="m156.19,168.35c.98-7.69,8-13.14,15.7-12.17s13.14,8,12.17,15.7c-.98,7.69-8,13.14-15.7,12.17-7.69-.98-13.14-8-12.17-15.7Z"/>
        <path class="cls-5" d="m183.06,194.08s1.38,9.53,1.92,23.96c.15,3.61.21,7.51.23,11.65-.02,4.14-.09,8.5-.32,13.01-.1,2.26-.23,4.55-.42,6.87-.15,2.32-.39,4.66-.62,7.02-.21,2.36-.57,4.73-.84,7.12-.35,2.38-.71,4.77-1.11,7.15-.87,4.75-1.82,9.5-3.06,14.1-.31,1.15-.61,2.3-.92,3.44-.35,1.13-.7,2.25-1.05,3.37-.65,2.25-1.48,4.41-2.25,6.55-.19.54-.39,1.07-.58,1.6-.22.52-.44,1.04-.66,1.55-.44,1.03-.87,2.05-1.3,3.06-.86,2.02-1.89,3.92-2.79,5.81-.97,1.86-2.04,3.6-3.01,5.33-1.04,1.68-2.15,3.25-3.16,4.78-2.19,2.96-4.27,5.63-6.39,7.77-1.97,2.28-4.06,3.9-5.63,5.38-1.64,1.4-3.08,2.34-3.99,3.06-.93.69-1.43,1.06-1.43,1.06-.85.63-2.05.45-2.68-.4-.63-.85-.45-2.05.4-2.68,0,0,.02-.01.03-.02l.16-.11s.47-.34,1.37-.97c.87-.65,2.24-1.5,3.82-2.78,1.51-1.37,3.53-2.84,5.45-4.96,2.06-1.98,4.11-4.48,6.28-7.26,1.01-1.45,2.11-2.92,3.15-4.52.97-1.64,2.05-3.3,3.04-5.08.92-1.81,1.97-3.63,2.85-5.57.44-.98.89-1.96,1.34-2.96.23-.5.45-1,.68-1.5.2-.51.4-1.03.61-1.55.81-2.08,1.68-4.17,2.37-6.36.37-1.09.74-2.18,1.11-3.28.33-1.12.66-2.24.99-3.36,1.34-4.5,2.4-9.16,3.37-13.84.46-2.35.87-4.7,1.28-7.05.33-2.36.75-4.7,1.01-7.04.29-2.34.59-4.66.79-6.96.24-2.3.43-4.58.58-6.82.34-4.48.51-8.83.64-12.95.09-4.12.12-8.02.06-11.62-.18-14.41-1.32-23.97-1.32-23.97Z"/>
        <path class="cls-4" d="m168.35,184.05c-7.69-.98-13.14-8-12.17-15.7s8-13.14,15.7-12.17,13.14,8,12.17,15.7c-.98,7.69-8,13.14-15.7,12.17Z"/>
        <path class="cls-5" d="m194.08,157.18s9.53-1.38,23.96-1.92c3.61-.15,7.51-.21,11.65-.23,4.14.02,8.5.09,13.01.32,2.26.1,4.55.23,6.87.42,2.32.15,4.66.39,7.02.62,2.36.21,4.73.57,7.12.84,2.38.35,4.77.71,7.15,1.11,4.75.87,9.5,1.82,14.1,3.06,1.15.31,2.3.61,3.44.92,1.13.35,2.25.7,3.37,1.05,2.25.65,4.41,1.48,6.55,2.25.54.19,1.07.39,1.6.58.52.22,1.04.44,1.55.66,1.03.44,2.05.87,3.06,1.3,2.02.86,3.92,1.89,5.81,2.79,1.86.97,3.6,2.04,5.33,3.01,1.68,1.04,3.25,2.15,4.78,3.16,2.96,2.19,5.63,4.27,7.77,6.39,2.28,1.97,3.9,4.06,5.38,5.63,1.4,1.64,2.34,3.08,3.06,3.99.69.93,1.06,1.43,1.06,1.43.63.85.45,2.05-.4,2.68s-2.05.45-2.68-.4c0,0-.01-.02-.02-.03l-.11-.16s-.34-.47-.97-1.37c-.65-.87-1.5-2.24-2.78-3.82-1.37-1.51-2.84-3.53-4.96-5.45-1.98-2.06-4.48-4.11-7.26-6.28-1.45-1.01-2.92-2.11-4.52-3.15-1.64-.97-3.3-2.05-5.08-3.04-1.81-.92-3.63-1.97-5.57-2.85-.98-.44-1.96-.89-2.96-1.34-.5-.23-1-.45-1.5-.68-.51-.2-1.03-.4-1.55-.61-2.08-.81-4.17-1.68-6.36-2.37-1.09-.37-2.18-.74-3.28-1.11-1.12-.33-2.24-.66-3.36-.99-4.5-1.34-9.16-2.4-13.84-3.37-2.35-.46-4.7-.87-7.05-1.28-2.36-.33-4.7-.75-7.04-1.01-2.34-.29-4.66-.59-6.96-.79-2.3-.24-4.58-.43-6.82-.58-4.48-.34-8.83-.51-12.95-.64-4.12-.09-8.02-.13-11.62-.06-14.41.18-23.97,1.32-23.97,1.32Z"/>
        <path class="cls-1" d="m147.38,160.71L38.12,85.07c-.87-.6-1.09-1.8-.49-2.67.6-.87,1.8-1.09,2.67-.49.01,0,.03.02.04.03l107.03,78.76Z"/>
        <path class="cls-1" d="m160.71,192.87l-75.64,109.26c-.6.87-1.8,1.09-2.67.49-.87-.6-1.09-1.8-.49-2.67,0-.01.02-.03.03-.04l78.76-107.03Z"/>
        <path class="cls-1" d="m192.87,179.53l109.26,75.64c.87.6,1.09,1.8.49,2.67-.6.87-1.8,1.09-2.67.49-.01,0-.03-.02-.05-.03l-107.03-78.76Z"/>
        <path class="cls-1" d="m179.53,147.38l75.64-109.26c.6-.87,1.8-1.09,2.67-.49.87.6,1.09,1.8.49,2.67,0,.01-.02.03-.03.05l-78.76,107.03Z"/>
        <path class="cls-4" d="m169.27,141.76s.45-6.17,1.97-15.33c1.52-9.15,4.12-21.3,8.23-33.05,1-2.94,2.13-5.84,3.31-8.68.57-1.42,1.23-2.8,1.83-4.18.63-1.37,1.3-2.7,1.94-4.02.69-1.29,1.37-2.57,2.04-3.81.72-1.22,1.4-2.42,2.11-3.57.74-1.13,1.45-2.23,2.14-3.3.74-1.04,1.46-2.04,2.15-3,1.46-1.86,2.82-3.57,4.15-4.98,1.26-1.47,2.54-2.59,3.52-3.58,1.02-.95,1.89-1.64,2.45-2.13.57-.49.88-.75.88-.75.81-.69,2.02-.59,2.71.22.69.81.59,2.02-.22,2.71-.02.01-.03.03-.05.04l-.11.09s-.29.23-.84.66c-.54.44-1.37,1.04-2.36,1.9-.95.9-2.2,1.89-3.44,3.24-1.31,1.28-2.66,2.85-4.13,4.58-.7.9-1.42,1.83-2.17,2.8-.71,1-1.44,2.04-2.19,3.1-.71,1.1-1.43,2.23-2.18,3.38-.7,1.19-1.41,2.4-2.13,3.63-.67,1.26-1.37,2.54-2.05,3.85-.64,1.33-1.34,2.65-1.95,4.03-1.26,2.74-2.49,5.55-3.59,8.42-4.5,11.44-7.57,23.43-9.44,32.49-1.87,9.07-2.56,15.22-2.56,15.22Z"/>
        <path class="cls-4" d="m149.47,150.67s-4.05-4.68-9.45-12.23c-5.4-7.54-12.15-17.98-17.55-29.18-1.37-2.79-2.63-5.64-3.8-8.47-.6-1.41-1.11-2.85-1.66-4.25-.52-1.41-.99-2.83-1.47-4.21-.43-1.4-.84-2.78-1.25-4.14-.35-1.37-.72-2.7-1.04-4.02-.28-1.32-.55-2.61-.82-3.85-.21-1.26-.41-2.47-.6-3.64-.28-2.35-.53-4.51-.59-6.45-.15-1.93-.03-3.63-.05-5.02.04-1.39.18-2.49.22-3.24.06-.75.09-1.15.09-1.15.08-1.06,1.84-1.74,2.89-1.65,1.06.08,2.72,1.12,2.59,2.17,0,.02,0,.04,0,.06l-.02.14s-.87.26-.95.96c-.07.69-.65,1.65-.74,2.96-.03,1.31-.42,2.87-.34,4.7-.02,1.83.03,3.89.21,6.14.14,1.13.24,2.29.39,3.51.21,1.21.4,2.46.62,3.74.28,1.28.55,2.59.84,3.93.35,1.33.7,2.69,1.06,4.07.42,1.37.82,2.77,1.27,4.17.49,1.39.93,2.82,1.46,4.23,1.04,2.83,2.17,5.68,3.42,8.49,4.91,11.27,11.22,21.92,16.3,29.65,5.09,7.73,8.95,12.57,8.95,12.57Z"/>
        <path class="cls-4" d="m141.76,170.97s-6.17-.45-15.33-1.97c-9.15-1.52-21.3-4.12-33.05-8.23-2.94-1-5.84-2.13-8.68-3.31-1.42-.57-2.8-1.23-4.18-1.83-1.37-.63-2.7-1.3-4.02-1.94-1.29-.69-2.57-1.37-3.81-2.04-1.22-.72-2.42-1.4-3.57-2.11-1.13-.74-2.23-1.45-3.3-2.14-1.04-.74-2.04-1.46-3-2.15-1.86-1.46-3.57-2.82-4.98-4.15-1.47-1.26-2.59-2.54-3.58-3.52-.95-1.02-1.64-1.89-2.13-2.45-.49-.57-.75-.88-.75-.88-.69-.81-.59-2.02.22-2.71.81-.69,2.02-.59,2.71.22.01.02.03.03.04.05l.09.11s.23.29.66.84c.44.54,1.04,1.37,1.9,2.36.9.95,1.89,2.2,3.24,3.44,1.28,1.31,2.85,2.66,4.58,4.13.9.7,1.83,1.42,2.8,2.17,1,.71,2.04,1.44,3.1,2.19,1.1.71,2.23,1.43,3.38,2.18,1.19.7,2.4,1.41,3.63,2.13,1.26.67,2.54,1.37,3.85,2.05,1.33.64,2.65,1.34,4.03,1.96,2.74,1.26,5.55,2.49,8.42,3.59,11.44,4.5,23.43,7.57,32.49,9.44,9.07,1.87,15.22,2.55,15.22,2.55Z"/>
        <path class="cls-4" d="m150.67,190.77s-4.68,4.05-12.23,9.45c-7.54,5.4-17.98,12.15-29.18,17.55-2.79,1.37-5.64,2.63-8.47,3.8-1.41.6-2.85,1.11-4.25,1.66-1.41.52-2.83.99-4.21,1.47-1.4.43-2.78.84-4.14,1.25-1.37.35-2.7.72-4.02,1.04-1.32.28-2.61.55-3.85.82-1.26.21-2.47.41-3.64.6-2.35.28-4.51.53-6.45.59-1.93.15-3.63.03-5.02.05-1.39-.04-2.49-.18-3.24-.22-.75-.06-1.15-.09-1.15-.09-1.06-.08-2.06.71-1.98-.35.08-1.06.8-.17,1.85-.04h.06s.14.03.14.03c0,0,.59-1.68,1.28-1.6.69.07,1.82-.63,3.12-.53,1.31.03,2.95-.22,4.78-.29,1.83.02,3.93-.35,6.18-.53,1.13-.14,2.31-.4,3.53-.55,1.21-.21,2.47-.48,3.75-.7,1.28-.28,2.59-.59,3.93-.88,1.33-.35,2.69-.72,4.08-1.08,1.37-.42,2.77-.83,4.17-1.28,1.39-.49,2.82-.93,4.23-1.47,2.83-1.04,5.69-2.17,8.49-3.42,11.27-4.91,21.92-11.22,29.65-16.3,7.73-5.09,12.57-8.96,12.57-8.96Z"/>
        <path class="cls-4" d="m170.97,198.48s-.45,6.17-1.97,15.33c-1.52,9.15-4.12,21.3-8.23,33.05-1,2.94-2.13,5.84-3.31,8.68-.57,1.42-1.23,2.8-1.83,4.18-.63,1.37-1.3,2.7-1.94,4.02-.69,1.29-1.37,2.57-2.04,3.81-.72,1.22-1.4,2.42-2.11,3.57-.74,1.13-1.45,2.23-2.14,3.3-.74,1.04-1.46,2.04-2.15,3-1.46,1.86-2.82,3.57-4.15,4.98-1.26,1.47-2.54,2.59-3.52,3.58-1.02.95-1.89,1.64-2.45,2.13-.57.49-.88.75-.88.75-.81.69-2.02.59-2.71-.22-.69-.81-.59-2.02.22-2.71.02-.01.03-.03.05-.04l.11-.09s.29-.23.84-.66c.54-.44,1.37-1.04,2.36-1.9.95-.9,2.2-1.89,3.44-3.24,1.31-1.28,2.66-2.85,4.13-4.58.7-.9,1.42-1.83,2.17-2.8.71-1,1.44-2.04,2.19-3.1.71-1.1,1.43-2.23,2.18-3.38.7-1.19,1.41-2.4,2.13-3.63.67-1.26,1.37-2.54,2.05-3.85.64-1.33,1.34-2.65,1.95-4.03,1.26-2.74,2.49-5.55,3.59-8.42,4.5-11.44,7.57-23.43,9.44-32.49,1.87-9.07,2.56-15.22,2.56-15.22Z"/>
        <path class="cls-4" d="m190.77,189.58s4.05,4.68,9.45,12.23c5.4,7.54,12.15,17.98,17.55,29.18,1.37,2.79,2.63,5.64,3.8,8.47.6,1.41,1.11,2.85,1.66,4.25.52,1.41.99,2.83,1.47,4.21.43,1.4.84,2.78,1.25,4.14.35,1.37.72,2.7,1.04,4.02.28,1.32.55,2.61.82,3.85.21,1.26.41,2.47.6,3.64.28,2.35.53,4.51.59,6.45.15,1.93.03,3.63.05,5.02-.04,1.39-.18,2.49-.22,3.24-.06.75-.09,1.15-.09,1.15-.08,1.06.24,2-.82,1.92-1.06-.08-.65-.86-.52-1.91,0-.02,0-.04,0-.06l.02-.14s-1.2-.53-1.12-1.22c.07-.69-.39-1.79-.3-3.09.03-1.31-.1-2.93-.17-4.76.02-1.83-.29-3.92-.47-6.18-.14-1.13-.37-2.31-.52-3.52-.21-1.21-.46-2.46-.68-3.75-.28-1.28-.58-2.59-.87-3.93-.35-1.33-.71-2.69-1.07-4.08-.42-1.37-.83-2.77-1.28-4.17-.49-1.39-.93-2.82-1.47-4.23-1.04-2.83-2.17-5.69-3.42-8.49-4.91-11.27-11.22-21.92-16.3-29.65-5.09-7.73-8.96-12.57-8.96-12.57Z"/>
        <path class="cls-4" d="m198.48,169.27s6.17.45,15.33,1.97c9.15,1.52,21.3,4.12,33.05,8.23,2.94,1,5.84,2.13,8.68,3.31,1.42.57,2.8,1.23,4.18,1.83,1.37.63,2.7,1.3,4.02,1.94,1.29.69,2.57,1.37,3.81,2.04,1.22.72,2.42,1.4,3.57,2.11,1.13.74,2.23,1.45,3.3,2.14,1.04.74,2.04,1.46,3,2.15,1.86,1.46,3.57,2.82,4.98,4.15,1.47,1.26,2.59,2.54,3.58,3.52.95,1.02,1.64,1.89,2.13,2.45.49.57.75.88.75.88.69.81.59,2.02-.22,2.71-.81.69-2.02.59-2.71-.22-.01-.02-.03-.03-.04-.05l-.09-.11s-.23-.29-.66-.84c-.44-.54-1.04-1.37-1.9-2.36-.9-.95-1.89-2.2-3.24-3.44-1.28-1.31-2.85-2.66-4.58-4.13-.9-.7-1.83-1.42-2.8-2.17-1-.71-2.04-1.44-3.1-2.19-1.1-.71-2.23-1.43-3.38-2.18-1.19-.7-2.4-1.41-3.63-2.13-1.26-.67-2.54-1.37-3.85-2.05-1.33-.64-2.65-1.34-4.03-1.95-2.74-1.26-5.55-2.49-8.42-3.59-11.44-4.5-23.43-7.57-32.49-9.44-9.07-1.87-15.22-2.56-15.22-2.56Z"/>
        <path class="cls-4" d="m189.58,149.47s4.68-4.05,12.23-9.45c7.54-5.4,17.98-12.15,29.18-17.55,2.79-1.37,5.64-2.63,8.47-3.8,1.41-.6,2.85-1.11,4.25-1.66,1.41-.52,2.83-.99,4.21-1.47,1.4-.43,2.78-.84,4.14-1.25,1.37-.35,2.7-.72,4.02-1.04,1.32-.28,2.61-.55,3.85-.82,1.26-.21,2.47-.41,3.64-.6,2.35-.28,4.51-.53,6.45-.59,1.93-.15,3.63-.03,5.02-.05,1.39.04,2.49.18,3.24.22.75.06,1.15.09,1.15.09,1.06.08,1.87.84,1.78,1.89-.08,1.06-.99,1.72-2.04,1.59h-.06s-.14-.03-.14-.03c0,0-.39.13-1.08.05-.69-.07-1.72-.15-3.02-.24-1.31-.03-2.9-.17-4.73-.09-1.83-.02-3.9.16-6.16.34-1.13.14-2.3.3-3.51.45-1.21.21-2.46.43-3.74.65-1.28.28-2.59.57-3.93.86-1.33.35-2.69.7-4.07,1.07-1.37.42-2.77.82-4.17,1.28-1.39.49-2.82.93-4.23,1.47-2.83,1.04-5.68,2.17-8.49,3.42-11.27,4.91-21.92,11.22-29.65,16.3-7.73,5.09-12.57,8.95-12.57,8.95Z"/>
        <path class="cls-1" d="m142.8,83.76s-.46-1.22-1.11-3.41c-.35-1.09-.7-2.43-1.14-3.96-.38-1.54-.87-3.27-1.28-5.19-.44-1.91-.89-3.99-1.27-6.2-.45-2.2-.76-4.56-1.13-6.98-.33-2.43-.57-4.96-.83-7.53-.08-1.29-.16-2.59-.24-3.89-.09-1.3-.16-2.62-.15-3.93-.02-2.63-.1-5.26.09-7.85.06-1.3.12-2.58.19-3.85.09-1.27.27-2.51.4-3.74.14-1.23.28-2.44.41-3.62.18-1.18.42-2.32.62-3.44.43-2.23.76-4.37,1.35-6.27.52-1.92,1-3.69,1.43-5.25.56-1.52,1.05-2.85,1.45-3.94.81-2.19,1.27-3.44,1.27-3.44.37-.99,1.47-1.5,2.47-1.13.99.37,1.5,1.47,1.13,2.47,0,.02-.02.05-.03.07l-.07.17s-.5,1.17-1.36,3.23c-.43,1.03-.96,2.28-1.56,3.71-.48,1.48-1.01,3.16-1.6,4.98-.66,1.81-1.07,3.86-1.58,6-.24,1.08-.53,2.17-.76,3.31-.18,1.15-.37,2.32-.56,3.51-.18,1.19-.41,2.4-.55,3.64-.12,1.24-.24,2.49-.35,3.76-.3,2.53-.34,5.11-.44,7.7-.07,1.29-.06,2.59-.03,3.88.02,1.29.04,2.58.06,3.85.13,2.55.26,5.06.47,7.48.26,2.42.45,4.77.8,6.98.28,2.22.64,4.3.98,6.22.32,1.93.73,3.67,1.03,5.23.37,1.54.65,2.9.95,4,.55,2.21.95,3.45.95,3.45Z"/>
        <path class="cls-3" d="m103.28,108.99s-1.01-.83-2.67-2.4c-.85-.77-1.82-1.75-2.97-2.86-1.1-1.15-2.39-2.4-3.7-3.86-1.33-1.44-2.76-3.01-4.2-4.73-1.49-1.68-2.93-3.57-4.47-5.48-1.5-1.94-2.98-4.01-4.48-6.11-.71-1.08-1.43-2.16-2.15-3.25-.73-1.08-1.45-2.18-2.09-3.33-1.33-2.27-2.72-4.5-3.85-6.84-.59-1.15-1.18-2.3-1.76-3.43-.56-1.14-1.03-2.31-1.53-3.44-.49-1.14-.98-2.25-1.46-3.34-.44-1.11-.8-2.22-1.18-3.29-.75-2.15-1.53-4.16-1.97-6.1-.51-1.93-.98-3.69-1.39-5.26-.28-1.6-.52-2.99-.72-4.14-.39-2.3-.62-3.62-.62-3.62-.18-1.04.52-2.04,1.57-2.22,1.04-.18,2.04.52,2.22,1.57,0,.03,0,.05.01.08l.02.18s.16,1.26.43,3.47c.14,1.11.31,2.45.5,4,.33,1.52.7,3.24,1.11,5.12.33,1.9,1,3.87,1.63,5.99.33,1.05.63,2.15,1,3.25.41,1.08.84,2.19,1.27,3.32.44,1.12.84,2.29,1.34,3.43.52,1.13,1.04,2.28,1.57,3.43,1,2.34,2.26,4.6,3.47,6.89.58,1.16,1.24,2.27,1.91,3.37.66,1.11,1.32,2.21,1.98,3.31,1.39,2.14,2.75,4.25,4.15,6.24,1.43,1.97,2.78,3.9,4.18,5.64,1.35,1.78,2.7,3.41,3.96,4.9,1.24,1.51,2.46,2.81,3.51,4.01,1.09,1.15,2.02,2.18,2.83,2.98,1.59,1.64,2.55,2.52,2.55,2.52Z"/>
        <path class="cls-1" d="m83.76,197.44s-1.22.46-3.41,1.11c-1.09.35-2.43.7-3.96,1.14-1.54.38-3.27.87-5.19,1.28-1.91.44-3.99.89-6.2,1.27-2.2.45-4.56.76-6.98,1.13-2.43.33-4.96.57-7.53.83-1.29.08-2.59.16-3.89.24-1.3.09-2.62.16-3.93.15-2.63.02-5.26.1-7.85-.09-1.3-.06-2.58-.12-3.85-.19-1.27-.09-2.51-.27-3.74-.4-1.23-.14-2.44-.28-3.62-.41-1.18-.18-2.32-.42-3.44-.62-2.23-.43-4.37-.76-6.27-1.35-1.92-.52-3.69-1-5.25-1.43-1.52-.56-2.85-1.05-3.94-1.45-2.19-.81-3.44-1.27-3.44-1.27-.99-.37-1.5-1.47-1.13-2.47.37-.99,1.47-1.5,2.47-1.13.02,0,.05.02.07.03l.17.07s1.17.49,3.23,1.36c1.03.43,2.28.96,3.71,1.56,1.48.48,3.16,1.01,4.98,1.6,1.81.66,3.86,1.07,6,1.58,1.08.24,2.17.53,3.31.76,1.15.18,2.32.37,3.51.56,1.19.18,2.4.41,3.64.55,1.24.12,2.49.24,3.76.35,2.53.3,5.11.34,7.7.44,1.29.07,2.59.06,3.88.03,1.29-.02,2.58-.04,3.85-.06,2.55-.13,5.06-.26,7.48-.47,2.42-.26,4.77-.45,6.98-.8,2.22-.28,4.3-.64,6.22-.98,1.93-.32,3.67-.73,5.23-1.03,1.54-.37,2.9-.65,4-.95,2.21-.55,3.45-.95,3.45-.95Z"/>
        <path class="cls-1" d="m108.99,236.96s-.83,1.01-2.4,2.67c-.77.85-1.75,1.82-2.86,2.97-1.15,1.1-2.4,2.39-3.86,3.7-1.44,1.33-3.01,2.76-4.73,4.2-1.68,1.49-3.57,2.93-5.48,4.47-1.94,1.5-4.01,2.98-6.11,4.48-1.08.71-2.16,1.43-3.25,2.15-1.08.73-2.18,1.45-3.33,2.09-2.27,1.33-4.5,2.72-6.84,3.85-1.15.59-2.3,1.18-3.43,1.76-1.14.56-2.31,1.02-3.44,1.53-1.14.49-2.25.98-3.34,1.46-1.11.44-2.22.8-3.29,1.18-2.15.75-4.16,1.53-6.1,1.97-1.93.51-3.69.98-5.26,1.39-1.6.28-2.99.52-4.14.72-2.3.39-3.62.62-3.62.62-1.04.18-2.04-.52-2.22-1.57-.18-1.04.52-2.04,1.57-2.22.03,0,.05,0,.08-.01l.18-.02s1.26-.16,3.47-.43c1.11-.14,2.45-.31,4-.5,1.52-.33,3.24-.7,5.12-1.11,1.9-.33,3.87-1,5.99-1.63,1.05-.33,2.15-.63,3.25-1,1.08-.41,2.19-.84,3.32-1.27,1.12-.44,2.29-.84,3.43-1.34,1.13-.52,2.28-1.04,3.43-1.57,2.34-1,4.6-2.26,6.89-3.47,1.16-.58,2.27-1.24,3.37-1.91,1.11-.66,2.21-1.32,3.31-1.98,2.14-1.39,4.25-2.75,6.24-4.15,1.97-1.43,3.9-2.78,5.64-4.18,1.78-1.35,3.41-2.7,4.9-3.96,1.51-1.24,2.81-2.46,4.01-3.51,1.15-1.09,2.18-2.02,2.98-2.83,1.64-1.59,2.52-2.55,2.52-2.55Z"/>
        <path class="cls-1" d="m197.44,256.49s.46,1.22,1.11,3.41c.35,1.09.7,2.43,1.14,3.96.38,1.54.87,3.27,1.28,5.19.44,1.91.89,3.99,1.27,6.2.45,2.2.76,4.56,1.13,6.98.33,2.43.57,4.96.83,7.53.08,1.29.16,2.59.24,3.89.09,1.3.16,2.62.15,3.93.02,2.63.1,5.26-.09,7.85-.06,1.3-.12,2.58-.19,3.85-.09,1.27-.27,2.51-.4,3.74-.14,1.23-.28,2.44-.41,3.62-.18,1.18-.42,2.32-.62,3.44-.43,2.23-.76,4.37-1.35,6.27-.52,1.92-1,3.69-1.43,5.25-.56,1.52-1.05,2.85-1.45,3.94-.81,2.19-1.27,3.44-1.27,3.44-.37.99-1.47,1.5-2.47,1.13s-1.5-1.47-1.13-2.47c0-.03.02-.05.03-.07l.07-.17s.49-1.17,1.36-3.23c.43-1.03.96-2.28,1.56-3.71.48-1.48,1.01-3.16,1.6-4.98.66-1.81,1.07-3.86,1.58-6,.24-1.08.53-2.17.76-3.31.18-1.15.37-2.32.56-3.51.18-1.19.41-2.4.55-3.64.12-1.24.23-2.49.35-3.76.3-2.53.34-5.11.44-7.7.07-1.29.06-2.59.03-3.88-.02-1.29-.04-2.58-.06-3.85-.13-2.55-.26-5.06-.47-7.48-.26-2.42-.45-4.77-.8-6.98-.28-2.22-.64-4.3-.98-6.22-.32-1.93-.73-3.67-1.03-5.23-.37-1.54-.65-2.9-.95-4-.55-2.21-.95-3.45-.95-3.45Z"/>
        <path class="cls-1" d="m236.96,231.25s1.01.83,2.67,2.4c.85.77,1.82,1.75,2.97,2.86,1.1,1.15,2.39,2.4,3.7,3.86,1.33,1.44,2.76,3.01,4.2,4.73,1.49,1.68,2.93,3.57,4.47,5.48,1.5,1.94,2.98,4.01,4.48,6.11.71,1.08,1.43,2.16,2.15,3.25.73,1.08,1.45,2.18,2.09,3.33,1.33,2.27,2.72,4.5,3.85,6.84.59,1.15,1.18,2.3,1.76,3.43.56,1.14,1.02,2.31,1.53,3.44.49,1.14.98,2.25,1.46,3.34.44,1.11.8,2.22,1.18,3.29.75,2.15,1.53,4.16,1.97,6.1.51,1.93.98,3.69,1.39,5.26.28,1.6.52,2.99.72,4.14.39,2.3.62,3.62.62,3.62.18,1.04-.52,2.04-1.57,2.22-1.04.18-2.04-.52-2.22-1.57,0-.03,0-.05-.01-.08l-.02-.18s-.16-1.26-.43-3.47c-.14-1.11-.31-2.45-.5-4-.33-1.52-.7-3.24-1.11-5.12-.33-1.9-1-3.87-1.63-5.99-.33-1.05-.63-2.15-1-3.25-.41-1.08-.84-2.19-1.27-3.32-.44-1.12-.84-2.29-1.34-3.43-.52-1.13-1.04-2.28-1.57-3.43-1-2.34-2.26-4.6-3.47-6.89-.58-1.16-1.24-2.27-1.91-3.37-.66-1.11-1.32-2.21-1.98-3.31-1.39-2.14-2.75-4.25-4.15-6.24-1.43-1.97-2.78-3.9-4.18-5.64-1.35-1.78-2.7-3.41-3.96-4.9-1.24-1.51-2.46-2.81-3.51-4.01-1.09-1.15-2.02-2.18-2.83-2.98-1.59-1.64-2.55-2.52-2.55-2.52Z"/>
        <path class="cls-1" d="m256.49,142.8s1.22-.46,3.41-1.11c1.09-.35,2.43-.7,3.96-1.14,1.54-.38,3.27-.87,5.19-1.28,1.91-.44,3.99-.89,6.2-1.27,2.2-.45,4.56-.76,6.98-1.13,2.43-.33,4.96-.57,7.53-.83,1.29-.08,2.59-.16,3.89-.24,1.3-.09,2.62-.16,3.93-.15,2.63-.02,5.26-.1,7.85.09,1.3.06,2.58.12,3.85.19,1.27.09,2.51.27,3.74.4,1.23.14,2.44.28,3.62.41,1.18.18,2.32.42,3.44.62,2.23.43,4.37.76,6.27,1.35,1.92.52,3.69,1,5.25,1.43,1.52.56,2.85,1.05,3.94,1.45,2.19.81,3.44,1.27,3.44,1.27.99.37,1.5,1.47,1.13,2.47-.37.99-1.47,1.5-2.47,1.13-.03,0-.05-.02-.07-.03l-.17-.07s-1.17-.49-3.23-1.36c-1.03-.43-2.28-.96-3.71-1.56-1.48-.48-3.16-1.01-4.98-1.6-1.81-.66-3.86-1.07-6-1.58-1.08-.24-2.17-.53-3.31-.76-1.15-.18-2.32-.37-3.51-.56-1.19-.18-2.4-.41-3.64-.55-1.24-.12-2.49-.24-3.76-.35-2.53-.3-5.11-.34-7.7-.44-1.29-.07-2.59-.06-3.88-.03-1.29.02-2.58.04-3.85.06-2.55.13-5.06.26-7.48.47-2.42.26-4.77.45-6.98.8-2.22.28-4.3.64-6.22.98-1.93.32-3.67.73-5.23,1.03-1.54.37-2.9.65-4,.95-2.21.55-3.45.95-3.45.95Z"/>
        <path class="cls-1" d="m231.25,103.28s.83-1.01,2.4-2.67c.77-.85,1.75-1.82,2.86-2.97,1.15-1.1,2.4-2.39,3.86-3.7,1.44-1.33,3.01-2.76,4.73-4.2,1.68-1.49,3.57-2.93,5.48-4.47,1.94-1.5,4.01-2.98,6.11-4.48,1.08-.71,2.16-1.43,3.25-2.15,1.08-.73,2.18-1.45,3.33-2.09,2.27-1.33,4.5-2.72,6.84-3.85,1.15-.59,2.3-1.18,3.43-1.76,1.14-.56,2.31-1.02,3.44-1.53,1.14-.49,2.25-.98,3.34-1.46,1.11-.44,2.22-.8,3.29-1.18,2.15-.75,4.16-1.53,6.1-1.97,1.93-.51,3.69-.98,5.26-1.39,1.6-.28,2.99-.52,4.14-.72,2.3-.39,3.62-.62,3.62-.62,1.04-.18,2.04.52,2.22,1.57.18,1.04-.52,2.04-1.57,2.22-.03,0-.05,0-.08.01l-.18.02s-1.26.16-3.47.43c-1.11.14-2.45.31-4,.5-1.52.33-3.24.7-5.12,1.11-1.9.33-3.87,1-5.99,1.63-1.05.33-2.15.63-3.25,1-1.08.41-2.19.84-3.32,1.27-1.12.44-2.29.84-3.43,1.34-1.13.52-2.28,1.04-3.43,1.57-2.34,1-4.6,2.26-6.89,3.47-1.16.58-2.27,1.24-3.37,1.91-1.11.66-2.21,1.32-3.31,1.98-2.14,1.39-4.25,2.75-6.24,4.15-1.97,1.43-3.9,2.78-5.64,4.18-1.78,1.35-3.41,2.7-4.9,3.96-1.51,1.24-2.81,2.46-4.01,3.51-1.15,1.09-2.18,2.02-2.98,2.83-1.64,1.59-2.52,2.55-2.52,2.55Z"/>
        <path class="cls-1" d="m102,109.72s-1.01-.83-2.67-2.4c-.85-.76-1.82-1.75-2.97-2.86-1.1-1.15-2.39-2.4-3.7-3.86-1.33-1.44-2.76-3.01-4.2-4.73-1.49-1.68-2.93-3.57-4.47-5.48-1.5-1.94-2.98-4.01-4.48-6.11-.71-1.08-1.43-2.16-2.15-3.25-.73-1.08-1.45-2.18-2.09-3.33-1.33-2.27-2.72-4.5-3.85-6.84-.59-1.15-1.18-2.3-1.76-3.43-.56-1.14-1.02-2.31-1.53-3.44-.49-1.14-.98-2.25-1.46-3.34-.44-1.11-.8-2.22-1.18-3.29-.75-2.15-1.53-4.16-1.97-6.1-.51-1.93-.98-3.69-1.39-5.26-.28-1.6-.52-2.99-.72-4.14-.39-2.3-.62-3.62-.62-3.62-.18-1.04.52-2.04,1.57-2.22,1.04-.18,2.04.52,2.22,1.57,0,.03,0,.05.01.08l.02.18s.16,1.26.43,3.47c.14,1.11.31,2.45.5,4,.33,1.52.7,3.24,1.11,5.12.33,1.9,1,3.87,1.63,5.99.33,1.05.63,2.15,1,3.25.41,1.08.84,2.19,1.27,3.32.44,1.12.84,2.29,1.34,3.43.52,1.13,1.04,2.28,1.57,3.43,1,2.34,2.26,4.6,3.47,6.89.58,1.16,1.24,2.27,1.91,3.37.66,1.11,1.32,2.21,1.98,3.31,1.39,2.14,2.75,4.25,4.15,6.24,1.43,1.97,2.78,3.9,4.18,5.64,1.35,1.78,2.7,3.41,3.96,4.9,1.24,1.51,2.46,2.81,3.51,4.01,1.09,1.15,2.02,2.18,2.83,2.98,1.59,1.64,2.55,2.52,2.55,2.52Z"/>
      </g>
    </g>
  </g>
</svg>