<?xml version="1.0" encoding="UTF-8"?>
<svg xmlns="http://www.w3.org/2000/svg" xmlns:xlink="http://www.w3.org/1999/xlink" viewBox="0 0 1920 1080">
  <defs>
    <style>
      .cls-1 {
        clip-path: url(#clippath);
      }

      .cls-2 {
        fill: none;
      }

      .cls-2, .cls-3, .cls-4, .cls-5, .cls-6, .cls-7, .cls-8 {
        stroke-width: 0px;
      }

      .cls-9 {
        letter-spacing: 0em;
      }

      .cls-10 {
        font-family: Michroma, Michroma;
        font-size: 95.82px;
      }

      .cls-10, .cls-6, .cls-8 {
        fill: #00d0fd;
      }

      .cls-3 {
        fill: url(#radial-gradient);
      }

      .cls-11 {
        letter-spacing: .01em;
      }

      .cls-12 {
        letter-spacing: .01em;
      }

      .cls-13, .cls-4, .cls-5, .cls-6 {
        mix-blend-mode: color-dodge;
      }

      .cls-4, .cls-7 {
        fill: #df4ac9;
      }

      .cls-5 {
        fill: #606060;
      }

      .cls-14 {
        font-size: 239.58px;
      }

      .cls-14, .cls-15 {
        fill: #feffff;
        font-family: Montserrat-ExtraBold, Montserrat;
        font-weight: 700;
      }

      .cls-16 {
        letter-spacing: 0em;
      }

      .cls-17 {
        letter-spacing: -.03em;
      }

      .cls-15 {
        font-size: 74.2px;
      }

      .cls-18 {
        isolation: isolate;
      }

      .cls-19 {
        letter-spacing: 0em;
      }
    </style>
    <radialGradient id="radial-gradient" cx="59.81" cy="2251.91" fx="59.81" fy="2251.91" r="178.8" gradientTransform="translate(739.94 -9959.32) scale(3.68 4.66)" gradientUnits="userSpaceOnUse">
      <stop offset="0" stop-color="#421b87"/>
      <stop offset="1" stop-color="#0f1639"/>
    </radialGradient>
    <clipPath id="clippath">
      <rect class="cls-2" x="420" y="-420" width="1080" height="1920" transform="translate(1500 -420) rotate(90)"/>
    </clipPath>
  </defs>
  <g class="cls-18">
    <g id="Layer_2" data-name="Layer 2">
      <g id="TEXTS">
        <g>
          <rect class="cls-3" x="420" y="-420" width="1080" height="1920" transform="translate(1500 -420) rotate(90)"/>
          <g>
            <g class="cls-1">
              <g class="cls-13">
                <path class="cls-7" d="m284.24,193.79l-19.44,19.44,19.78,19.78-18.54,18.54-19.78-19.78-19.44,19.44-17.64-17.64,19.44-19.44-19.89-19.89,18.54-18.54,19.89,19.89,19.44-19.44,17.64,17.64Z"/>
              </g>
              <path class="cls-5" d="m0,411.93c-37.98,0-68.89,30.9-68.89,68.89v1h4.2v-1C-64.69,445.15-35.67,416.13,0,416.13s64.69,29.02,64.69,64.69S35.67,545.51,0,545.51H-1v4.2H0c37.98,0,68.89-30.9,68.89-68.89S37.98,411.93,0,411.93Zm1,135.77v-.2c36.31-.54,65.69-30.24,65.69-66.68S36.77,414.13,0,414.13s-66.14,29.38-66.68,65.69h-.2C-66.34,443.4-36.55,413.93,0,413.93s66.89,30.01,66.89,66.89-29.46,66.34-65.89,66.88Z"/>
              <g>
                <rect class="cls-7" x="1912.31" y="438.08" width="50.56" height="2.51" transform="translate(256.85 1498.76) rotate(-45)"/>
                <rect class="cls-7" x="1881.14" y="438.08" width="50.56" height="2.51" transform="translate(247.72 1476.72) rotate(-45)"/>
                <rect class="cls-7" x="1849.98" y="438.08" width="50.56" height="2.51" transform="translate(238.59 1454.68) rotate(-45)"/>
                <rect class="cls-7" x="1818.81" y="438.08" width="50.56" height="2.51" transform="translate(229.47 1432.65) rotate(-45)"/>
                <rect class="cls-7" x="1787.64" y="438.08" width="50.56" height="2.51" transform="translate(220.34 1410.61) rotate(-45)"/>
              </g>
              <g>
                <circle class="cls-7" cx="1753.77" cy="333.37" r="12.75"/>
                <g class="cls-13">
                  <path class="cls-8" d="m1735.55,315.4c-1.06,0-2.13-.39-2.97-1.17-76.65-71.93-120.61-173.44-120.61-278.5,0-210.55,171.3-381.85,381.84-381.85,42.71,0,84.64,7,124.63,20.8,2.27.78,3.46,3.25,2.68,5.51-.78,2.26-3.24,3.46-5.51,2.68-39.08-13.49-80.07-20.33-121.81-20.33-205.77,0-373.17,167.41-373.17,373.17,0,104.19,41.86,200.85,117.87,272.18,1.75,1.64,1.83,4.38.19,6.13-.85.91-2.01,1.37-3.16,1.37Z"/>
                </g>
              </g>
              <g>
                <g class="cls-13">
                  <path class="cls-8" d="m383.2,496.29c5.77-4.05,13.72-2.65,17.76,3.11,4.05,5.77,2.65,13.72-3.11,17.76s-13.72,2.65-17.76-3.11c-4.05-5.77-2.65-13.72,3.11-17.76Z"/>
                </g>
                <g class="cls-13">
                  <path class="cls-7" d="m386.27,531.98c.61.87.9,1.97.74,3.1-14.85,104.06-72.7,198.35-158.7,258.7-172.36,120.93-410.96,79.1-531.9-93.25-24.53-34.96-42.88-73.31-54.56-113.97-.66-2.3.67-4.7,2.97-5.36,2.3-.66,4.69.66,5.36,2.97,11.41,39.74,29.35,77.22,53.32,111.39,118.19,168.44,351.38,209.32,519.82,91.14,85.29-59.84,140.37-149.63,155.1-252.82.34-2.37,2.53-4.02,4.91-3.68,1.23.18,2.27.86,2.94,1.8Z"/>
                </g>
              </g>
              <g>
                <rect class="cls-4" x="1191.57" y="982.69" width="205.37" height="27.54" rx="10.75" ry="10.75" transform="translate(2588.5 1992.92) rotate(180)"/>
                <rect class="cls-6" x="1438.07" y="982.69" width="57.91" height="27.54" rx="8.66" ry="8.66" transform="translate(2934.05 1992.92) rotate(180)"/>
              </g>
              <g>
                <rect class="cls-4" x="-40.73" y="292.2" width="205.37" height="27.54" rx="10.75" ry="10.75" transform="translate(123.92 611.93) rotate(180)"/>
                <rect class="cls-6" x="205.78" y="292.2" width="57.91" height="27.54" rx="8.66" ry="8.66" transform="translate(469.46 611.93) rotate(180)"/>
              </g>
              <g class="cls-13">
                <g>
                  <polygon class="cls-8" points="-34.09 200.16 -63.72 187.17 -93.34 200.16 -123.4 186.98 -122.53 185 -93.34 197.8 -63.72 184.81 -34.09 197.8 -4.47 184.81 25.16 197.8 54.79 184.81 84.42 197.8 114.05 184.81 143.69 197.8 172.89 185 173.76 186.98 143.69 200.16 114.05 187.17 84.42 200.16 54.79 187.17 25.16 200.16 -4.47 187.17 -34.09 200.16"/>
                  <polygon class="cls-8" points="-34.09 246.91 -63.72 233.93 -93.34 246.91 -123.4 233.74 -122.53 231.75 -93.34 244.55 -63.72 231.56 -34.09 244.55 -4.47 231.56 25.16 244.55 54.79 231.56 84.42 244.55 114.05 231.56 143.69 244.55 172.89 231.75 173.76 233.74 143.69 246.91 114.05 233.93 84.42 246.91 54.79 233.93 25.16 246.91 -4.47 233.93 -34.09 246.91"/>
                </g>
              </g>
              <rect class="cls-2" x="420" y="-420" width="1080" height="1920" transform="translate(1500 -420) rotate(90)"/>
              <rect class="cls-2" x="420" y="-420" width="1080" height="1920" transform="translate(1500 -420) rotate(90)"/>
              <path class="cls-5" d="m1832.99,190.94c4.62,30.63,33.31,51.78,63.93,47.16l.81-.12-.51-3.39-.81.12c-28.76,4.34-55.69-15.52-60.03-44.28-4.34-28.76,15.52-55.69,44.28-60.03,28.76-4.34,55.69,15.52,60.03,44.28l.12.81,3.39-.51-.12-.81c-4.62-30.63-33.3-51.78-63.93-47.16-30.63,4.62-51.78,33.3-47.16,63.93Zm109.35-17.34l-.16.02c-4.85-29.21-32.38-49.28-61.76-44.85-29.65,4.48-50.13,32.24-45.65,61.89,4.44,29.38,31.74,49.76,61.08,45.77l.02.16c-29.43,4-56.82-16.43-61.27-45.9-4.49-29.74,16.05-57.59,45.79-62.08,29.47-4.45,57.08,15.68,61.95,44.98Z"/>
              <g>
                <g class="cls-13">
                  <path class="cls-8" d="m1916.41,618.33c-86.6,0-157.05,70.45-157.05,157.05s70.45,157.05,157.05,157.05,157.05-70.45,157.05-157.05-70.45-157.05-157.05-157.05Zm0,312.17c-85.53,0-155.12-69.59-155.12-155.12s69.59-155.12,155.12-155.12,155.12,69.59,155.12,155.12-69.59,155.12-155.12,155.12Z"/>
                  <path class="cls-8" d="m1916.41,638.38c-75.54,0-137.01,61.46-137.01,137.01s61.46,137,137.01,137,137-61.46,137-137-61.46-137.01-137-137.01Zm0,272.08c-74.48,0-135.07-60.59-135.07-135.07s60.59-135.07,135.07-135.07,135.07,60.59,135.07,135.07-60.59,135.07-135.07,135.07Z"/>
                  <path class="cls-8" d="m1916.41,658.43c-64.49,0-116.96,52.47-116.96,116.96s52.47,116.96,116.96,116.96,116.96-52.47,116.96-116.96-52.47-116.96-116.96-116.96Zm0,231.98c-63.42,0-115.02-51.6-115.02-115.02s51.6-115.02,115.02-115.02,115.02,51.6,115.02,115.02-51.6,115.02-115.02,115.02Z"/>
                  <path class="cls-8" d="m1916.41,679.94c-52.63,0-95.45,42.82-95.45,95.45s42.82,95.45,95.45,95.45,95.45-42.82,95.45-95.45-42.82-95.45-95.45-95.45Zm0,188.96c-51.56,0-93.51-41.95-93.51-93.51s41.95-93.51,93.51-93.51,93.51,41.95,93.51,93.51-41.95,93.51-93.51,93.51Z"/>
                  <path class="cls-8" d="m1916.41,699.65c-41.76,0-75.74,33.98-75.74,75.74s33.98,75.74,75.74,75.74,75.74-33.98,75.74-75.74-33.98-75.74-75.74-75.74Zm0,149.55c-40.7,0-73.81-33.11-73.81-73.81s33.11-73.81,73.81-73.81,73.81,33.11,73.81,73.81-33.11,73.81-73.81,73.81Z"/>
                </g>
                <circle class="cls-4" cx="1778.93" cy="681.87" r="40.43"/>
              </g>
            </g>
            <g>
              <text class="cls-14" transform="translate(628.07 518.37)"><tspan x="0" y="0">Light</tspan></text>
              <text class="cls-15" transform="translate(770.19 641.73)"><tspan class="cls-12" x="0" y="0">FE</tspan><tspan class="cls-19" x="98.98" y="0">S</tspan><tspan class="cls-12" x="146.99" y="0">T</tspan><tspan class="cls-9" x="194.85" y="0">I</tspan><tspan class="cls-17" x="220.6" y="0">V</tspan><tspan class="cls-12" x="275.29" y="0">AL</tspan></text>
              <text class="cls-10" transform="translate(697.22 283.3)"><tspan class="cls-16" x="0" y="0">C</tspan><tspan class="cls-11" x="55.48" y="0">openhagen</tspan></text>
            </g>
          </g>
        </g>
      </g>
    </g>
  </g>
</svg>