<?xml version="1.0" encoding="UTF-8"?>
<svg id="Layer_2" data-name="Layer 2" xmlns="http://www.w3.org/2000/svg" xmlns:xlink="http://www.w3.org/1999/xlink" viewBox="0 0 1920 1080">
  <defs>
    <style>
      .cls-1 {
        clip-path: url(#clippath);
      }

      .cls-2 {
        fill: none;
      }

      .cls-2, .cls-3, .cls-4, .cls-5, .cls-6, .cls-7 {
        stroke-width: 0px;
      }

      .cls-3 {
        fill: url(#radial-gradient);
      }

      .cls-8 {
        clip-path: url(#clippath-1);
      }

      .cls-9 {
        clip-path: url(#clippath-4);
      }

      .cls-10 {
        clip-path: url(#clippath-3);
      }

      .cls-11 {
        clip-path: url(#clippath-2);
      }

      .cls-12 {
        clip-path: url(#clippath-7);
      }

      .cls-13 {
        clip-path: url(#clippath-8);
      }

      .cls-14 {
        clip-path: url(#clippath-6);
      }

      .cls-15 {
        clip-path: url(#clippath-5);
      }

      .cls-16, .cls-17, .cls-18, .cls-19 {
        font-family: Lato-Bold, Lato;
        font-weight: 700;
      }

      .cls-16, .cls-17, .cls-18, .cls-19, .cls-20 {
        isolation: isolate;
      }

      .cls-16, .cls-18 {
        font-size: 260.06px;
      }

      .cls-16, .cls-18, .cls-6 {
        fill: #feffff;
      }

      .cls-17 {
        letter-spacing: 0em;
      }

      .cls-17, .cls-19 {
        font-size: 95.82px;
      }

      .cls-17, .cls-19, .cls-7 {
        fill: #00d0fd;
      }

      .cls-18 {
        letter-spacing: 0em;
      }

      .cls-4 {
        fill: #606060;
      }

      .cls-5 {
        fill: #df4ac9;
      }
    </style>
    <radialGradient id="radial-gradient" cx="112.75" cy="-1366.78" fx="112.75" fy="-1366.78" r="178.81" gradientTransform="translate(11192.81 125.07) rotate(90) scale(3.68 -7.49)" gradientUnits="userSpaceOnUse">
      <stop offset="0" stop-color="#1b0e49"/>
      <stop offset="1" stop-color="#010009"/>
    </radialGradient>
    <clipPath id="clippath">
      <rect class="cls-2" width="1920" height="1080"/>
    </clipPath>
    <clipPath id="clippath-1">
      <rect class="cls-2" x="630.39" y="220.04" width="606.94" height="514.83"/>
    </clipPath>
    <clipPath id="clippath-2">
      <rect class="cls-2" x="646.16" y="308.68" width="606.94" height="298.15"/>
    </clipPath>
    <clipPath id="clippath-3">
      <rect class="cls-2" x="646.16" y="308.68" width="606.94" height="298.15"/>
    </clipPath>
    <clipPath id="clippath-4">
      <rect class="cls-2" x="666.09" y="220.04" width="535.53" height="109.86"/>
    </clipPath>
    <clipPath id="clippath-5">
      <rect class="cls-2" x="666.09" y="220.04" width="63.38" height="109.86"/>
    </clipPath>
    <clipPath id="clippath-6">
      <rect class="cls-2" x="721.57" y="220.04" width="480.05" height="109.86"/>
    </clipPath>
    <clipPath id="clippath-7">
      <rect class="cls-2" x="707.37" y="589.3" width="452.97" height="145.57"/>
    </clipPath>
    <clipPath id="clippath-8">
      <rect class="cls-2" x="707.37" y="589.3" width="452.97" height="145.57"/>
    </clipPath>
  </defs>
  <g id="Layer_1-2" data-name="Layer 1">
    <g>
      <rect class="cls-3" width="1920" height="1080"/>
      <g class="cls-1">
        <g>
          <path class="cls-5" d="m284.24,193.79l-19.44,19.44,19.78,19.78-18.54,18.54-19.78-19.78-19.44,19.44-17.64-17.64,19.44-19.44-19.89-19.89,18.54-18.54,19.89,19.89,19.44-19.44,17.64,17.64h0Z"/>
          <path class="cls-4" d="m0,411.93c-37.98,0-68.89,30.9-68.89,68.89v1h4.2v-1c0-35.67,29.02-64.69,64.69-64.69s64.69,29.02,64.69,64.69-29.02,64.69-64.69,64.69h-1v4.2H0c37.98,0,68.89-30.9,68.89-68.89S37.98,411.93,0,411.93Zm1,135.77v-.2c36.31-.54,65.69-30.24,65.69-66.68S36.77,414.13,0,414.13s-66.14,29.38-66.68,65.69h-.2c.54-36.42,30.33-65.89,66.88-65.89s66.89,30.01,66.89,66.89-29.46,66.34-65.89,66.88Z"/>
          <g>
            <rect class="cls-5" x="1912.31" y="438.08" width="50.56" height="2.51" transform="translate(256.85 1498.76) rotate(-45)"/>
            <rect class="cls-5" x="1881.14" y="438.08" width="50.56" height="2.51" transform="translate(247.72 1476.72) rotate(-45)"/>
            <rect class="cls-5" x="1849.98" y="438.07" width="50.56" height="2.51" transform="translate(238.6 1454.68) rotate(-45)"/>
            <rect class="cls-5" x="1818.82" y="438.08" width="50.56" height="2.51" transform="translate(229.46 1432.65) rotate(-45)"/>
            <rect class="cls-5" x="1787.64" y="438.08" width="50.56" height="2.51" transform="translate(220.33 1410.61) rotate(-45)"/>
          </g>
          <g>
            <circle class="cls-5" cx="1753.77" cy="333.37" r="12.75"/>
            <path class="cls-7" d="m1735.55,315.4c-1.06,0-2.13-.39-2.97-1.17-76.65-71.93-120.61-173.44-120.61-278.5,0-210.55,171.3-381.85,381.84-381.85,42.71,0,84.64,7,124.63,20.8,2.27.78,3.46,3.25,2.68,5.51s-3.24,3.46-5.51,2.68c-39.08-13.49-80.07-20.33-121.81-20.33-205.77,0-373.17,167.41-373.17,373.17,0,104.19,41.86,200.85,117.87,272.18,1.75,1.64,1.83,4.38.19,6.13-.85.91-2.01,1.37-3.16,1.37h.02Z"/>
          </g>
          <g>
            <path class="cls-7" d="m383.2,496.29c5.77-4.05,13.72-2.65,17.76,3.11,4.05,5.77,2.65,13.72-3.11,17.76s-13.72,2.65-17.76-3.11c-4.05-5.77-2.65-13.72,3.11-17.76h0Z"/>
            <path class="cls-5" d="m386.27,531.98c.61.87.9,1.97.74,3.1-14.85,104.06-72.7,198.35-158.7,258.7-172.36,120.93-410.96,79.1-531.9-93.25-24.53-34.96-42.88-73.31-54.56-113.97-.66-2.3.67-4.7,2.97-5.36s4.69.66,5.36,2.97c11.41,39.74,29.35,77.22,53.32,111.39,118.19,168.44,351.38,209.32,519.82,91.14,85.29-59.84,140.37-149.63,155.1-252.82.34-2.37,2.53-4.02,4.91-3.68,1.23.18,2.27.86,2.94,1.8v-.02Z"/>
          </g>
          <g>
            <rect class="cls-5" x="1191.56" y="982.69" width="205.37" height="27.54" rx="10.75" ry="10.75"/>
            <rect class="cls-7" x="1438.07" y="982.69" width="57.91" height="27.54" rx="8.66" ry="8.66"/>
          </g>
          <g>
            <rect class="cls-5" x="-40.72" y="292.19" width="205.37" height="27.54" rx="10.75" ry="10.75"/>
            <rect class="cls-7" x="205.77" y="292.19" width="57.91" height="27.54" rx="8.66" ry="8.66"/>
          </g>
          <g>
            <polygon class="cls-7" points="-34.09 200.16 -63.72 187.17 -93.34 200.16 -123.4 186.98 -122.53 185 -93.34 197.8 -63.72 184.81 -34.09 197.8 -4.47 184.81 25.16 197.8 54.79 184.81 84.42 197.8 114.05 184.81 143.69 197.8 172.89 185 173.76 186.98 143.69 200.16 114.05 187.17 84.42 200.16 54.79 187.17 25.16 200.16 -4.47 187.17 -34.09 200.16"/>
            <polygon class="cls-7" points="-34.09 246.91 -63.72 233.93 -93.34 246.91 -123.4 233.74 -122.53 231.75 -93.34 244.55 -63.72 231.56 -34.09 244.55 -4.47 231.56 25.16 244.55 54.79 231.56 84.42 244.55 114.05 231.56 143.69 244.55 172.89 231.75 173.76 233.74 143.69 246.91 114.05 233.93 84.42 246.91 54.79 233.93 25.16 246.91 -4.47 233.93 -34.09 246.91"/>
          </g>
          <rect class="cls-2" width="1920" height="1080"/>
          <rect class="cls-2" width="1920" height="1080"/>
          <path class="cls-4" d="m1832.99,190.94c4.62,30.63,33.31,51.78,63.93,47.16l.81-.12-.51-3.39-.81.12c-28.76,4.34-55.69-15.52-60.03-44.28-4.34-28.76,15.52-55.69,44.28-60.03s55.69,15.52,60.03,44.28l.12.81,3.39-.51-.12-.81c-4.62-30.63-33.3-51.78-63.93-47.16s-51.78,33.3-47.16,63.93Zm109.35-17.34l-.16.02c-4.85-29.21-32.38-49.28-61.76-44.85-29.65,4.48-50.13,32.24-45.65,61.89,4.44,29.38,31.74,49.76,61.08,45.77l.02.16c-29.43,4-56.82-16.43-61.27-45.9-4.49-29.74,16.05-57.59,45.79-62.08,29.47-4.45,57.08,15.68,61.95,44.98h0Z"/>
          <g>
            <g>
              <path class="cls-7" d="m1916.41,618.33c-86.6,0-157.05,70.45-157.05,157.05s70.45,157.05,157.05,157.05,157.05-70.45,157.05-157.05-70.45-157.05-157.05-157.05h0Zm0,312.17c-85.53,0-155.12-69.59-155.12-155.12s69.59-155.12,155.12-155.12,155.12,69.59,155.12,155.12-69.59,155.12-155.12,155.12Z"/>
              <path class="cls-7" d="m1916.41,638.38c-75.54,0-137.01,61.46-137.01,137.01s61.46,137,137.01,137,137-61.46,137-137-61.46-137.01-137-137.01h0Zm0,272.08c-74.48,0-135.07-60.59-135.07-135.07s60.59-135.07,135.07-135.07,135.07,60.59,135.07,135.07-60.59,135.07-135.07,135.07h0Z"/>
              <path class="cls-7" d="m1916.41,658.43c-64.49,0-116.96,52.47-116.96,116.96s52.47,116.96,116.96,116.96,116.96-52.47,116.96-116.96-52.47-116.96-116.96-116.96Zm0,231.98c-63.42,0-115.02-51.6-115.02-115.02s51.6-115.02,115.02-115.02,115.02,51.6,115.02,115.02-51.6,115.02-115.02,115.02Z"/>
              <path class="cls-7" d="m1916.41,679.94c-52.63,0-95.45,42.82-95.45,95.45s42.82,95.45,95.45,95.45,95.45-42.82,95.45-95.45-42.82-95.45-95.45-95.45Zm0,188.96c-51.56,0-93.51-41.95-93.51-93.51s41.95-93.51,93.51-93.51,93.51,41.95,93.51,93.51-41.95,93.51-93.51,93.51Z"/>
              <path class="cls-7" d="m1916.41,699.65c-41.76,0-75.74,33.98-75.74,75.74s33.98,75.74,75.74,75.74,75.74-33.98,75.74-75.74-33.98-75.74-75.74-75.74Zm0,149.55c-40.7,0-73.81-33.11-73.81-73.81s33.11-73.81,73.81-73.81,73.81,33.11,73.81,73.81-33.11,73.81-73.81,73.81h0Z"/>
            </g>
            <circle class="cls-5" cx="1778.93" cy="681.87" r="40.43"/>
          </g>
        </g>
      </g>
      <g class="cls-8">
        <g id="Group_22" data-name="Group 22">
          <g id="Group_6" data-name="Group 6">
            <g id="Group_5" data-name="Group 5">
              <g class="cls-11">
                <g id="Group_4" data-name="Group 4">
                  <g id="Group_3" data-name="Group 3">
                    <g id="Group_2" data-name="Group 2">
                      <g class="cls-10">
                        <g id="Group_1" data-name="Group 1">
                          <g id="Light" class="cls-20">
                            <text class="cls-16" transform="translate(646.16 532.72)"><tspan x="0" y="0">Lig</tspan></text>
                            <text class="cls-18" transform="translate(984.62 532.72)"><tspan x="0" y="0">h</tspan></text>
                            <text class="cls-16" transform="translate(1129.47 532.72)"><tspan x="0" y="0">t</tspan></text>
                          </g>
                        </g>
                      </g>
                    </g>
                  </g>
                </g>
              </g>
            </g>
          </g>
          <g id="Group_15" data-name="Group 15">
            <g id="Group_14" data-name="Group 14">
              <g class="cls-9">
                <g id="Group_13" data-name="Group 13">
                  <g id="Group_9" data-name="Group 9">
                    <g id="Group_8" data-name="Group 8">
                      <g class="cls-15">
                        <g id="Group_7" data-name="Group 7">
                          <g id="C" class="cls-20">
                            <text class="cls-19" transform="translate(666.09 302.59)"><tspan x="0" y="0">C</tspan></text>
                          </g>
                        </g>
                      </g>
                    </g>
                  </g>
                  <g id="Group_12" data-name="Group 12">
                    <g id="Group_11" data-name="Group 11">
                      <g class="cls-14">
                        <g id="Group_10" data-name="Group 10">
                          <g id="openhagen" class="cls-20">
                            <text class="cls-17" transform="translate(721.57 302.59)"><tspan x="0" y="0">op</tspan></text>
                            <text class="cls-17" transform="translate(832.58 302.59)"><tspan x="0" y="0">enh</tspan></text>
                            <text class="cls-17" transform="translate(994.41 302.59)"><tspan x="0" y="0">a</tspan></text>
                            <text class="cls-19" transform="translate(1043.81 302.59)"><tspan x="0" y="0">g</tspan></text>
                            <text class="cls-17" transform="translate(1094.4 302.59)"><tspan x="0" y="0">e</tspan></text>
                            <text class="cls-19" transform="translate(1146.34 302.59)"><tspan x="0" y="0">n</tspan></text>
                          </g>
                        </g>
                      </g>
                    </g>
                  </g>
                </g>
              </g>
            </g>
          </g>
          <g id="Group_21" data-name="Group 21">
            <g id="Group_20" data-name="Group 20">
              <g class="cls-12">
                <g id="Group_19" data-name="Group 19">
                  <g id="Group_18" data-name="Group 18">
                    <g id="Group_17" data-name="Group 17">
                      <g class="cls-13">
                        <g id="Group_16" data-name="Group 16">
                          <path id="Path_1" data-name="Path 1" class="cls-6" d="m736,620.47v27.17h36.01v13.65h-36.01v37.39h-17.94v-91.8h60.58v13.59h-42.65Zm61.31,47.61c.18,2.97.81,5.89,1.86,8.67.86,2.25,2.17,4.31,3.85,6.03,1.6,1.59,3.55,2.81,5.68,3.56,2.34.81,4.8,1.2,7.27,1.17,2.32.05,4.64-.25,6.88-.89,1.73-.52,3.42-1.17,5.05-1.97,1.44-.72,2.7-1.37,3.79-1.97.96-.56,2.05-.86,3.16-.89,1.2-.08,2.36.47,3.05,1.46l4.71,5.71c-1.77,2-3.83,3.72-6.11,5.11-2.23,1.36-4.6,2.47-7.07,3.3-2.44.82-4.95,1.41-7.51,1.75-2.46.33-4.93.5-7.41.51-4.51.04-8.98-.72-13.22-2.25-3.98-1.44-7.6-3.71-10.63-6.67-3.11-3.1-5.54-6.82-7.11-10.92-1.81-4.82-2.69-9.93-2.59-15.08-.03-4.28.74-8.54,2.26-12.54,1.44-3.81,3.64-7.29,6.48-10.22,2.93-2.98,6.43-5.32,10.3-6.89,4.36-1.75,9.02-2.61,13.72-2.54,4.05-.04,8.07.62,11.89,1.97,3.49,1.23,6.69,3.19,9.37,5.74,2.68,2.62,4.77,5.78,6.14,9.27,1.54,4,2.3,8.25,2.23,12.54,0,2.37-.27,3.97-.8,4.79-.53.82-1.55,1.24-3.05,1.24h-42.18Zm31.29-9.46c.01-1.95-.29-3.89-.9-5.74-.57-1.74-1.48-3.35-2.69-4.73-1.26-1.4-2.81-2.49-4.55-3.21-2.04-.82-4.22-1.22-6.41-1.17-4.74,0-8.47,1.29-11.19,3.87-2.72,2.58-4.46,6.24-5.21,10.98h30.96Zm68.62-12.38c-.35.58-.82,1.07-1.39,1.43-.57.3-1.21.44-1.86.41-.89-.02-1.76-.24-2.56-.64-.91-.42-1.96-.9-3.15-1.43-1.33-.57-2.69-1.05-4.08-1.43-1.77-.45-3.59-.67-5.41-.64-2.68-.15-5.34.54-7.61,1.97-1.74,1.13-2.78,3.07-2.76,5.14-.03,1.32.49,2.6,1.43,3.52,1.1,1.05,2.39,1.9,3.79,2.51,1.73.78,3.52,1.43,5.35,1.94,1.99.57,4.02,1.19,6.08,1.87,2.06.68,4.08,1.45,6.08,2.32,1.93.83,3.74,1.94,5.35,3.3,1.57,1.33,2.86,2.96,3.79,4.79,1,2.1,1.49,4.4,1.43,6.73.03,2.98-.57,5.93-1.76,8.67-1.18,2.66-2.97,5.01-5.21,6.86-2.52,2.04-5.42,3.58-8.54,4.51-6.04,1.73-12.4,2.08-18.6,1.02-2.19-.39-4.34-.95-6.44-1.68-1.97-.68-3.89-1.53-5.71-2.54-1.64-.9-3.19-1.96-4.62-3.17l3.79-5.97c.44-.68,1.03-1.24,1.73-1.65.78-.41,1.65-.61,2.52-.57,1.02,0,2.02.29,2.89.83.91.55,1.96,1.14,3.15,1.78,1.36.7,2.77,1.3,4.22,1.78,1.99.6,4.07.88,6.14.83,1.7.03,3.39-.19,5.02-.67,1.25-.37,2.42-.96,3.45-1.75.86-.66,1.54-1.52,1.99-2.51.42-.93.63-1.93.63-2.95.05-1.39-.46-2.74-1.43-3.75-1.1-1.07-2.38-1.93-3.79-2.54-1.74-.78-3.54-1.43-5.38-1.94-2.02-.57-4.08-1.2-6.18-1.87-2.1-.68-4.17-1.47-6.18-2.38-1.96-.87-3.77-2.04-5.38-3.46-1.6-1.44-2.89-3.19-3.79-5.14-1.01-2.32-1.5-4.83-1.43-7.36-.02-5.39,2.38-10.51,6.54-13.94,2.39-1.93,5.11-3.39,8.04-4.32,3.6-1.14,7.35-1.68,11.13-1.62,4.37-.06,8.72.7,12.82,2.22,3.56,1.3,6.83,3.29,9.63,5.84l-3.72,5.65Zm85.49,52.44h-16.41v-53.39h-31.62v35.3c-.1,1.73.45,3.43,1.56,4.76,1.11,1.17,2.67,1.8,4.29,1.71.87.02,1.73-.1,2.56-.35.61-.2,1.21-.45,1.79-.73.51-.25.96-.5,1.36-.73.36-.22.78-.34,1.2-.35.43-.02.85.1,1.2.35.38.3.71.66,1,1.05l4.92,7.62c-2.46,1.94-5.25,3.4-8.25,4.32-3.12.98-6.37,1.47-9.63,1.46-5.93,0-10.48-1.6-13.65-4.79-3.17-3.2-4.75-7.61-4.75-13.24v-36.38h-6.98c-.83.02-1.64-.27-2.26-.83-.66-.65-1-1.55-.93-2.48v-6.22l10.96-1.78,3.45-17.71c.18-.78.63-1.48,1.26-1.97.7-.49,1.54-.74,2.39-.7h8.5v20.51h48.03v64.57Zm2.86-84.37c0,1.33-.29,2.64-.86,3.84-.56,1.18-1.34,2.25-2.29,3.14-2.06,1.88-4.75,2.93-7.54,2.92-1.37.01-2.72-.26-3.98-.79-1.2-.51-2.31-1.23-3.26-2.13-.94-.9-1.69-1.96-2.23-3.14-.55-1.2-.84-2.52-.83-3.84-.01-1.34.27-2.68.83-3.9,1.09-2.4,3.05-4.31,5.48-5.33,1.26-.53,2.62-.8,3.98-.79,1.42,0,2.83.26,4.15.79,1.26.5,2.41,1.23,3.39,2.16.95.91,1.73,1.98,2.29,3.17.58,1.22.87,2.55.86,3.9h0Zm75.27,19.24l-27.04,65.14h-14.88l-27.04-65.14h13.56c1.09-.04,2.17.25,3.09.83.77.49,1.35,1.23,1.63,2.1l13.15,34.79c.71,2.03,1.33,4.02,1.86,5.97.53,1.95,1,3.89,1.4,5.84.44-1.95.93-3.89,1.46-5.84.53-1.95,1.17-3.94,1.93-5.97l13.42-34.79c.32-.86.9-1.59,1.66-2.1.84-.56,1.84-.85,2.86-.83h12.95Zm5.45,9.08c7.84-6.86,17.27-10.29,28.3-10.29,3.65-.06,7.28.58,10.7,1.87,3,1.15,5.71,2.93,7.97,5.21,2.2,2.27,3.89,4.99,4.95,7.97,1.16,3.26,1.73,6.7,1.69,10.16v41.14h-7.44c-1.23.06-2.46-.16-3.59-.67-.98-.62-1.69-1.58-1.99-2.7l-1.46-4.7c-1.61,1.39-3.3,2.69-5.05,3.9-1.61,1.11-3.32,2.05-5.11,2.83-1.83.78-3.73,1.36-5.68,1.75-2.2.42-4.44.62-6.68.6-2.7.03-5.38-.35-7.97-1.11-2.31-.67-4.45-1.81-6.31-3.33-1.78-1.5-3.19-3.39-4.12-5.52-1.02-2.43-1.52-5.05-1.46-7.68,0-1.68.3-3.34.86-4.92.63-1.72,1.59-3.31,2.82-4.67,1.49-1.63,3.2-3.04,5.08-4.19,2.41-1.46,4.98-2.61,7.67-3.43,3.47-1.07,7.01-1.87,10.6-2.38,4.58-.66,9.19-1.03,13.82-1.11v-3.81c0-4.36-.97-7.59-2.92-9.68-1.95-2.1-4.76-3.14-8.44-3.14-2.24-.06-4.47.24-6.61.89-1.6.53-3.14,1.2-4.62,2-1.33.74-2.53,1.41-3.62,2-1.11.6-2.36.91-3.62.89-1.04.03-2.06-.27-2.92-.86-.76-.54-1.42-1.22-1.93-2l-2.93-5Zm37.6,28.25c-4.01.14-8,.53-11.96,1.17-2.67.41-5.28,1.15-7.77,2.19-1.64.65-3.08,1.73-4.18,3.11-.82,1.12-1.26,2.48-1.26,3.87,0,2.75.85,4.72,2.56,5.9,1.99,1.27,4.32,1.89,6.68,1.78,3.01.07,5.99-.52,8.74-1.75,2.69-1.33,5.13-3.13,7.21-5.3v-10.98Zm47.96-66.54v94.34h-16.41v-94.34h16.41Z"/>
                        </g>
                      </g>
                    </g>
                  </g>
                </g>
              </g>
            </g>
          </g>
        </g>
      </g>
    </g>
  </g>
</svg>