<?xml version="1.0" encoding="UTF-8"?>
<svg id="Layer_2" data-name="Layer 2" xmlns="http://www.w3.org/2000/svg" viewBox="0 0 974.85 1033.5">
  <defs>
    <style>
      .cls-1 {
        stroke-linecap: round;
        stroke-linejoin: round;
      }

      .cls-1, .cls-2 {
        fill: none;
        stroke: #f0f;
        stroke-width: 3.5px;
      }

      .cls-2 {
        stroke-miterlimit: 10;
      }
    </style>
  </defs>
  <g id="Layer_1-2" data-name="Layer 1">
    <g>
      <path class="cls-1" d="m298.18,1031.52s33.18,3.32,48.67-15.49l263.21,7.86,98.48-68.69,2.21-44.24,2.21-34.29-2.21-33.18-5.53-23.23h22.49l103.6-28.76,7.74,9.95,42.03-13.27-16.59-21.02,46.46-15.49,5.53,5.53,43.14-9.95v-8.89l-6.64-3.27-25.44-28.76-2.21-15.49-27.65-67.47-1.11-29.86-12.17,5.53-4.42-13.27,14.38-2.21-14.38-26.55v-14.38l-18.8-23.23-34.29-73,18.8-24.33,53.09-34.29-13.27-23.23-25.44,12.17-5.53-6.64-36.5,25.44-2.21,15.49-1.11,16.59-12.17,4.42v15.49l4.42,3.32-1.11,6.64-8.85,9.95,3.32,14.38-14.38,13.27v11.06l-12.17,6.64.14,11.06h-9.37l-18.43,12.17v9.95l-12.17,2.21s-61.94,38.71-110.61-2.21l-22.12,24.33-26.55,36.5-46.46,103.97-36.5,79.64-1.11,13.27-65.26,57.52-15.49,15.49-37.61,53.09-29.86,43.14-44.24,58.62Z"/>
      <polyline class="cls-1" points="711.95 558.21 729.56 594.62 752.79 628.91 768.27 654.35 780.44 686.42 787.08 715.18 809.18 797.65"/>
      <path class="cls-1" d="m772.7,403.26l5.53-11.06s35.46,64.6-17.67,124.11c-53.12,59.51-127.23,31.85-127.23,31.85l8.85-8.85,7.74,9.95h5.53l6.64-4.42,6.64,6.64,13.27-6.64,7.74,4.42,4.42-2.21,4.42-12.17,12.98-2.02,7.98-9.04h15.13l8.15-12.17,13.27-2.21,2.21-13.27,12.17-6.64,1.11-13.27,8.85-7.74v-7.74l-2.21-2.21,1.11-9.95,3.32-2.21v-8.85l-3.32-8.85v-5.53l2.21-5.53-8.85-14.38Z"/>
      <polyline class="cls-1" points="623.38 545.95 645.92 521.89 664.3 505.02 680.89 491.75 707.44 469.63 716.29 451.93 727.35 429.81 731.77 420.96 742.83 426.49 753.89 408.79 753.89 370.3 760.56 370.3 760.56 390.09 773.8 382.25 774.91 362.34 758.32 357.91 761.64 329.15 771.29 329.15 771.59 323.62 761.64 320.31 764.96 303.71 780.44 320.31 787.08 322.52 790.4 318.09 787.08 312.56 770.35 303.71 792.61 299.29 823.58 298.18 871.14 302.61 876.67 328.05 847.91 347.96 844.59 363.44 825.79 370.08 825.79 376.72 806.99 382.25 788.18 382.25 788.18 393.31 818.05 395.52"/>
      <path class="cls-1" d="m756.11,470.73l7.74,7.74s14.69-32.08,10.67-56.41l-13.95-1.87-4.46,8.47,7.74,4.45s2.21,22.12-7.74,37.61Z"/>
      <polygon class="cls-1" points="936.4 705.23 957.42 732.88 963.82 732.88 963.82 717.96 959.63 712.12 959.63 700.94 973.1 677.93 950.78 653.24 933.08 628.91 920.91 609 916.49 589.09 906.54 606.78 922.02 634.44 922.02 649.92 933.08 652.13 947.46 668.73 953.16 677.93 952.99 688.63 936.4 705.23"/>
      <path class="cls-1" d="m906.54,569.97h20.69l-8.53-10.74-.26-4.64,6.89-11.95,13.27,6.64,4.42-8.85-7.74,1.11-7.74-5.53,2.21-4.42h11.74l5.96-8.85,3.32-15.49,11.06-8.85-14.38-33.18h-22.12l-6.64,21.02h-6.64l-8.85-4.42-8.85,9.95-4.42-4.42,5.53-11.06,1.11-6.64-2.21-6.64v-3.32l23.23-8.85-16.59-39.82s-43.14,22.12-53.09,36.5l24.33,57.52,19.17,18.8-5.9,8.85,5.53,7.74h13.27l7.74,14.38v4.42l-5.53,10.74Z"/>
      <path class="cls-1" d="m104.62,513.87l-2.21-3.32-4.42-5.53,4.42-3.32-1.11-13.27-3.32-14.38-13.27-21.02s12.17-14.38,23.23-6.64,25.44,39.82,25.44,39.82h7.74l8.85-3.32,11.06-6.64,4.42,4.42-12.17,14.38v12.17l-5.61,6.64h-43.06l2.53,8.02h22.09l-.28,72.73-3.32,37.86v18.55l5.53,14.38,11.06,12.17,14.38,7.74,11.06,9.95,6.64,12.17,7.74,18.8,7.74,22.12,16.59,9.95,34.29,34.29,2.21,8.85,35.4,51.99,58.62-26.55,17.7,1.11,35.4,2.21,4.42,2.21-8.35,6.34v33.48h10.56l61.94-60.84-6.64-12.17h-16.59l1.11-23.23,15.49,3.32,16.59,14.38,38.71-53.09-2.21-1.11-8.85,8.85-29.86-17.7-5.53,18.8-6.64-3.32-2.21-11.06-4.42-9.95,1.11-11.06,8.85-12.17,8.85,5.53-5.53,11.06,34.29,19.91,25.44-35.4-1.11-6.64-43.14-18.8,4.42-8.85,42.03,21.02,26.55-51.99-3.32-2.21-24.33,4.42-1.11-7.74,27.65-4.42,14.38-28.76-11.06,7.74-7.74-4.42,47.56-44.24-39.82-55.3-7.74,5.53-7.74-12.17-23.23,13.27h-23.23l-.5,12.44-23.84-9.13-34.29,16.59-1.11,12.17-15.49-2.21-40.93,27.65,8.85,35.4-29.86,5.53,21.02,106.19h-49.77l21.02,34.29,19.91,21.02v21.02l-9.95,6.64v29.86"/>
      <polyline class="cls-1" points="591.3 558.12 628.91 521.89 660.98 495.07 686.52 473.39 708.54 432.02 697.06 432.02 703.01 415.43 726.24 356.81 718.5 355.7 718.5 343.53 727.35 336.9 727.35 324.58 730.67 247.3 722.92 257.26 721.82 316.99 700.8 314.77 695.27 322.52 709.65 338 725.14 323.62 727.35 321.41"/>
      <polygon class="cls-1" points="623.38 314.69 617.84 304.82 610.1 309.24 597.94 319.2 592.4 331.37 578.03 347.96 583.56 355.7 597.94 340.21 604.57 326.94 614.53 319.2 623.38 314.69"/>
      <polygon class="cls-1" points="554.8 395.52 579.13 362.34 572.39 355.7 545.95 389.99 554.8 395.52"/>
      <polygon class="cls-1" points="531.57 439.76 550.79 402.71 541.18 396.91 520.51 436.45 531.57 439.76"/>
      <polygon class="cls-1" points="516.08 470.73 526.04 471.84 529.36 446.4 518.74 444.53 516.08 470.73"/>
      <polygon class="cls-1" points="523.83 478.48 513.87 477.37 509.45 509.45 512.77 509.45 521.73 504.33 523.83 478.48"/>
      <path class="cls-1" d="m518.74,444.53l-12.61-.34,6.31-14.15-10.73-12.4-16.59-4.42-18.8-3.32s-53.09-30.97-56.41-74.11c0,0,3.32-17.7,9.95-25.44h-17.02l-13.95,7.74-27.65,5.53s-35.4,21.02-57.52,43.14c0,0-54.2,15.49-74.11,37.61,0,0-37.61,29.86-34.29,65.26l-29.86,11.06"/>
      <polyline class="cls-2" points="195.32 469.63 200.28 521.89 213.02 521.89 216.33 554.8 287.12 548.16 304.82 547.05 301.5 557.01 352.38 574.71 373.4 566.96"/>
      <polyline class="cls-1" points="84.71 453.04 99.09 435.34 99.09 422.92 91.9 413.01 93.56 389.99 73.65 355.7 69.22 336.9 54.84 315.88 57.05 295.97 73.65 302.61 115.68 314.77 161.03 313.67 188.68 307.03 188.68 321.26 213.01 305.93 247.3 305.93 253.94 314.77 274.96 293.76 288.23 263.89 300.4 237.35 311.84 237.35 321.41 261.68 328.05 274.96 344.64 298.18 361.23 319.2 364.11 323.05"/>
      <path class="cls-1" d="m572.39,355.7l-9.85-13.9-27.65-25.92,8.85-91.81-21.02,28.76-3.98-.4-3.76-12.87-6.64-32.08-9.95-25.44-19.91,13.27s-45.35,25.44-51.99,50.88c-6.64,25.44-7.74,40.93-7.74,40.93l-15.91,23.23"/>
      <polyline class="cls-1" points="617.84 304.82 625.59 300.4 632.22 312.56 689.74 286.02 690.85 307.03 695.08 312.56 695.27 322.52"/>
      <path class="cls-1" d="m700.8,314.77l3.32-18.8,5.53-24.33,3.32-13.27-12.17,9.55-1.11-13.97,12.17-4.42,13.27-14.38h-14.79l-19.5,5.53-1.11-14.38,18.8-4.42,15.49-1.11,13.27,5.53-1.11-9.95-8.85-4.42-8.85-2.21,3.32-11.06,21.02,7.74,7.19,3.55-10.51-15.71-34.29-11.06,4.42-13.27,68.58,26.55,23.23-19.91-61.94-19.91-2.21,6.64-23.23-7.74,5.53-15.49,48.67,17.7,44.24,16.59,98.44-79.64-3.32-4.42-5.53,4.42h-4.42v-8.85l7.74-6.64-22.12-16.59-25.44,1.11s-40.93,3.32-53.09,36.5l-67.47-46.46-2.21,6.64,18.8,12.17-3.32,6.64-18.8-7.74-3.32,30.97,18.8,7.74-6.64,13.27-36.5-12.17-25.44,59.73,11.06,17.7-11.06,6.97-11.06-19.13,1.11-9.95,6.64-17.7-14.38,9.66-9.95-26.25,8.85-2.21,28.76-3.32-1.11-9.95-12.17,2.21-12.17,2.21-6.64,5.53h-8.85l-5.53-35.4-29.86-1.11v-21.33l-6.64-19.59-1.11-16.59-38.71-9.95-3.32-21.02h-8.36l-.48,14.38-13.27-1.11-7.74,70.79,8.85,8.85-5.53,8.85,12.17,13.27-49.77,65.26"/>
      <path class="cls-1" d="m532.68,85.81h-50.08l-4.12,5.53-13.27,2.21-2.21-12.17-12.17-4.42-5.53,1.11-3.32,4.42h-15.49l-2.21-19.91-15.49-5.53-24.33-2.21h-17.79l-6.54,3.32s-33.18-18.8-47.56,11.06l-14.38,42.03s15.49,3.32,22.12-24.33l8.85-1.11-1.11,8.85,8.85,2.21v9.95l26.55-1.11,5.53-3.32-.76,8.97-4.11,2.09h-34.11l-7.49,1.11-2.21,13.27h-5.54l-1.1-9.95h-17.7v21.91l14.38,2.42-1.11,25.44-22.12,23.23,2.21,22.12v7.74l22.51,16.59"/>
      <path class="cls-1" d="m295.97,117.89l-25.44,23.23-14.38-1.11-14.38,7.74-2.21,18.8-28.76,5.53-7.74,13.27h-20.72l-14.68,13.27-1.11-21.02,14.38-15.49,2.21-8.85,26.33-16.45,16.81,4.29,12.17-4.42-2.21-16.59h-16.59l-21.02-23.23-11.06,4.42-9.95-11.06-28.76-5.53-29.86,21.02v18.24l-24.33,12.73-34.29-1.11-7.74,11.06-25.44,8.85-3.32,23.23L1.75,195.32l3.32,44.24s11.06,37.61,50.88,37.61l1.11,18.8"/>
      <path class="cls-1" d="m230.45,147.31c2.05-1,7.12-2.87,6.82,3.11-.15,3.01-3.24,5.03-6.08,4.01-2.67-.97-4.91-2.74-2.27-5.92.42-.5.94-.91,1.53-1.19Z"/>
    </g>
  </g>
</svg>