<?xml version="1.0" encoding="UTF-8"?>
<svg id="Layer_2" data-name="Layer 2" xmlns="http://www.w3.org/2000/svg" xmlns:xlink="http://www.w3.org/1999/xlink" viewBox="0 0 984.8 1041.85">
  <defs>
    <style>
      .cls-1 {
        filter: url(#drop-shadow-2);
        opacity: .1;
      }

      .cls-2 {
        stroke-miterlimit: 10;
      }

      .cls-2, .cls-3 {
        fill: none;
        stroke: #f0f;
        stroke-width: 4.5px;
      }

      .cls-4 {
        filter: url(#drop-shadow-1);
      }

      .cls-3 {
        stroke-linecap: round;
        stroke-linejoin: round;
      }
    </style>
    <filter id="drop-shadow-1" filterUnits="userSpaceOnUse">
      <feOffset dx="8" dy="8"/>
      <feGaussianBlur result="blur" stdDeviation="5"/>
      <feFlood flood-color="#ef00d3" flood-opacity=".85"/>
      <feComposite in2="blur" operator="in"/>
      <feComposite in="SourceGraphic"/>
    </filter>
    <filter id="drop-shadow-2" filterUnits="userSpaceOnUse">
      <feOffset dx="8" dy="8"/>
      <feGaussianBlur result="blur-2" stdDeviation="5"/>
      <feFlood flood-color="#ef00d3" flood-opacity=".85"/>
      <feComposite in2="blur-2" operator="in"/>
      <feComposite in="SourceGraphic"/>
    </filter>
  </defs>
  <g id="Layer_1-2" data-name="Layer 1">
    <g>
      <g class="cls-4">
        <path class="cls-3" d="m298.68,1032.02s33.18,3.32,48.67-15.49l263.21,7.86,98.48-68.69,2.21-44.24,2.21-34.29-2.21-33.18-5.53-23.23h22.49l103.6-28.76,7.74,9.95,42.03-13.27-16.59-21.02,46.46-15.49,5.53,5.53,43.14-9.95v-8.89l-6.64-3.27-25.44-28.76-2.21-15.49-27.65-67.47-1.11-29.86-12.17,5.53-4.42-13.27,14.38-2.21-14.38-26.55v-14.38l-18.8-23.23-34.29-73,18.8-24.33,53.09-34.29-13.27-23.23-25.44,12.17-5.53-6.64-36.5,25.44-2.21,15.49-1.11,16.59-12.17,4.42v15.49l4.42,3.32-1.11,6.64-8.85,9.95,3.32,14.38-14.38,13.27v11.06l-12.17,6.64.14,11.06h-9.37l-18.43,12.17v9.95l-12.17,2.21s-61.94,38.71-110.61-2.21l-22.12,24.33-26.55,36.5-46.46,103.97-36.5,79.64-1.11,13.27-65.26,57.52-15.49,15.49-37.61,53.09-29.86,43.14-44.24,58.62Z"/>
        <polyline class="cls-3" points="712.45 558.71 730.06 595.12 753.29 629.41 768.77 654.85 780.94 686.92 787.58 715.68 809.68 798.15"/>
        <path class="cls-3" d="m773.2,403.76l5.53-11.06s35.46,64.6-17.67,124.11c-53.12,59.51-127.23,31.85-127.23,31.85l8.85-8.85,7.74,9.95h5.53l6.64-4.42,6.64,6.64,13.27-6.64,7.74,4.42,4.42-2.21,4.42-12.17,12.98-2.02,7.98-9.04h15.13l8.15-12.17,13.27-2.21,2.21-13.27,12.17-6.64,1.11-13.27,8.85-7.74v-7.74l-2.21-2.21,1.11-9.95,3.32-2.21v-8.85l-3.32-8.85v-5.53l2.21-5.53-8.85-14.38Z"/>
        <polyline class="cls-3" points="623.88 546.45 646.42 522.39 664.8 505.52 681.39 492.25 707.94 470.13 716.79 452.43 727.85 430.31 732.27 421.46 743.33 426.99 754.39 409.29 754.39 370.8 761.06 370.8 761.06 390.59 774.3 382.75 775.41 362.84 758.82 358.41 762.14 329.65 771.79 329.65 772.09 324.12 762.14 320.81 765.46 304.21 780.94 320.81 787.58 323.02 790.9 318.59 787.58 313.06 770.85 304.21 793.11 299.79 824.08 298.68 871.64 303.11 877.17 328.55 848.41 348.46 845.09 363.94 826.29 370.58 826.29 377.22 807.49 382.75 788.68 382.75 788.68 393.81 818.55 396.02"/>
        <path class="cls-3" d="m756.61,471.23l7.74,7.74s14.69-32.08,10.67-56.41l-13.95-1.87-4.46,8.47,7.74,4.45s2.21,22.12-7.74,37.61Z"/>
        <polygon class="cls-3" points="936.9 705.73 957.92 733.38 964.32 733.38 964.32 718.46 960.13 712.62 960.13 701.44 973.6 678.43 951.28 653.74 933.58 629.41 921.41 609.5 916.99 589.59 907.04 607.28 922.52 634.94 922.52 650.42 933.58 652.63 947.96 669.23 953.66 678.43 953.49 689.13 936.9 705.73"/>
        <path class="cls-3" d="m907.04,570.47h20.69l-8.53-10.74-.26-4.64,6.89-11.95,13.27,6.64,4.42-8.85-7.74,1.11-7.74-5.53,2.21-4.42h11.74l5.96-8.85,3.32-15.49,11.06-8.85-14.38-33.18h-22.12l-6.64,21.02h-6.64l-8.85-4.42-8.85,9.95-4.42-4.42,5.53-11.06,1.11-6.64-2.21-6.64v-3.32l23.23-8.85-16.59-39.82s-43.14,22.12-53.09,36.5l24.33,57.52,19.17,18.8-5.9,8.85,5.53,7.74h13.27l7.74,14.38v4.42l-5.53,10.74Z"/>
        <path class="cls-3" d="m105.12,514.37l-2.21-3.32-4.42-5.53,4.42-3.32-1.11-13.27-3.32-14.38-13.27-21.02s12.17-14.38,23.23-6.64,25.44,39.82,25.44,39.82h7.74l8.85-3.32,11.06-6.64,4.42,4.42-12.17,14.38v12.17l-5.61,6.64h-43.06l2.53,8.02h22.09l-.28,72.73-3.32,37.86v18.55l5.53,14.38,11.06,12.17,14.38,7.74,11.06,9.95,6.64,12.17,7.74,18.8,7.74,22.12,16.59,9.95,34.29,34.29,2.21,8.85,35.4,51.99,58.62-26.55,17.7,1.11,35.4,2.21,4.42,2.21-8.35,6.34v33.48h10.56l61.94-60.84-6.64-12.17h-16.59l1.11-23.23,15.49,3.32,16.59,14.38,38.71-53.09-2.21-1.11-8.85,8.85-29.86-17.7-5.53,18.8-6.64-3.32-2.21-11.06-4.42-9.95,1.11-11.06,8.85-12.17,8.85,5.53-5.53,11.06,34.29,19.91,25.44-35.4-1.11-6.64-43.14-18.8,4.42-8.85,42.03,21.02,26.55-51.99-3.32-2.21-24.33,4.42-1.11-7.74,27.65-4.42,14.38-28.76-11.06,7.74-7.74-4.42,47.56-44.24-39.82-55.3-7.74,5.53-7.74-12.17-23.23,13.27h-23.23l-.5,12.44-23.84-9.13-34.29,16.59-1.11,12.17-15.49-2.21-40.93,27.65,8.85,35.4-29.86,5.53,21.02,106.19h-49.77l21.02,34.29,19.91,21.02v21.02l-9.95,6.64v29.86"/>
        <polyline class="cls-3" points="591.8 558.62 629.41 522.39 661.48 495.57 687.02 473.89 709.04 432.52 697.56 432.52 703.51 415.93 726.74 357.31 719 356.2 719 344.03 727.85 337.4 727.85 325.08 731.17 247.8 723.42 257.76 722.32 317.49 701.3 315.27 695.77 323.02 710.15 338.5 725.64 324.12 727.85 321.91"/>
        <polygon class="cls-3" points="623.88 315.19 618.34 305.32 610.6 309.74 598.44 319.7 592.9 331.87 578.53 348.46 584.06 356.2 598.44 340.71 605.07 327.44 615.03 319.7 623.88 315.19"/>
        <polygon class="cls-3" points="555.3 396.02 579.63 362.84 572.89 356.2 546.45 390.49 555.3 396.02"/>
        <polygon class="cls-3" points="532.07 440.26 551.29 403.21 541.68 397.41 521.01 436.95 532.07 440.26"/>
        <polygon class="cls-3" points="516.58 471.23 526.54 472.34 529.86 446.9 519.24 445.03 516.58 471.23"/>
        <polygon class="cls-3" points="524.33 478.98 514.37 477.87 509.95 509.95 513.27 509.95 522.23 504.83 524.33 478.98"/>
        <path class="cls-3" d="m519.24,445.03l-12.61-.34,6.31-14.15-10.73-12.4-16.59-4.42-18.8-3.32s-53.09-30.97-56.41-74.11c0,0,3.32-17.7,9.95-25.44h-17.02l-13.95,7.74-27.65,5.53s-35.4,21.02-57.52,43.14c0,0-54.2,15.49-74.11,37.61,0,0-37.61,29.86-34.29,65.26l-29.86,11.06"/>
        <polyline class="cls-2" points="195.82 470.13 200.78 522.39 213.52 522.39 216.83 555.3 287.62 548.66 305.32 547.55 302 557.51 352.88 575.21 373.9 567.46"/>
        <polyline class="cls-3" points="85.21 453.54 99.59 435.84 99.59 423.42 92.4 413.51 94.06 390.49 74.15 356.2 69.72 337.4 55.34 316.38 57.55 296.47 74.15 303.11 116.18 315.27 161.53 314.17 189.18 307.53 189.18 321.76 213.51 306.43 247.8 306.43 254.44 315.27 275.46 294.26 288.73 264.39 300.9 237.85 312.34 237.85 321.91 262.18 328.55 275.46 345.14 298.68 361.73 319.7 364.61 323.55"/>
        <path class="cls-3" d="m572.89,356.2l-9.85-13.9-27.65-25.92,8.85-91.81-21.02,28.76-3.98-.4-3.76-12.87-6.64-32.08-9.95-25.44-19.91,13.27s-45.35,25.44-51.99,50.88c-6.64,25.44-7.74,40.93-7.74,40.93l-15.91,23.23"/>
        <polyline class="cls-3" points="618.34 305.32 626.09 300.9 632.72 313.06 690.24 286.52 691.35 307.53 695.58 313.06 695.77 323.02"/>
        <path class="cls-3" d="m701.3,315.27l3.32-18.8,5.53-24.33,3.32-13.27-12.17,9.55-1.11-13.97,12.17-4.42,13.27-14.38h-14.79l-19.5,5.53-1.11-14.38,18.8-4.42,15.49-1.11,13.27,5.53-1.11-9.95-8.85-4.42-8.85-2.21,3.32-11.06,21.02,7.74,7.19,3.55-10.51-15.71-34.29-11.06,4.42-13.27,68.58,26.55,23.23-19.91-61.94-19.91-2.21,6.64-23.23-7.74,5.53-15.49,48.67,17.7,44.24,16.59,98.44-79.64-3.32-4.42-5.53,4.42h-4.42v-8.85l7.74-6.64-22.12-16.59-25.44,1.11s-40.93,3.32-53.09,36.5l-67.47-46.46-2.21,6.64,18.8,12.17-3.32,6.64-18.8-7.74-3.32,30.97,18.8,7.74-6.64,13.27-36.5-12.17-25.44,59.73,11.06,17.7-11.06,6.97-11.06-19.13,1.11-9.95,6.64-17.7-14.38,9.66-9.95-26.25,8.85-2.21,28.76-3.32-1.11-9.95-12.17,2.21-12.17,2.21-6.64,5.53h-8.85l-5.53-35.4-29.86-1.11v-21.33l-6.64-19.59-1.11-16.59-38.71-9.95-3.32-21.02h-8.36l-.48,14.38-13.27-1.11-7.74,70.79,8.85,8.85-5.53,8.85,12.17,13.27-49.77,65.26"/>
        <path class="cls-3" d="m533.18,86.31h-50.08l-4.12,5.53-13.27,2.21-2.21-12.17-12.17-4.42-5.53,1.11-3.32,4.42h-15.49l-2.21-19.91-15.49-5.53-24.33-2.21h-17.79l-6.54,3.32s-33.18-18.8-47.56,11.06l-14.38,42.03s15.49,3.32,22.12-24.33l8.85-1.11-1.11,8.85,8.85,2.21v9.95l26.55-1.11,5.53-3.32-.76,8.97-4.11,2.09h-34.11l-7.49,1.11-2.21,13.27h-5.54l-1.1-9.95h-17.7v21.91l14.38,2.42-1.11,25.44-22.12,23.23,2.21,22.12v7.74l22.51,16.59"/>
        <path class="cls-3" d="m296.47,118.39l-25.44,23.23-14.38-1.11-14.38,7.74-2.21,18.8-28.76,5.53-7.74,13.27h-20.72l-14.68,13.27-1.11-21.02,14.38-15.49,2.21-8.85,26.33-16.45,16.81,4.29,12.17-4.42-2.21-16.59h-16.59l-21.02-23.23-11.06,4.42-9.95-11.06-28.76-5.53-29.86,21.02v18.24l-24.33,12.73-34.29-1.11-7.74,11.06-25.44,8.85-3.32,23.23-22.12,16.59,3.32,44.24s11.06,37.61,50.88,37.61l1.11,18.8"/>
        <path class="cls-3" d="m230.95,147.81c2.05-1,7.12-2.87,6.82,3.11-.15,3.01-3.24,5.03-6.08,4.01-2.67-.97-4.91-2.74-2.27-5.92.42-.5.94-.91,1.53-1.19Z"/>
      </g>
      <g class="cls-1">
        <path class="cls-3" d="m307.64,1039.38s33.18,3.32,48.67-15.49l263.21,7.86,98.48-68.69,2.21-44.24,2.21-34.29-2.21-33.18-5.53-23.23h22.49l103.6-28.76,7.74,9.95,42.03-13.27-16.59-21.02,46.46-15.49,5.53,5.53,43.14-9.95v-8.89l-6.64-3.27-25.44-28.76-2.21-15.49-27.65-67.47-1.11-29.86-12.17,5.53-4.42-13.27,14.38-2.21-14.38-26.55v-14.38l-18.8-23.23-34.29-73,18.8-24.33,53.09-34.29-13.27-23.23-25.44,12.17-5.53-6.64-36.5,25.44-2.21,15.49-1.11,16.59-12.17,4.42v15.49l4.42,3.32-1.11,6.64-8.85,9.95,3.32,14.38-14.38,13.27v11.06l-12.17,6.64.14,11.06h-9.37l-18.43,12.17v9.95l-12.17,2.21s-61.94,38.71-110.61-2.21l-22.12,24.33-26.55,36.5-46.46,103.97-36.5,79.64-1.11,13.27-65.26,57.52-15.49,15.49-37.61,53.09-29.86,43.14-44.24,58.62Z"/>
        <polyline class="cls-3" points="721.4 566.06 739.01 602.47 762.24 636.76 777.73 662.2 789.89 694.28 796.53 723.03 818.63 805.5"/>
        <path class="cls-3" d="m782.15,411.12l5.53-11.06s35.46,64.6-17.67,124.11c-53.12,59.51-127.23,31.85-127.23,31.85l8.85-8.85,7.74,9.95h5.53l6.64-4.42,6.64,6.64,13.27-6.64,7.74,4.42,4.42-2.21,4.42-12.17,12.98-2.02,7.98-9.04h15.13l8.15-12.17,13.27-2.21,2.21-13.27,12.17-6.64,1.11-13.27,8.85-7.74v-7.74l-2.21-2.21,1.11-9.95,3.32-2.21v-8.85l-3.32-8.85v-5.53l2.21-5.53-8.85-14.38Z"/>
        <polyline class="cls-3" points="632.83 553.8 655.37 529.74 673.75 512.88 690.34 499.6 716.89 477.48 725.74 459.78 736.8 437.66 741.22 428.81 752.29 434.34 763.35 416.65 763.35 378.16 770.01 378.16 770.01 397.94 783.26 390.1 784.36 370.19 767.77 365.77 771.09 337.01 780.74 337.01 781.04 331.48 771.09 328.16 774.41 311.57 789.89 328.16 796.53 330.37 799.85 325.95 796.53 320.42 779.8 311.57 802.06 307.14 833.03 306.04 880.59 310.46 886.12 335.9 857.36 355.81 854.05 371.3 835.24 377.93 835.24 384.57 816.44 390.1 797.64 390.1 797.64 401.16 827.5 403.37"/>
        <path class="cls-3" d="m765.56,478.59l7.74,7.74s14.69-32.08,10.67-56.41l-13.95-1.87-4.46,8.47,7.74,4.45s2.21,22.12-7.74,37.61Z"/>
        <polygon class="cls-3" points="945.85 713.08 966.87 740.73 973.27 740.73 973.27 725.81 969.08 719.97 969.08 708.8 982.55 685.78 960.23 661.09 942.53 636.76 930.37 616.85 925.94 596.94 915.99 614.64 931.47 642.29 931.47 657.77 942.53 659.99 956.91 676.58 962.61 685.78 962.44 696.49 945.85 713.08"/>
        <path class="cls-3" d="m915.99,577.82h20.69l-8.53-10.74-.26-4.64,6.89-11.95,13.27,6.64,4.42-8.85-7.74,1.11-7.74-5.53,2.21-4.42h11.74l5.96-8.85,3.32-15.49,11.06-8.85-14.38-33.18h-22.12l-6.64,21.02h-6.64l-8.85-4.42-8.85,9.95-4.42-4.42,5.53-11.06,1.11-6.64-2.21-6.64v-3.32l23.23-8.85-16.59-39.82s-43.14,22.12-53.09,36.5l24.33,57.52,19.17,18.8-5.9,8.85,5.53,7.74h13.27l7.74,14.38v4.42l-5.53,10.74Z"/>
        <path class="cls-3" d="m114.07,521.73l-2.21-3.32-4.42-5.53,4.42-3.32-1.11-13.27-3.32-14.38-13.27-21.02s12.17-14.38,23.23-6.64,25.44,39.82,25.44,39.82h7.74l8.85-3.32,11.06-6.64,4.42,4.42-12.17,14.38v12.17l-5.61,6.64h-43.06l2.53,8.02h22.09l-.28,72.73-3.32,37.86v18.55l5.53,14.38,11.06,12.17,14.38,7.74,11.06,9.95,6.64,12.17,7.74,18.8,7.74,22.12,16.59,9.95,34.29,34.29,2.21,8.85,35.4,51.99,58.62-26.55,17.7,1.11,35.4,2.21,4.42,2.21-8.35,6.34v33.48h10.56l61.94-60.84-6.64-12.17h-16.59l1.11-23.23,15.49,3.32,16.59,14.38,38.71-53.09-2.21-1.11-8.85,8.85-29.86-17.7-5.53,18.8-6.64-3.32-2.21-11.06-4.42-9.95,1.11-11.06,8.85-12.17,8.85,5.53-5.53,11.06,34.29,19.91,25.44-35.4-1.11-6.64-43.14-18.8,4.42-8.85,42.03,21.02,26.55-51.99-3.32-2.21-24.33,4.42-1.11-7.74,27.65-4.42,14.38-28.76-11.06,7.74-7.74-4.42,47.56-44.24-39.82-55.3-7.74,5.53-7.74-12.17-23.23,13.27h-23.23l-.5,12.44-23.84-9.13-34.29,16.59-1.11,12.17-15.49-2.21-40.93,27.65,8.85,35.4-29.86,5.53,21.02,106.19h-49.77l21.02,34.29,19.91,21.02v21.02l-9.95,6.64v29.86"/>
        <polyline class="cls-3" points="600.75 565.97 638.36 529.74 670.43 502.92 695.98 481.24 718 439.87 706.51 439.87 712.47 423.28 735.69 364.66 727.95 363.55 727.95 351.39 736.8 344.75 736.8 332.44 740.12 255.16 732.38 265.11 731.27 324.84 710.25 322.63 704.72 330.37 719.1 345.86 734.59 331.48 736.8 329.26"/>
        <polygon class="cls-3" points="632.83 322.54 627.3 312.67 619.55 317.1 607.39 327.05 601.86 339.22 587.48 355.81 593.01 363.55 607.39 348.07 614.02 334.8 623.98 327.05 632.83 322.54"/>
        <polygon class="cls-3" points="564.25 403.37 588.58 370.19 581.85 363.55 555.4 397.84 564.25 403.37"/>
        <polygon class="cls-3" points="541.02 447.62 560.25 410.56 550.63 404.76 529.96 444.3 541.02 447.62"/>
        <polygon class="cls-3" points="525.54 478.59 535.49 479.69 538.81 454.25 528.19 452.38 525.54 478.59"/>
        <polygon class="cls-3" points="533.28 486.33 523.32 485.22 518.9 517.3 522.22 517.3 531.18 512.18 533.28 486.33"/>
        <path class="cls-3" d="m528.19,452.38l-12.61-.34,6.31-14.15-10.73-12.4-16.59-4.42-18.8-3.32s-53.09-30.97-56.41-74.11c0,0,3.32-17.7,9.95-25.44h-17.02l-13.95,7.74-27.65,5.53s-35.4,21.02-57.52,43.14c0,0-54.2,15.49-74.11,37.61,0,0-37.61,29.86-34.29,65.26l-29.86,11.06"/>
        <polyline class="cls-2" points="204.77 477.48 209.74 529.74 222.47 529.74 225.78 562.65 296.57 556.01 314.27 554.91 310.95 564.86 361.83 582.56 382.85 574.82"/>
        <polyline class="cls-3" points="94.16 460.89 108.54 443.19 108.54 430.78 101.35 420.86 103.01 397.84 83.1 363.55 78.67 344.75 64.29 323.73 66.51 303.82 83.1 310.46 125.13 322.63 170.48 321.52 198.13 314.89 198.13 329.12 222.47 313.78 256.76 313.78 263.39 322.63 284.41 301.61 297.68 271.75 309.85 245.2 321.29 245.2 330.86 269.54 337.5 282.81 354.09 306.04 370.68 327.05 373.56 330.9"/>
        <path class="cls-3" d="m581.85,363.55l-9.85-13.9-27.65-25.92,8.85-91.81-21.02,28.76-3.98-.4-3.76-12.87-6.64-32.08-9.95-25.44-19.91,13.27s-45.35,25.44-51.99,50.88c-6.64,25.44-7.74,40.93-7.74,40.93l-15.91,23.23"/>
        <polyline class="cls-3" points="627.3 312.67 635.04 308.25 641.68 320.42 699.19 293.87 700.3 314.89 704.53 320.42 704.72 330.37"/>
        <path class="cls-3" d="m710.25,322.63l3.32-18.8,5.53-24.33,3.32-13.27-12.17,9.55-1.11-13.97,12.17-4.42,13.27-14.38h-14.79l-19.5,5.53-1.11-14.38,18.8-4.42,15.49-1.11,13.27,5.53-1.11-9.95-8.85-4.42-8.85-2.21,3.32-11.06,21.02,7.74,7.19,3.55-10.51-15.71-34.29-11.06,4.42-13.27,68.58,26.55,23.23-19.91-61.94-19.91-2.21,6.64-23.23-7.74,5.53-15.49,48.67,17.7,44.24,16.59,98.44-79.64-3.32-4.42-5.53,4.42h-4.42v-8.85l7.74-6.64-22.12-16.59-25.44,1.11s-40.93,3.32-53.09,36.5l-67.47-46.46-2.21,6.64,18.8,12.17-3.32,6.64-18.8-7.74-3.32,30.97,18.8,7.74-6.64,13.27-36.5-12.17-25.44,59.73,11.06,17.7-11.06,6.97-11.06-19.13,1.11-9.95,6.64-17.7-14.38,9.66-9.95-26.25,8.85-2.21,28.76-3.32-1.11-9.95-12.17,2.21-12.17,2.21-6.64,5.53h-8.85l-5.53-35.4-29.86-1.11v-21.33l-6.64-19.59-1.11-16.59-38.71-9.95-3.32-21.02h-8.36l-.48,14.38-13.27-1.11-7.74,70.79,8.85,8.85-5.53,8.85,12.17,13.27-49.77,65.26"/>
        <path class="cls-3" d="m542.13,93.67h-50.08l-4.12,5.53-13.27,2.21-2.21-12.17-12.17-4.42-5.53,1.11-3.32,4.42h-15.49l-2.21-19.91-15.49-5.53-24.33-2.21h-17.79l-6.54,3.32s-33.18-18.8-47.56,11.06l-14.38,42.03s15.49,3.32,22.12-24.33l8.85-1.11-1.11,8.85,8.85,2.21v9.95l26.55-1.11,5.53-3.32-.76,8.97-4.11,2.09h-34.11l-7.49,1.11-2.21,13.27h-5.54l-1.1-9.95h-17.7v21.91l14.38,2.42-1.11,25.44-22.12,23.23,2.21,22.12v7.74l22.51,16.59"/>
        <path class="cls-3" d="m305.42,125.74l-25.44,23.23-14.38-1.11-14.38,7.74-2.21,18.8-28.76,5.53-7.74,13.27h-20.72l-14.68,13.27-1.11-21.02,14.38-15.49,2.21-8.85,26.33-16.45,16.81,4.29,12.17-4.42-2.21-16.59h-16.59l-21.02-23.23-11.06,4.42-9.95-11.06-28.76-5.53-29.86,21.02v18.24l-24.33,12.73-34.29-1.11-7.74,11.06-25.44,8.85-3.32,23.23-22.12,16.59,3.32,44.24s11.06,37.61,50.88,37.61l1.11,18.8"/>
        <path class="cls-3" d="m239.9,155.16c2.05-1,7.12-2.87,6.82,3.11-.15,3.01-3.24,5.03-6.08,4.01-2.67-.97-4.91-2.74-2.27-5.92.42-.5.94-.91,1.53-1.19Z"/>
      </g>
    </g>
  </g>
</svg>