<?xml version="1.0" encoding="UTF-8"?>
<svg xmlns="http://www.w3.org/2000/svg" xmlns:xlink="http://www.w3.org/1999/xlink" viewBox="0 0 1920 1080">
  <defs>
    <style>
      .cls-1 {
        fill: #c900a6;
      }

      .cls-1, .cls-2, .cls-3, .cls-4, .cls-5, .cls-6, .cls-7, .cls-8, .cls-9, .cls-10, .cls-11, .cls-12, .cls-13, .cls-14, .cls-15, .cls-16, .cls-17, .cls-18, .cls-19, .cls-20, .cls-21, .cls-22, .cls-23, .cls-24, .cls-25, .cls-26, .cls-27, .cls-28, .cls-29, .cls-30, .cls-31, .cls-32, .cls-33, .cls-34, .cls-35, .cls-36, .cls-37, .cls-38, .cls-39, .cls-40, .cls-41, .cls-42, .cls-43, .cls-44, .cls-45 {
        stroke-width: 0px;
      }

      .cls-1, .cls-13, .cls-46, .cls-36, .cls-37, .cls-47, .cls-48 {
        mix-blend-mode: multiply;
      }

      .cls-2 {
        fill: url(#linear-gradient-17);
      }

      .cls-2, .cls-3, .cls-4, .cls-37 {
        opacity: .48;
      }

      .cls-3 {
        fill: url(#linear-gradient-16);
      }

      .cls-4 {
        fill: url(#linear-gradient-18);
      }

      .cls-49 {
        fill: #ffda15;
      }

      .cls-49, .cls-50 {
        font-size: 47.8px;
      }

      .cls-49, .cls-50, .cls-51 {
        font-family: Lato-Heavy, Lato;
        font-weight: 800;
      }

      .cls-50, .cls-51 {
        fill: #05d5aa;
      }

      .cls-52 {
        letter-spacing: 0em;
      }

      .cls-53 {
        mask: url(#mask);
      }

      .cls-54 {
        letter-spacing: -.03em;
      }

      .cls-55 {
        letter-spacing: -.03em;
      }

      .cls-56, .cls-32, .cls-34, .cls-41, .cls-42, .cls-43, .cls-44, .cls-45 {
        mix-blend-mode: overlay;
      }

      .cls-56, .cls-36, .cls-48 {
        opacity: .2;
      }

      .cls-5 {
        fill: url(#linear-gradient-7);
      }

      .cls-5, .cls-6, .cls-20, .cls-21, .cls-22, .cls-23, .cls-33 {
        mix-blend-mode: screen;
      }

      .cls-5, .cls-6, .cls-33, .cls-43, .cls-44, .cls-45 {
        opacity: .5;
      }

      .cls-6 {
        fill: url(#linear-gradient-6);
      }

      .cls-7 {
        fill: url(#radial-gradient);
      }

      .cls-8 {
        fill: url(#radial-gradient-14);
      }

      .cls-9 {
        fill: url(#radial-gradient-13);
      }

      .cls-10 {
        fill: url(#radial-gradient-12);
      }

      .cls-11 {
        fill: url(#radial-gradient-11);
      }

      .cls-12 {
        fill: url(#radial-gradient-10);
      }

      .cls-13 {
        fill: url(#linear-gradient-15);
        opacity: .26;
      }

      .cls-57 {
        letter-spacing: 0em;
      }

      .cls-58 {
        letter-spacing: -.02em;
      }

      .cls-14 {
        fill: url(#linear-gradient-11);
      }

      .cls-15 {
        fill: url(#linear-gradient-12);
      }

      .cls-16 {
        fill: url(#linear-gradient-13);
      }

      .cls-17 {
        fill: url(#linear-gradient-10);
      }

      .cls-18 {
        fill: url(#linear-gradient-14);
      }

      .cls-19 {
        fill: url(#linear-gradient-20);
      }

      .cls-59 {
        letter-spacing: -.01em;
      }

      .cls-20 {
        fill: url(#linear-gradient-5);
      }

      .cls-21 {
        fill: url(#linear-gradient-4);
      }

      .cls-22 {
        fill: url(#linear-gradient-3);
      }

      .cls-23 {
        fill: url(#linear-gradient-2);
        opacity: .7;
      }

      .cls-60 {
        filter: url(#drop-shadow-1);
      }

      .cls-51 {
        font-size: 62.79px;
      }

      .cls-61 {
        letter-spacing: 0em;
      }

      .cls-24 {
        fill: url(#radial-gradient-2);
      }

      .cls-25 {
        fill: url(#radial-gradient-3);
      }

      .cls-26 {
        fill: url(#radial-gradient-4);
      }

      .cls-27 {
        fill: url(#radial-gradient-6);
      }

      .cls-28 {
        fill: url(#radial-gradient-9);
      }

      .cls-29 {
        fill: url(#radial-gradient-8);
      }

      .cls-30 {
        fill: url(#radial-gradient-5);
      }

      .cls-31 {
        fill: url(#radial-gradient-7);
      }

      .cls-32, .cls-34, .cls-38, .cls-41 {
        fill: #38f267;
      }

      .cls-62 {
        letter-spacing: -.02em;
      }

      .cls-33 {
        fill: url(#linear-gradient);
      }

      .cls-63 {
        letter-spacing: -.02em;
      }

      .cls-64 {
        letter-spacing: 0em;
      }

      .cls-65 {
        letter-spacing: 0em;
      }

      .cls-66 {
        letter-spacing: -.06em;
      }

      .cls-34 {
        opacity: .6;
      }

      .cls-35 {
        fill: url(#linear-gradient-9);
      }

      .cls-67 {
        letter-spacing: -.03em;
      }

      .cls-36 {
        fill: #7e16c2;
      }

      .cls-68 {
        isolation: isolate;
      }

      .cls-69 {
        fill: none;
        stroke: #38f267;
        stroke-miterlimit: 10;
        stroke-width: 3.47px;
      }

      .cls-70 {
        letter-spacing: 0em;
      }

      .cls-37 {
        fill: url(#linear-gradient-19);
      }

      .cls-47, .cls-41 {
        opacity: .4;
      }

      .cls-71 {
        mask: url(#mask-3);
      }

      .cls-72 {
        mask: url(#mask-2);
      }

      .cls-73 {
        mask: url(#mask-4);
      }

      .cls-74 {
        mask: url(#mask-1);
      }

      .cls-39 {
        fill: #141e25;
      }

      .cls-40, .cls-44 {
        fill: #b3bf00;
      }

      .cls-42 {
        fill: url(#linear-gradient-8);
      }

      .cls-43 {
        fill: #fff;
      }

      .cls-45 {
        fill: #ff5fff;
      }

      .cls-75 {
        letter-spacing: -.01em;
      }

      .cls-76 {
        letter-spacing: 0em;
      }
    </style>
    <radialGradient id="radial-gradient" cx="1837.3" cy="-1056" fx="1837.3" fy="-1056" r="178.81" gradientTransform="translate(8865.06 -6221.26) rotate(90) scale(3.68 -7.49)" gradientUnits="userSpaceOnUse">
      <stop offset="0" stop-color="#2b5174"/>
      <stop offset="1" stop-color="#010009"/>
    </radialGradient>
    <filter id="drop-shadow-1" filterUnits="userSpaceOnUse">
      <feOffset dx="0" dy="6.93"/>
      <feGaussianBlur result="blur" stdDeviation="18.49"/>
      <feFlood flood-color="#000" flood-opacity=".7"/>
      <feComposite in2="blur" operator="in"/>
      <feComposite in="SourceGraphic"/>
    </filter>
    <radialGradient id="radial-gradient-2" cx="94.28" cy="1655.84" fx="94.28" fy="1655.84" r="178.35" gradientTransform="translate(1346.99 2254.73) scale(1 -1)" gradientUnits="userSpaceOnUse">
      <stop offset=".2" stop-color="#b3bf00"/>
      <stop offset=".33" stop-color="#ba8036"/>
      <stop offset=".45" stop-color="#c04966"/>
      <stop offset=".56" stop-color="#c52189"/>
      <stop offset=".65" stop-color="#c7089e"/>
      <stop offset=".7" stop-color="#c900a6"/>
      <stop offset=".75" stop-color="#c402a7"/>
      <stop offset=".8" stop-color="#b80aaa"/>
      <stop offset=".86" stop-color="#a318af"/>
      <stop offset=".91" stop-color="#862bb6"/>
      <stop offset=".97" stop-color="#6144c0"/>
      <stop offset="1" stop-color="#4756c7"/>
    </radialGradient>
    <linearGradient id="linear-gradient" x1="158.86" y1="1927.73" x2="158.86" y2="1610.02" gradientTransform="translate(1346.99 2254.73) scale(1 -1)" gradientUnits="userSpaceOnUse">
      <stop offset="0" stop-color="#c900a6"/>
      <stop offset="1" stop-color="#38f267"/>
    </linearGradient>
    <linearGradient id="linear-gradient-2" x1="5635.73" y1="1702.32" x2="5737.66" y2="1702.32" gradientTransform="translate(7044.21 2254.73) rotate(-180)" gradientUnits="userSpaceOnUse">
      <stop offset="0" stop-color="#c900a6"/>
      <stop offset=".25" stop-color="#c802a3"/>
      <stop offset=".4" stop-color="#c70a9c"/>
      <stop offset=".52" stop-color="#c61990"/>
      <stop offset=".63" stop-color="#c32d7e"/>
      <stop offset=".73" stop-color="#c04767"/>
      <stop offset=".82" stop-color="#bd684b"/>
      <stop offset=".91" stop-color="#b88e2a"/>
      <stop offset=".99" stop-color="#b3b904"/>
      <stop offset="1" stop-color="#b3bf00"/>
    </linearGradient>
    <radialGradient id="radial-gradient-3" cx="4140.22" cy="3561.75" fx="4140.22" fy="3561.75" r="60.52" gradientTransform="translate(5519.87 6154.14) rotate(-90.1) scale(1.38 -1.14)" gradientUnits="userSpaceOnUse">
      <stop offset="0" stop-color="#fff"/>
      <stop offset=".2" stop-color="#fcfcfc"/>
      <stop offset=".33" stop-color="#f3f3f3"/>
      <stop offset=".45" stop-color="#e3e3e3"/>
      <stop offset=".55" stop-color="#cecece"/>
      <stop offset=".65" stop-color="#b2b2b2"/>
      <stop offset=".74" stop-color="#8f8f8f"/>
      <stop offset=".83" stop-color="#666"/>
      <stop offset=".92" stop-color="#373737"/>
      <stop offset="1" stop-color="#030303"/>
      <stop offset="1" stop-color="#000"/>
    </radialGradient>
    <mask id="mask" x="1371.54" y="364.02" width="138.31" height="167.01" maskUnits="userSpaceOnUse">
      <path class="cls-25" d="m1509.85,447.47c-.08-46.24-31.18-83.52-69.35-83.45-38.11.05-69.05,37.45-68.96,83.68.07,46.1,31.15,83.38,69.23,83.32,38.19-.07,69.17-37.46,69.08-83.55Z"/>
    </mask>
    <radialGradient id="radial-gradient-4" cx="4076.28" cy="3606.78" fx="4076.28" fy="3606.78" r="45.07" xlink:href="#radial-gradient-3"/>
    <mask id="mask-1" x="1337.89" y="473.64" width="102.99" height="124.36" maskUnits="userSpaceOnUse">
      <path class="cls-26" d="m1440.88,535.78c-.06-34.43-23.22-62.19-51.64-62.14-28.38.04-51.42,27.88-51.35,62.31.05,34.33,23.19,62.09,51.55,62.05,28.44-.05,51.5-27.9,51.44-62.22Z"/>
    </mask>
    <linearGradient id="linear-gradient-3" x1="21.5" y1="1507.8" x2="207.65" y2="1364.89" gradientTransform="translate(1313.9 2122.14) rotate(2.68) scale(1 -1)" gradientUnits="userSpaceOnUse">
      <stop offset="0" stop-color="#fff" stop-opacity="0"/>
      <stop offset=".11" stop-color="#c3b0af" stop-opacity=".31"/>
      <stop offset=".27" stop-color="#8a6561" stop-opacity=".62"/>
      <stop offset=".44" stop-color="#612f2a" stop-opacity=".83"/>
      <stop offset=".65" stop-color="#490f09" stop-opacity=".96"/>
      <stop offset="1" stop-color="#420600"/>
    </linearGradient>
    <linearGradient id="linear-gradient-4" x1="782.03" y1="2777.21" x2="853.78" y2="2722.13" gradientTransform="translate(1988.38 3480.26) rotate(-27.54) scale(1 -1)" gradientUnits="userSpaceOnUse">
      <stop offset="0" stop-color="#fff" stop-opacity="0"/>
      <stop offset="1" stop-color="#420600"/>
    </linearGradient>
    <linearGradient id="linear-gradient-5" x1="253.7" y1="-633.09" x2="395.47" y2="-741.92" gradientTransform="translate(1684.67 -60.03) rotate(47.78) scale(1 -1)" xlink:href="#linear-gradient-4"/>
    <linearGradient id="linear-gradient-6" x1="19.59" y1="1889.63" x2="36" y2="1641.27" gradientTransform="translate(1346.99 2254.73) scale(1 -1)" gradientUnits="userSpaceOnUse">
      <stop offset="0" stop-color="#fff" stop-opacity="0"/>
      <stop offset=".02" stop-color="#ebe4e4" stop-opacity=".11"/>
      <stop offset=".11" stop-color="#ac9290" stop-opacity=".43"/>
      <stop offset=".21" stop-color="#7c534f" stop-opacity=".69"/>
      <stop offset=".34" stop-color="#5a2621" stop-opacity=".87"/>
      <stop offset=".51" stop-color="#470d07" stop-opacity=".97"/>
      <stop offset="1" stop-color="#420600"/>
    </linearGradient>
    <linearGradient id="linear-gradient-7" x1="76.98" y1="1859.62" x2="193.33" y2="1592.24" gradientTransform="translate(1346.99 2254.73) scale(1 -1)" gradientUnits="userSpaceOnUse">
      <stop offset="0" stop-color="#420600"/>
      <stop offset=".49" stop-color="#470d07" stop-opacity=".97"/>
      <stop offset=".66" stop-color="#5a2621" stop-opacity=".87"/>
      <stop offset=".79" stop-color="#7c534f" stop-opacity=".69"/>
      <stop offset=".89" stop-color="#ac9290" stop-opacity=".43"/>
      <stop offset=".98" stop-color="#ebe4e4" stop-opacity=".11"/>
      <stop offset="1" stop-color="#fff" stop-opacity="0"/>
    </linearGradient>
    <linearGradient id="linear-gradient-8" x1="77.96" y1="1813.88" x2="210.05" y2="1739.53" gradientTransform="translate(1367.98 2331.73) rotate(-1.55) scale(1 -1)" gradientUnits="userSpaceOnUse">
      <stop offset="0" stop-color="#420600"/>
      <stop offset="1" stop-color="#fff" stop-opacity="0"/>
    </linearGradient>
    <radialGradient id="radial-gradient-5" cx="4309.19" cy="3366.99" fx="4309.19" fy="3366.99" r="70.36" gradientTransform="translate(5637.45 4786.99) rotate(-90.1) scale(.98 -1.24) skewX(.01)" xlink:href="#radial-gradient-3"/>
    <mask id="mask-2" x="1353.72" y="484.8" width="175.08" height="138.43" maskUnits="userSpaceOnUse">
      <path class="cls-30" d="m1528.8,553.92c-.06-38.33-39.41-69.21-87.72-69.12-48.24.07-87.43,31.08-87.36,69.41.05,38.21,39.36,69.09,87.58,69.01,48.33-.09,87.57-31.1,87.5-69.31Z"/>
    </mask>
    <radialGradient id="radial-gradient-6" cx="4266.97" cy="3367.05" fx="4266.97" fy="3367.05" r="101.88" gradientTransform="translate(5637.45 4786.99) rotate(-90.1) scale(.98 -1.24) skewX(.01)" xlink:href="#radial-gradient-3"/>
    <mask id="mask-3" x="1314.5" y="495.33" width="253.51" height="200.44" maskUnits="userSpaceOnUse">
      <path class="cls-27" d="m1568.01,595.41c-.1-55.49-57.06-100.21-127.02-100.09-69.85.1-126.6,45.01-126.49,100.51.08,55.33,57,100.04,126.81,99.93,69.98-.12,126.81-45.03,126.7-100.35Z"/>
    </mask>
    <radialGradient id="radial-gradient-7" cx="6311.1" cy="3251.38" fx="6311.1" fy="3251.38" r="60.58" gradientTransform="translate(5702.04 2397.61) rotate(-90.1) scale(.29 -1.31) skewX(.07)" xlink:href="#radial-gradient-3"/>
    <mask id="mask-4" x="1357.9" y="534.73" width="158.82" height="38.55" maskUnits="userSpaceOnUse">
      <path class="cls-31" d="m1516.72,553.9c-.02-9.83-35.68-17.72-79.5-17.65-43.76.06-79.34,8.05-79.32,17.89,0,9.8,35.64,17.69,79.37,17.63,43.85-.07,79.48-8.06,79.45-17.86Z"/>
    </mask>
    <linearGradient id="linear-gradient-9" x1="35.12" y1="1913.45" x2="154.43" y2="1913.45" gradientTransform="translate(1346.99 2254.73) scale(1 -1)" gradientUnits="userSpaceOnUse">
      <stop offset=".05" stop-color="#008c59"/>
      <stop offset=".05" stop-color="#018c58"/>
      <stop offset=".05" stop-color="#2fa154"/>
      <stop offset=".05" stop-color="#58b351"/>
      <stop offset=".06" stop-color="#7dc44d"/>
      <stop offset=".06" stop-color="#9ed34a"/>
      <stop offset=".06" stop-color="#b9df48"/>
      <stop offset=".07" stop-color="#cfe946"/>
      <stop offset=".07" stop-color="#e0f044"/>
      <stop offset=".07" stop-color="#ecf643"/>
      <stop offset=".08" stop-color="#f3f943"/>
      <stop offset=".1" stop-color="#f5fa43"/>
      <stop offset=".1" stop-color="#f5fa44"/>
      <stop offset=".1" stop-color="#f7fa4b"/>
      <stop offset=".1" stop-color="#fbfc57"/>
      <stop offset=".12" stop-color="#cff95a"/>
      <stop offset=".14" stop-color="#a7f75d"/>
      <stop offset=".16" stop-color="#85f560"/>
      <stop offset=".18" stop-color="#68f462"/>
      <stop offset=".2" stop-color="#53f364"/>
      <stop offset=".23" stop-color="#43f266"/>
      <stop offset=".26" stop-color="#3af266"/>
      <stop offset=".3" stop-color="#38f267"/>
      <stop offset=".3" stop-color="#69f45d"/>
      <stop offset=".31" stop-color="#93f555"/>
      <stop offset=".31" stop-color="#b6f74e"/>
      <stop offset=".31" stop-color="#d2f849"/>
      <stop offset=".31" stop-color="#e5f945"/>
      <stop offset=".32" stop-color="#f1f943"/>
      <stop offset=".32" stop-color="#f5fa43"/>
      <stop offset=".33" stop-color="#e8f947"/>
      <stop offset=".35" stop-color="#bbf659"/>
      <stop offset=".37" stop-color="#94f468"/>
      <stop offset=".39" stop-color="#74f274"/>
      <stop offset=".42" stop-color="#5cf07d"/>
      <stop offset=".44" stop-color="#4aef84"/>
      <stop offset=".47" stop-color="#40ef88"/>
      <stop offset=".5" stop-color="#3def8a"/>
      <stop offset=".51" stop-color="#3de181"/>
      <stop offset=".6" stop-color="#3e9c53"/>
      <stop offset=".67" stop-color="#3f652f"/>
      <stop offset=".74" stop-color="#403d15"/>
      <stop offset=".79" stop-color="#402405"/>
      <stop offset=".82" stop-color="#411c00"/>
      <stop offset=".84" stop-color="#402002"/>
      <stop offset=".87" stop-color="#402c07"/>
      <stop offset=".89" stop-color="#3f4111"/>
      <stop offset=".92" stop-color="#3e5e1f"/>
      <stop offset=".94" stop-color="#3c8332"/>
      <stop offset=".97" stop-color="#3ab148"/>
      <stop offset="1" stop-color="#38e761"/>
      <stop offset="1" stop-color="#38f267"/>
    </linearGradient>
    <linearGradient id="linear-gradient-10" x1="42.87" y1="1919.4" x2="146.68" y2="1919.4" gradientTransform="translate(1346.99 2254.73) scale(1 -1)" gradientUnits="userSpaceOnUse">
      <stop offset=".1" stop-color="#f5fa43"/>
      <stop offset=".1" stop-color="#f5fa44"/>
      <stop offset=".1" stop-color="#f7fa4b"/>
      <stop offset=".1" stop-color="#fbfc57"/>
      <stop offset=".12" stop-color="#cff95a"/>
      <stop offset=".14" stop-color="#a7f75d"/>
      <stop offset=".16" stop-color="#85f560"/>
      <stop offset=".18" stop-color="#68f462"/>
      <stop offset=".2" stop-color="#53f364"/>
      <stop offset=".23" stop-color="#43f266"/>
      <stop offset=".26" stop-color="#3af266"/>
      <stop offset=".3" stop-color="#38f267"/>
      <stop offset=".31" stop-color="#69f45d"/>
      <stop offset=".33" stop-color="#93f555"/>
      <stop offset=".34" stop-color="#b6f74e"/>
      <stop offset=".36" stop-color="#d2f849"/>
      <stop offset=".37" stop-color="#e5f945"/>
      <stop offset=".38" stop-color="#f1f943"/>
      <stop offset=".4" stop-color="#f5fa43"/>
      <stop offset=".41" stop-color="#e8f947"/>
      <stop offset=".43" stop-color="#bbf659"/>
      <stop offset=".46" stop-color="#94f468"/>
      <stop offset=".49" stop-color="#74f274"/>
      <stop offset=".52" stop-color="#5cf07d"/>
      <stop offset=".55" stop-color="#4aef84"/>
      <stop offset=".58" stop-color="#40ef88"/>
      <stop offset=".62" stop-color="#3def8a"/>
      <stop offset=".9" stop-color="#008c59"/>
      <stop offset="1" stop-color="#38f267"/>
    </linearGradient>
    <linearGradient id="linear-gradient-11" x1="42.84" y1="1902.58" x2="146.71" y2="1902.58" xlink:href="#linear-gradient-10"/>
    <linearGradient id="linear-gradient-12" x1="42.81" y1="1885.24" x2="146.74" y2="1885.24" xlink:href="#linear-gradient-10"/>
    <linearGradient id="linear-gradient-13" x1="42.76" y1="1936.54" x2="146.78" y2="1936.54" xlink:href="#linear-gradient-10"/>
    <radialGradient id="radial-gradient-8" cx="94.77" cy="1881.02" fx="94.77" fy="1881.02" r="40.54" gradientTransform="translate(1346.99 2254.73) scale(1 -1)" gradientUnits="userSpaceOnUse">
      <stop offset="0" stop-color="#00bf4b"/>
      <stop offset=".08" stop-color="#03b546"/>
      <stop offset=".22" stop-color="#0d9c3a"/>
      <stop offset=".4" stop-color="#1e7227"/>
      <stop offset=".6" stop-color="#35390d"/>
      <stop offset=".7" stop-color="#411c00"/>
      <stop offset=".9" stop-color="#734900"/>
    </radialGradient>
    <radialGradient id="radial-gradient-9" cy="1898.27" fy="1898.27" r="40.57" xlink:href="#radial-gradient-8"/>
    <radialGradient id="radial-gradient-10" cy="1915.43" fy="1915.43" r="40.55" xlink:href="#radial-gradient-8"/>
    <radialGradient id="radial-gradient-11" cx="94.76" cy="1932.25" fx="94.76" fy="1932.25" r="40.58" xlink:href="#radial-gradient-8"/>
    <linearGradient id="linear-gradient-14" x1="94.49" y1="1985.77" x2="94.49" y2="1971.75" gradientTransform="translate(1346.99 2254.73) scale(1 -1)" gradientUnits="userSpaceOnUse">
      <stop offset=".4" stop-color="#f5fa43"/>
      <stop offset=".4" stop-color="#eff743"/>
      <stop offset=".43" stop-color="#b1db49"/>
      <stop offset=".47" stop-color="#7bc34d"/>
      <stop offset=".5" stop-color="#4eaf51"/>
      <stop offset=".53" stop-color="#2ca054"/>
      <stop offset=".55" stop-color="#139457"/>
      <stop offset=".58" stop-color="#058e58"/>
      <stop offset=".6" stop-color="#008c59"/>
      <stop offset=".7" stop-color="#f5fa43"/>
    </linearGradient>
    <radialGradient id="radial-gradient-12" cx="86.76" cy="1914.33" fx="86.76" fy="1914.33" r="62.24" gradientTransform="translate(1346.99 2254.73) scale(1 -1)" gradientUnits="userSpaceOnUse">
      <stop offset=".4" stop-color="#f5fa43"/>
      <stop offset=".45" stop-color="#edf140"/>
      <stop offset=".53" stop-color="#d9d838"/>
      <stop offset=".62" stop-color="#b9b02c"/>
      <stop offset=".74" stop-color="#8c791c"/>
      <stop offset=".86" stop-color="#543407"/>
      <stop offset=".91" stop-color="#411c00"/>
      <stop offset=".92" stop-color="#3e2003"/>
      <stop offset=".94" stop-color="#372c0d"/>
      <stop offset=".96" stop-color="#2b411d"/>
      <stop offset=".98" stop-color="#1a5e34"/>
      <stop offset="1" stop-color="#058352"/>
      <stop offset="1" stop-color="#008c59"/>
    </radialGradient>
    <radialGradient id="radial-gradient-13" cx="86.25" cy="1939.52" fx="86.25" fy="1939.52" r="47.11" gradientTransform="translate(1346.99 2254.73) scale(1 -1)" gradientUnits="userSpaceOnUse">
      <stop offset=".2" stop-color="#f5fa43"/>
      <stop offset=".23" stop-color="#ebf944"/>
      <stop offset=".28" stop-color="#d2f849"/>
      <stop offset=".35" stop-color="#a8f651"/>
      <stop offset=".43" stop-color="#6ff45c"/>
      <stop offset=".5" stop-color="#38f267"/>
      <stop offset=".55" stop-color="#3ac250"/>
      <stop offset=".66" stop-color="#3f4b16"/>
      <stop offset=".7" stop-color="#411c00"/>
      <stop offset=".9" stop-color="#734900"/>
    </radialGradient>
    <linearGradient id="linear-gradient-15" x1="43.8" y1="1948.96" x2="146.46" y2="1948.96" gradientTransform="translate(1346.99 2254.73) scale(1 -1)" gradientUnits="userSpaceOnUse">
      <stop offset="0" stop-color="#fff"/>
      <stop offset=".03" stop-color="#e4e5e5"/>
      <stop offset=".1" stop-color="#afb1b1"/>
      <stop offset=".17" stop-color="#808484"/>
      <stop offset=".23" stop-color="#5b5f5f"/>
      <stop offset=".3" stop-color="#3d4242"/>
      <stop offset=".37" stop-color="#282e2e"/>
      <stop offset=".43" stop-color="#1c2222"/>
      <stop offset=".49" stop-color="#181e1e"/>
      <stop offset="1" stop-color="#fff"/>
    </linearGradient>
    <radialGradient id="radial-gradient-14" cx="94.78" cy="1866.21" fx="94.78" fy="1866.21" r="41.91" xlink:href="#radial-gradient-13"/>
    <linearGradient id="linear-gradient-16" x1="37.62" y1="1889.36" x2="151.93" y2="1889.36" gradientTransform="translate(1346.99 2254.73) scale(1 -1)" gradientUnits="userSpaceOnUse">
      <stop offset="0" stop-color="#b4b200"/>
      <stop offset="0" stop-color="#afa900"/>
      <stop offset=".04" stop-color="#9c8a01"/>
      <stop offset=".07" stop-color="#8c6e03"/>
      <stop offset=".11" stop-color="#7f5804"/>
      <stop offset=".15" stop-color="#754705"/>
      <stop offset=".21" stop-color="#6e3b05"/>
      <stop offset=".28" stop-color="#6a3405"/>
      <stop offset=".49" stop-color="#693306"/>
      <stop offset="1" stop-color="#95c4b7"/>
    </linearGradient>
    <linearGradient id="linear-gradient-17" y1="1906.25" y2="1906.25" xlink:href="#linear-gradient-16"/>
    <linearGradient id="linear-gradient-18" y1="1923.15" y2="1923.15" xlink:href="#linear-gradient-16"/>
    <linearGradient id="linear-gradient-19" x1="41.14" y1="1939.44" x2="148.41" y2="1939.44" gradientTransform="translate(1346.99 2254.73) scale(1 -1)" gradientUnits="userSpaceOnUse">
      <stop offset="0" stop-color="#fff"/>
      <stop offset=".03" stop-color="#f1ece8"/>
      <stop offset=".19" stop-color="#b0937b"/>
      <stop offset=".3" stop-color="#875b36"/>
      <stop offset=".35" stop-color="#78451c"/>
      <stop offset=".37" stop-color="#5a391c"/>
      <stop offset=".4" stop-color="#3d2d1d"/>
      <stop offset=".43" stop-color="#28241d"/>
      <stop offset=".46" stop-color="#1c1f1d"/>
      <stop offset=".49" stop-color="#181e1e"/>
      <stop offset=".69" stop-color="#191f1f"/>
      <stop offset=".75" stop-color="#202626"/>
      <stop offset=".8" stop-color="#2c3131"/>
      <stop offset=".84" stop-color="#3d4242"/>
      <stop offset=".88" stop-color="#535757"/>
      <stop offset=".91" stop-color="#6e7272"/>
      <stop offset=".94" stop-color="#8f9191"/>
      <stop offset=".96" stop-color="#b4b6b6"/>
      <stop offset=".98" stop-color="#dddede"/>
      <stop offset="1" stop-color="#fff"/>
    </linearGradient>
    <linearGradient id="linear-gradient-20" x1="1442.51" y1="595" x2="1442.51" y2="321.51" gradientTransform="translate(-.65 -320.57)" gradientUnits="userSpaceOnUse">
      <stop offset="0" stop-color="#fff"/>
      <stop offset=".16" stop-color="#dcdcdc"/>
      <stop offset=".51" stop-color="#848484"/>
      <stop offset="1" stop-color="#000"/>
    </linearGradient>
  </defs>
  <g class="cls-68">
    <g id="Layer_2" data-name="Layer 2">
      <g id="OBJECTS">
        <g>
          <rect class="cls-7" width="1920" height="1080"/>
          <g>
            <g class="cls-60">
              <g>
                <path class="cls-24" d="m1574.54,580.89c0,73.28-59.4,132.68-132.67,132.68s-132.68-59.4-132.68-132.68c0-22.32,5.52-43.36,15.26-61.82,4.81-9.56,23.5-42.45,31.86-58.42,8.14-15.56,5.85-22.16,8.85-40.2,2.63-15.79,16.99-29.2,16.99-29.2,0,0,26.67-1.93,59.71-1.93s59.7,1.93,59.7,1.93c0,0,14.36,13.4,16.99,29.2,3.01,18.04.72,24.65,8.85,40.2,8.36,15.98,27.05,48.87,31.86,58.43,9.74,18.46,15.26,39.49,15.26,61.81Z"/>
                <g class="cls-48">
                  <path class="cls-1" d="m1315.31,577.05c0,72.1,56.6,130.54,126.42,130.54s126.42-58.45,126.42-130.54c0-17.5-3.34-34.18-9.39-49.42,7.75,16.59,12.1,35.08,12.1,54.6,0,71.32-57.81,129.13-129.13,129.13s-129.13-57.81-129.13-129.13c0-19.52,4.35-38.02,12.1-54.61-6.05,15.25-9.4,31.93-9.4,49.43Z"/>
                </g>
                <path class="cls-33" d="m1441.73,713.57c-1.49,0-2.95-.07-4.43-.11,71.22-2.34,128.24-60.78,128.24-132.57,0-22.32-5.52-43.35-15.26-61.81-4.81-9.56-23.5-42.45-31.86-58.43-8.14-15.56-5.85-22.16-8.85-40.2-2.63-15.79-16.99-29.2-16.99-29.2,0,0-24.31-1.76-55.28-1.92,1.47,0,2.94-.01,4.43-.01,33.04,0,59.71,1.93,59.71,1.93,0,0,14.36,13.4,16.99,29.2,3.01,18.04.72,24.65,8.85,40.2,8.36,15.98,27.04,48.87,31.85,58.43,9.74,18.46,15.26,39.49,15.26,61.81,0,73.28-59.4,132.68-132.67,132.68Z"/>
                <path class="cls-23" d="m1444.78,713.57c1.49,0,2.96-.07,4.43-.11-71.22-2.34-128.25-60.78-128.25-132.57,0-22.32,5.52-43.35,15.26-61.81,4.81-9.56,23.5-42.45,31.86-58.43,8.14-15.56,5.85-22.16,8.85-40.2,2.63-15.79,16.99-29.2,16.99-29.2h-8.86s-14.36,13.4-16.99,29.2c-3,18.04-.72,24.65-8.85,40.2-8.36,15.98-27.04,48.87-31.86,58.43-9.74,18.46-15.26,39.49-15.26,61.81,0,73.28,59.4,132.68,132.67,132.68Z"/>
                <path class="cls-36" d="m1435.76,713.57c-1.49,0-2.95-.07-4.43-.11,71.22-2.34,128.25-60.78,128.25-132.57,0-22.32-5.52-43.35-15.26-61.81-4.81-9.56-23.5-42.45-31.86-58.43-8.14-15.56-5.85-22.16-8.85-40.2-2.64-15.79-16.99-29.2-16.99-29.2,0,0-24.31-1.76-55.28-1.92,1.47,0,2.94-.01,4.43-.01,33.04,0,59.7,1.93,59.7,1.93,0,0,14.36,13.4,16.99,29.2,3.01,18.04.72,24.65,8.85,40.2,8.36,15.98,27.05,48.87,31.86,58.43,9.74,18.46,15.26,39.49,15.26,61.81,0,73.28-59.4,132.68-132.67,132.68Z"/>
                <g class="cls-53">
                  <path class="cls-32" d="m1509.85,447.47c-.08-46.24-31.18-83.52-69.35-83.45-38.11.05-69.05,37.45-68.96,83.68.07,46.1,31.15,83.38,69.23,83.32,38.19-.07,69.17-37.46,69.08-83.55Z"/>
                </g>
                <g class="cls-74">
                  <path class="cls-43" d="m1440.88,535.78c-.06-34.43-23.22-62.19-51.64-62.14-28.38.04-51.42,27.88-51.35,62.31.05,34.33,23.19,62.09,51.55,62.05,28.44-.05,51.5-27.9,51.44-62.22Z"/>
                </g>
                <path class="cls-22" d="m1513.41,665.99c11.59-33.48-16.66-73.65-63.09-89.71-46.43-16.07-93.46-1.95-105.04,31.53-11.59,33.48,16.66,73.65,63.09,89.71,46.43,16.06,93.46,1.95,105.04-31.54Z"/>
                <path class="cls-21" d="m1498.42,661.28c-2.64-13.4-19.83-21.3-38.42-17.65-18.58,3.65-31.51,17.48-28.87,30.88,2.64,13.4,19.83,21.3,38.42,17.65,18.59-3.65,31.51-17.48,28.88-30.88Z"/>
                <path class="cls-20" d="m1418.88,651.79c24.29-11.75,30.77-48.57,14.49-82.26-16.29-33.68-49.19-51.47-73.48-39.72-24.29,11.75-30.78,48.58-14.49,82.26,16.29,33.68,49.19,51.47,73.48,39.72Z"/>
                <path class="cls-6" d="m1412.2,671.68c-8.94,8.5-22.78,9.27-32.49,1.67-19.92-15.58-48.77-47.73-47.77-102.8,1.18-64.96,50.78-77.95,51.96-113.38,1.18-35.43-12.99-33.07,18.9-67.32h14.17s-20.08,14.17-15.35,34.25c4.72,20.08,11.81,47.83-8.27,72.63-17.41,21.51-21.05,99.4,19.09,138.97,10.08,9.94,10.01,26.22-.25,35.97h0Z"/>
                <path class="cls-5" d="m1475.38,671.68c8.94,8.5,22.78,9.27,32.49,1.67,19.92-15.58,48.77-47.73,47.77-102.8-1.18-64.96-50.78-77.95-51.96-113.38-1.18-35.43,12.99-33.07-18.9-67.32h-14.17s20.08,14.17,15.35,34.25c-4.72,20.08-11.81,47.83,8.27,72.63,17.41,21.51,21.05,99.4-19.09,138.97-10.08,9.94-10.01,26.22.25,35.97h0Z"/>
                <path class="cls-42" d="m1492.62,642.77c-18.3-5.55-28.27-25.02-22.45-43.24,5.06-15.85,8.25-37.86,3.9-66.36-2.31-15.12,7.66-29.42,22.65-32.45.23-.05.46-.09.7-.14,12.06-2.48,24.35,2.99,30.56,13.62,13.05,22.37,28.44,63.52,5.25,111.14-7.29,14.97-24.48,22.32-40.42,17.48l-.18-.06Z"/>
                <path class="cls-36" d="m1383.9,457.17c-1.18,35.43-50.78,48.42-51.96,113.38-1.2,65.7,40.09,98.78,58.02,110.01,1.94,1.22,1.94,4.04,0,5.25h0c-.93.58-2.09.63-3.06.13-10.11-5.27-64.9-37.35-63.51-113.47,1.18-64.96,58.17-79.28,59.35-114.71,1.18-35.43-17.72-33.66,14.17-67.91h5.91c-31.89,34.25-17.72,31.89-18.9,67.32Z"/>
                <g>
                  <g class="cls-72">
                    <path class="cls-44" d="m1528.8,553.92c-.06-38.33-39.41-69.21-87.72-69.12-48.24.07-87.43,31.08-87.36,69.41.05,38.21,39.36,69.09,87.58,69.01,48.33-.09,87.57-31.1,87.5-69.31Z"/>
                  </g>
                  <g class="cls-71">
                    <path class="cls-45" d="m1568.01,595.41c-.1-55.49-57.06-100.21-127.02-100.09-69.85.1-126.6,45.01-126.49,100.51.08,55.33,57,100.04,126.81,99.93,69.98-.12,126.81-45.03,126.7-100.35Z"/>
                  </g>
                </g>
                <g class="cls-47">
                  <g class="cls-46">
                    <path class="cls-38" d="m1426.06,451.32c-.47,1.68-.63,3.38-.63,5.07,0,3.75.83,7.44.84,10.8,0,.66-.03,1.3-.12,1.93-.15,1.12-.53,3.02-1.09,5.6-1.97,9-6.17,26.01-10.32,42.1-2.07,8.04-4.14,15.85-5.9,22.31-1.77,6.46-3.23,11.55-4.12,14.22-.48,1.42-.94,2.33-1.44,2.95-.25.31-.51.55-.81.73-.3.18-.63.28-.97.28-.23,0-.46-.05-.66-.14-.25-.12-.45-.3-.57-.48-.19-.27-.26-.52-.31-.75-.04-.23-.06-.46-.06-.69,0-.89.21-2.01.58-3.48.24-.95.56-2.03.95-3.23.37-1.14,1.6-1.76,2.73-1.36h0c.9-3.11,2-7.06,3.2-11.51,3.16-11.67,7.07-26.86,10.3-39.91,1.62-6.53,3.06-12.51,4.15-17.25,1.09-4.73,1.83-8.25,2.03-9.71.07-.5.1-1.04.1-1.62,0-2.96-.84-6.73-.84-10.8,0-1.85.18-3.77.72-5.7.6-2.15,1.12-3.77,1.47-5.2.36-1.43.56-2.65.56-4.1,0-1.59-.25-3.48-.89-6.15-1.85-7.72-1.87-10.52-1.86-15.63v-29.06h2.35v29.06c0,5.13-.01,7.45,1.8,15.09.66,2.78.95,4.85.95,6.7,0,1.68-.25,3.14-.63,4.67-.39,1.54-.91,3.16-1.49,5.26Z"/>
                    <path class="cls-38" d="m1479.99,555.26c0,.32-.02.61-.12.93-.05.16-.12.34-.25.52-.13.18-.33.36-.57.48-.21.1-.44.14-.66.14-.34,0-.68-.1-.97-.28-.45-.27-.81-.68-1.17-1.26-.36-.59-.71-1.36-1.07-2.43-1.02-3.05-2.78-9.27-4.89-17.07-3.16-11.69-7.08-26.89-10.31-39.95-1.62-6.53-3.06-12.53-4.16-17.29-1.1-4.77-1.84-8.26-2.07-9.92-.08-.63-.12-1.28-.12-1.93.01-3.36.85-7.05.84-10.8,0-1.69-.16-3.39-.63-5.07-.58-2.1-1.1-3.72-1.49-5.26-.39-1.53-.64-3-.64-4.67,0-1.84.3-3.92.96-6.7,1.81-7.64,1.79-9.95,1.79-15.09v-29.06h2.35v29.06c0,5.11-.02,7.92-1.86,15.63-.64,2.68-.89,4.56-.89,6.15,0,1.45.2,2.67.56,4.1.36,1.43.88,3.05,1.47,5.2.54,1.94.72,3.85.72,5.7-.01,4.07-.86,7.84-.85,10.8,0,.57.03,1.11.1,1.62.13.96.51,2.87,1.06,5.41,1.95,8.93,6.15,25.95,10.3,42.02,2.07,8.03,4.14,15.84,5.9,22.28.9,3.3,1.72,6.24,2.43,8.67h0c1.13-.4,2.36.22,2.73,1.36.39,1.2.71,2.28.95,3.23.37,1.47.57,2.59.58,3.48Z"/>
                  </g>
                  <g class="cls-46">
                    <path class="cls-40" d="m1404.91,552.64c-.17-.27-.43-.46-.86-.45-.41.12-.62.52-.61.97,0,.06.02.13.03.2-.04-.11-.08-.24-.13-.33-.17-.29-.43-.48-.92-.47-.39.12-.59.51-.58.92,0,.33.11.71.32,1.08.21.37.48.68.76.91-.14.22-.3.37-.42.39l.07.32c.26-.06.46-.27.63-.54.2.12.41.2.62.21,0,0,.2-.03.22-.04.27-.05.49-.25.67-.51.21.13.43.23.84.21,0,0-.08-.31-.19-.3-.14,0-.31-.07-.48-.19.16-.33.28-.72.31-1.14,0-.6-.08-.96-.25-1.24Zm-1.64,1.55c0,.36-.09.69-.21.98-.23-.19-.46-.45-.64-.77-.19-.33-.28-.66-.28-.92,0-.33.13-.53.42-.62.18,0,.34.1.48.32.13.22.22.55.22,1Zm.43-.01c.19.37.45.7.72.94-.15.21-.32.36-.62.4-.13,0-.3-.07-.47-.17.15-.33.25-.73.26-1.23,0-.11-.02-.21-.04-.32.04.12.08.25.14.37Zm1.14-.32c-.02.36-.12.69-.25.96-.22-.2-.44-.47-.6-.79-.16-.32-.23-.62-.23-.88,0-.37.14-.58.42-.65.17,0,.33.1.46.31.13.21.21.52.2,1.05Z"/>
                    <path class="cls-40" d="m1408.41,553.02c0-.38-.08-.71-.24-.96-.15-.25-.41-.42-.77-.42-.47.08-.7.53-.7,1.03-.04-.13-.08-.25-.15-.36-.16-.26-.42-.44-.82-.44-.45.09-.66.53-.66,1,0,.3.08.63.23.97.18.38.42.71.69.97-.16.21-.33.35-.49.37l.04.32c.28-.05.51-.24.7-.49.22.15.44.26.84.24.27-.03.5-.22.7-.46.22.16.45.28.82.27,0,0-.06-.32-.14-.31-.14,0-.32-.09-.5-.22.19-.31.33-.69.39-1.12.02-.13.03-.26.03-.39Zm-1.93.3v.26c-.05.37-.16.68-.3.95-.22-.21-.43-.49-.57-.81-.14-.3-.2-.59-.2-.84,0-.4.15-.63.43-.68.17,0,.32.09.44.29.12.19.2.49.2.84Zm.42.27c.17.39.39.73.65,1-.17.2-.35.33-.62.36-.14,0-.31-.08-.49-.2.17-.32.3-.71.35-1.13,0,0,.01-.29.01-.33.03.1.05.21.1.31Zm1.19-.57l-.03.35c-.05.36-.17.68-.32.94-.21-.22-.41-.5-.54-.84-.12-.28-.17-.55-.17-.78,0-.43.17-.68.44-.72.17,0,.31.09.43.27.11.18.19.46.19.79Z"/>
                    <path class="cls-40" d="m1414.87,553.34c.1-.29.15-.57.16-.83,0-.55-.25-1.03-.8-1.11-.29,0-.53.16-.68.39-.1.15-.15.35-.18.55-.02-.24-.07-.46-.18-.63-.13-.21-.35-.36-.64-.38-.28,0-.51.16-.65.38-.14.22-.21.51-.21.82,0-.3-.07-.58-.21-.79-.15-.23-.38-.38-.68-.39-.26.02-.47.16-.6.37-.11.17-.16.39-.18.63-.04-.18-.09-.36-.18-.5-.15-.24-.4-.4-.72-.4-.5.07-.75.55-.74,1.09,0,.26.05.55.16.84.15.4.36.75.61,1.02-.17.19-.36.32-.51.32v.32c.3-.01.54-.19.75-.43.22.17.46.3.81.3.27-.02.51-.17.73-.39.22.19.46.34.79.34,0,0-.03-.32-.07-.32-.15,0-.33-.1-.51-.26.21-.3.39-.66.49-1.08.05-.21.07-.41.07-.66,0,.21.03.43.09.65.11.41.29.77.51,1.07-.19.17-.38.29-.54.28,0,0,0,.32,0,.32.27,0,.52-.16.75-.37.22.22.46.39.8.39.25,0,.49-.14.72-.32.21.24.46.42.75.43v-.33c-.14,0-.32-.13-.5-.33.24-.27.45-.61.6-1.01Zm-5.12-.56c0,.14-.01.28-.04.44-.07.36-.2.67-.36.93-.2-.23-.38-.52-.51-.86-.1-.26-.14-.51-.14-.73,0-.46.18-.72.45-.76.17,0,.3.08.41.25.11.17.18.43.18.74Zm.95,1.53c-.18.19-.37.31-.61.31-.14,0-.32-.1-.5-.24.2-.3.36-.68.44-1.1.03-.15.04-.29.04-.43.02.14.02.27.07.41.13.4.33.76.56,1.05Zm.68-1.7c0,.16-.02.34-.06.53-.08.36-.23.66-.4.9-.19-.24-.36-.53-.47-.88-.08-.24-.11-.46-.11-.66,0-.25.06-.45.14-.59.09-.13.19-.2.35-.22.16,0,.29.08.39.24.1.16.17.39.17.68Zm1.69-.1c0,.19-.03.4-.1.63-.1.35-.27.64-.45.88-.17-.25-.33-.55-.42-.9-.06-.2-.08-.4-.08-.57,0-.27.06-.5.16-.65.1-.14.21-.22.37-.22.16.02.27.09.37.23.09.14.15.36.15.62Zm.78,1.8c-.19.16-.38.27-.59.26-.14,0-.33-.11-.51-.3.23-.28.42-.64.54-1.05.04-.15.05-.28.06-.42,0,.14.01.28.04.42.09.41.26.78.46,1.09Zm.87-1.8c0,.21-.04.46-.14.72-.12.34-.3.62-.49.85-.16-.26-.3-.57-.37-.92-.04-.17-.05-.32-.05-.47,0-.3.07-.55.17-.72.11-.17.24-.24.41-.25.29.05.47.32.48.79Z"/>
                    <path class="cls-40" d="m1418.06,553.89c.2-.36.3-.72.3-1.05,0-.44-.2-.84-.75-.97-.32,0-.59.19-.75.46-.07.11-.11.24-.15.29,0-.49-.22-.93-.77-1.04-.3,0-.56.17-.71.43-.16.25-.24.59-.24.96,0,.12.01.25.03.39.06.41.21.79.38,1.11-.19.14-.37.23-.57.22,0,0-.04.32.06.33.24,0,.47-.12.7-.29.19.25.41.44.83.5.21,0,.43-.1.65-.24.17.26.37.47.62.53l.08-.31c-.14-.03-.3-.19-.44-.4.27-.24.53-.55.73-.92Zm-1.67-1.27c0,.24-.06.52-.19.81-.14.33-.34.6-.55.81-.14-.27-.26-.58-.31-.93l-.03-.34c0-.33.07-.61.19-.79.12-.18.26-.27.46-.27.27.07.42.31.43.72Zm.21.96c.03.42.14.81.3,1.13-.18.12-.35.2-.59.18-.14-.01-.31-.16-.48-.37.26-.25.49-.58.66-.97.05-.12.08-.24.12-.35-.02.17-.01.37-.01.37Zm1.43-.74c0,.26-.08.58-.26.9-.17.31-.39.57-.61.77-.12-.27-.22-.59-.25-1.13,0-.36.08-.67.21-.88.13-.21.29-.3.53-.3.24.07.37.29.38.64Z"/>
                    <path class="cls-40" d="m1421.1,555c.35-.39.54-.84.54-1.24,0-.32-.15-.64-.48-.78l-.28-.05c-.31,0-.58.18-.77.44-.06.08-.1.18-.14.28.04-.15.08-.3.08-.44,0-.38-.17-.74-.75-.89-.33,0-.6.2-.79.49-.18.29-.29.68-.3,1.2,0,.4.08.76.19,1.08-.17.09-.32.16-.58.13l-.11.3.24.04c.19,0,.39-.08.58-.18.14.26.32.47.56.57l.31.07c.16,0,.32-.05.49-.11.11.27.28.49.49.61l.15-.29c-.12-.06-.26-.22-.35-.46.32-.18.64-.45.92-.77Zm-1.38-1.79c0,.28-.12.64-.35.98-.19.29-.44.53-.68.72-.09-.26-.15-.56-.15-.97,0-.39.1-.73.24-.95.15-.23.32-.33.62-.33.21.08.32.26.32.55Zm.11.79c-.04.13-.08.27-.1.42-.02.15-.03.3-.03.45,0,.27.04.51.1.73-.15.06-.28.11-.59.06-.13-.05-.27-.22-.39-.44.3-.21.58-.51.82-.85.08-.12.13-.25.19-.37Zm1.49-.25c0,.29-.16.68-.46,1.03-.23.27-.51.5-.76.66-.04-.18-.07-.37-.07-.58,0-.13,0-.27.03-.41.04-.37.16-.68.31-.89.16-.21.33-.31.68-.28.19.09.27.24.27.47Z"/>
                    <path class="cls-40" d="m1478.39,552.73c-.21,0-.42.08-.63.19-.19-.28-.43-.48-.74-.55l-.23-.03c-.22,0-.44.1-.66.22-.2-.27-.45-.48-.75-.52l-.04.32c.18,0,.36.16.52.37-.28.24-.54.57-.72.95-.16.35-.24.69-.24.99,0,.46.19.87.71.99.31,0,.56-.2.82-.61,0,.43.17.81.69.95.31,0,.57-.21.75-.5.17-.3.28-.69.3-1.2,0-.41-.1-.79-.26-1.11.16-.08.33-.15.47-.14l.21.04.1-.31-.31-.05Zm-1.62,2.33c0-.26.08-.58.24-.9.16-.32.39-.59.63-.78.12.27.22.59.21.99,0,.41-.11.75-.25.98-.14.24-.31.35-.52.34-.19-.06-.31-.27-.32-.62Zm-.73-2.04c.14.28.24.61.26,1.05,0,.39-.09.72-.22.95-.13.23-.3.33-.49.33-.2-.05-.34-.28-.35-.66,0-.25.06-.55.21-.86.14-.33.37-.6.6-.81Zm1.45.07c-.3.23-.56.55-.76.92-.06.12-.1.25-.14.37.01-.1.04-.2.03-.39-.01-.43-.13-.82-.3-1.16.17-.1.34-.17.66-.15.17.02.35.18.51.4Z"/>
                    <path class="cls-40" d="m1475.36,552.02l-.22-.03c-.23,0-.46.11-.68.25-.21-.26-.46-.45-.93-.51-.24,0-.48.12-.71.28-.23-.26-.49-.44-.8-.47l-.02.32c.18,0,.38.14.55.35-.27.26-.49.61-.64,1-.11.3-.17.6-.17.87,0,.52.21.98.72,1.08.3,0,.55-.18.7-.45.06-.1.1-.22.14-.35,0,.48.2.91.71,1.02.31,0,.56-.19.72-.46.17-.27.25-.64.26-1.06v-.2c-.04-.43-.17-.82-.35-1.14.17-.12.35-.19.63-.17l.09-.31Zm-1.72,2.32c0-.24.05-.52.17-.81.13-.33.34-.62.57-.83.15.27.27.59.3,1.14,0,.37-.09.69-.21.9-.13.21-.28.3-.45.3-.21-.05-.37-.29-.37-.7Zm-.88-1.87c.16.26.29.58.33.95v.27c.02.35-.06.65-.19.85-.12.2-.27.29-.42.29-.23-.04-.39-.3-.4-.75,0-.22.05-.48.15-.75.12-.34.32-.62.54-.84Zm1.44-.05c-.28.25-.52.59-.69.98-.04.1-.06.2-.09.28v-.3c-.06-.42-.21-.8-.41-1.12.19-.12.37-.22.64-.2.18.01.37.16.54.36Z"/>
                    <path class="cls-40" d="m1471.85,551.53c-.26,0-.5.13-.74.31-.23-.24-.5-.41-.91-.44-.27,0-.53.15-.76.34-.24-.23-.52-.39-.84-.4,0,0,.01.32.02.32.18,0,.38.11.58.3-.25.28-.45.65-.56,1.05-.06.21-.08.4-.08.59,0-.19-.03-.39-.08-.6-.1-.41-.3-.77-.54-1.06.19-.17.38-.29.6-.28,0,0,.03-.32-.05-.32-.28,0-.55.16-.78.38-.24-.2-.51-.35-.89-.35-.3,0-.57.17-.81.41-.23-.17-.48-.29-.88-.29,0,0,.05.32.13.31.17,0,.36.09.55.23-.21.31-.38.69-.45,1.11-.02.14-.03.28-.03.42,0,.37.08.7.23.95.14.25.38.42.7.42.41-.08.64-.46.7-.94.04.18.08.35.16.48.13.23.35.39.64.4.25-.03.46-.19.59-.41.12-.2.17-.45.19-.73,0,.29.06.56.19.76.12.22.32.37.6.4.27-.01.5-.18.64-.42.08-.13.13-.28.16-.44.02.21.06.41.16.57.12.2.3.35.57.39.28,0,.53-.17.68-.43.15-.25.23-.59.23-.97,0-.13,0-.27-.03-.41-.06-.42-.23-.79-.43-1.1.19-.14.38-.24.62-.23,0,0,.05-.32-.09-.33Zm-6.15,1.66c.05-.35.2-.68.38-.94.2.23.39.52.49.88.08.24.1.46.1.66,0,.51-.2.8-.44.84-.14,0-.27-.08-.38-.26-.1-.18-.18-.46-.18-.79,0-.12.01-.24.03-.37Zm1.8-1.24c-.23.3-.42.67-.51,1.08-.03.15-.04.28-.05.42-.02-.14-.02-.27-.06-.42-.12-.41-.34-.77-.59-1.04.19-.19.38-.31.6-.3.22,0,.42.1.61.26Zm.74,1.68c0,.28-.06.51-.15.67-.09.15-.2.23-.34.25-.13-.01-.24-.08-.34-.24-.1-.17-.16-.41-.16-.71,0-.15.02-.32.06-.5.07-.35.23-.66.42-.91.19.24.36.54.44.89.05.2.07.38.07.55Zm2.21.23c0-.21.03-.44.12-.69.1-.34.29-.64.5-.86.17.26.31.57.37.93l.02.36c0,.33-.07.61-.19.8-.11.18-.24.26-.39.27-.12-.02-.22-.09-.3-.23-.08-.14-.13-.34-.13-.58Zm-1.49-.76c.09-.35.27-.65.46-.88.19.25.34.55.4.91.04.16.05.31.05.45,0,.31-.06.57-.17.74-.1.17-.23.25-.37.26-.13-.02-.23-.09-.32-.23-.09-.15-.15-.37-.15-.64,0-.19.03-.39.09-.61Zm1.9-1.05c-.26.27-.48.63-.61,1.03-.05.14-.05.27-.07.41,0-.14-.01-.28-.04-.43-.08-.41-.26-.78-.48-1.08.19-.16.38-.26.61-.25.2,0,.4.13.59.32Z"/>
                    <path class="cls-40" d="m1465.13,551.81v-.32c-.33,0-.61.19-.84.46-.22-.14-.45-.24-.69-.25,0,0-.2.03-.23.03-.3.05-.56.24-.77.52-.2-.12-.42-.2-.63-.2l-.31.06.11.3.2-.04c.14,0,.3.06.46.15-.17.33-.28.72-.28,1.18,0,.2.03.39.06.57-.05-.17-.12-.35-.22-.52-.21-.37-.51-.68-.83-.89.15-.23.34-.39.53-.43l-.07-.32c-.31.08-.56.29-.75.59-.19-.08-.37-.14-.55-.14-.14,0-.27.03-.42.1-.29.11-.52.35-.67.65-.16-.05-.31-.08-.46-.08-.19,0-.37.04-.53.15l.17.27c.1-.06.21-.09.35-.09.1,0,.22.02.34.06-.07.21-.12.43-.12.67,0,.17.02.35.06.54.2.85.67,1.42,1.22,1.44,0,0,.19-.02.22-.04.27-.13.39-.43.39-.75,0-.12-.04-.27-.08-.4.2.39.49.66,1.01.65.34-.12.49-.47.49-.86,0-.14-.03-.3-.07-.46.05.16.1.31.17.44.17.29.42.5.85.49.39-.1.58-.51.57-1.02.04.1.06.21.12.3.15.27.39.46.77.46.44-.09.66-.54.65-1.06,0-.27-.05-.57-.16-.87-.15-.41-.38-.75-.66-1.01.18-.2.38-.33.56-.33Zm-5.7,1.93c.29.15.57.38.78.68.26.38.39.77.39,1.05,0,.25-.09.39-.28.46-.29.01-.74-.41-.91-1.19-.03-.16-.05-.31-.05-.46,0-.19.04-.37.08-.54Zm1.32-.76c-.12.27-.2.57-.2.91l.02.29c.02.15.06.28.09.42-.06-.12-.11-.25-.2-.37-.24-.35-.57-.61-.92-.79.13-.25.31-.43.52-.5l.27-.06c.13,0,.27.04.41.11Zm1.26,1.88c0,.31-.11.49-.31.55-.3.02-.71-.44-.81-1.27v-.26c-.01-.28.05-.53.15-.75.26.18.52.44.69.75.19.35.28.7.28.97Zm2.04-1.28v-.2c.04-.37.16-.7.32-.97.22.21.42.5.55.85.1.28.15.54.15.76,0,.45-.17.7-.41.74-.14,0-.28-.09-.41-.3-.12-.21-.2-.52-.2-.88Zm-1.33-.89c.24.2.47.48.62.82.14.31.2.62.2.87,0,.39-.14.6-.37.65-.15,0-.31-.1-.45-.34-.14-.23-.23-.58-.24-1,0-.39.1-.72.24-.99Zm1.39-.48c-.2.33-.34.71-.38,1.14,0,0,0,.22.01.36-.04-.11-.06-.22-.12-.34-.18-.39-.44-.72-.74-.96.17-.21.36-.36.57-.37.3-.02.48.06.65.17Z"/>
                    <path class="cls-40" d="m1458.23,553.39c-.29.15-.49.43-.6.77-.1-.02-.2-.04-.3-.04-.24,0-.48.06-.69.21-.11.08-.2.19-.31.3-.35,0-.64.21-.88.5.12-.22.18-.44.18-.66,0-.31-.14-.6-.45-.76l-.38-.08c-.6,0-1.06.6-1.2,1.38-.05.23-.07.45-.07.66,0,.19.02.37.05.53-.12.04-.24.06-.34.06l-.24-.06-.17.28c.12.08.27.11.42.11s.28-.03.42-.07c.1.28.24.51.43.65.15.1.33.14.52.14.07,0,.15-.01.22-.02,0,0,.02.27.17.42,0,0,.23,0,.17-.22,0,0-.02-.2-.01-.27.34-.09.7-.24,1.24-.53.36.65.89,1.05,1.37,1.06,0,0,.36-.1.38-.12.14-.13.2-.32.2-.51,0-.18-.06-.38-.16-.58.23.24.5.38.77.39,0,0,.27-.06.29-.07.21-.14.3-.38.3-.63,0-.41-.22-.9-.6-1.34-.28-.31-.64-.53-1.01-.66.1-.26.25-.47.43-.56l-.14-.29Zm-.28,2.16c-.08-.23-.12-.46-.12-.69,0-.1.02-.2.03-.3.31.11.62.3.85.57.35.39.52.83.52,1.12,0,.18-.06.29-.26.37-.28.01-.77-.38-1.02-1.07Zm-1.27.99c.24-.19.41-.41.49-.66.06.04.13.06.19.11.45.38.68.86.67,1.15,0,.12-.04.21-.25.31-.28,0-.78-.32-1.1-.91Zm.17-1.21c-.12-.04-.24-.04-.36-.07.02-.08.02-.16.19-.18.08.08.13.16.17.24Zm.02.38c-.04.17-.15.35-.33.5-.07-.21-.12-.42-.12-.64.15.03.29.07.44.14Zm-1.69,1.18c.02-.29.06-.62.19-.95.03-.09.08-.17.12-.25.16-.11.37-.18.62-.1,0,.27.06.55.17.82-.05.03-.1.07-.17.1-.34.17-.64.29-.92.38Zm-1.21-.48c.34-.15.68-.38.99-.66.09-.08.17-.17.25-.24-.05.1-.1.2-.15.32-.15.4-.2.79-.21,1.13-.08.01-.17.05-.24.05-.15,0-.26-.03-.43.05-.02-.21-.13-.39-.22-.64Zm1.33-1.92c0,.3-.19.7-.56,1.02-.27.25-.57.45-.85.58-.02-.13-.04-.26-.04-.41,0-.19.02-.39.06-.6.13-.71.53-1.13.88-1.12l.24.06c.19.1.26.26.27.47Zm.89.51c-.02.07-.04.13-.1.19-.11,0-.21.03-.31.05.13-.13.27-.2.41-.23Zm1.34-.52c-.02.12-.04.25-.04.38,0,.26.05.54.15.81.04.12.1.21.16.32-.08-.08-.15-.16-.24-.24-.1-.09-.23-.14-.34-.2,0-.26-.11-.51-.38-.95.12-.09.28-.14.48-.14.07,0,.15.01.21.03Z"/>
                    <path class="cls-40" d="m1425.46,553.64s-.38.08-.39.09c-.3.16-.44.45-.44.76,0,.21.06.44.18.66-.24-.3-.54-.5-.88-.5-.18,0-.37.06-.64.3-.08.06-.16.12-.24.2.1-.2.17-.41.17-.6,0-.28-.13-.54-.39-.71-.12-.06-.25-.1-.39-.1-.58.01-1.03.58-1.21,1.34-.08.3-.11.6-.11.88,0,.11.01.21.02.31-.11.03-.22.05-.3.05l-.25-.06-.18.27c.13.09.28.12.43.12.12,0,.24-.02.37-.06.07.27.19.49.41.65.15.12.34.17.55.17.06,0,.13-.01.2-.02.03.29.11.55.33.7l.18-.27c-.1-.06-.17-.25-.19-.49.35-.09.72-.26,1.35-.53.38.19.75.35,1.09.5l-.02.2s-.06.17-.06.22c0,0,.23,0,.38-.15l.02-.27c.07,0,.15.02.21.02.19,0,.37-.04.53-.15.19-.14.33-.36.43-.64.15.04.29.07.42.07.15,0,.29-.03.42-.11l-.17-.28-.25.06c-.1,0-.22-.02-.34-.06.03-.17.05-.34.05-.53,0-.21-.02-.43-.07-.66-.15-.78-.59-1.37-1.2-1.38Zm-1.6,2.69c-.33-.23-.5-.52-.5-.77,0-.13.06-.26.15-.38.12-.07.23-.12.33-.12l.3.1c.12.11.17.23.17.38,0,.23-.15.52-.45.79Zm-1.19.65c.02-.29.09-.62.22-.96.05-.13.11-.24.17-.35.04.33.23.63.54.87-.34.22-.64.35-.93.44Zm.23-2.43c0,.28-.2.69-.6,1.04-.27.25-.57.44-.86.38,0-.24.03-.52.1-.8.17-.7.57-1.1.9-1.09l.23.06c.16.11.22.24.23.42Zm-.15,1.04c-.06.1-.11.2-.16.32-.15.4-.23.79-.43,1.18-.17,0-.29-.04-.38-.12-.11-.06-.21-.24-.28-.48.34-.14.68-.36,1.01-.65.08-.08.16-.16.23-.24Zm2.15.35c.12.33.17.66.19.95-.28-.09-.59-.21-.93-.39.3-.3.48-.63.46-1.09.11.15.21.32.28.53Zm.14-.47c.08.1.17.19.27.28.31.28.65.5.99.66-.08.25-.19.43-.31.51-.08.06-.19.09-.34.09-.06,0-.16-.03-.23-.05-.01-.34-.07-.72-.22-1.13-.05-.13-.1-.24-.17-.36Zm1.38.22c0,.15-.01.28-.03.41-.28-.14-.59-.33-.86-.58-.37-.33-.56-.73-.56-1.02,0-.21.08-.36.26-.47l.24-.06c.36,0,.75.41.88,1.12.04.21.06.41.06.6Z"/>
                    <path class="cls-40" d="m1429.58,552.77c-.19-.3-.47-.49-.81-.49,0,0-.17.02-.2.03-.38.15-.57.52-.57.92,0,.14.04.29.08.44-.05-.12-.1-.24-.17-.34-.19-.27-.48-.45-.8-.45,0,0-.26.04-.27.04-.35.14-.53.47-.52.83,0,.38.18.81.5,1.2.27.33.59.6.91.79-.12.24-.26.41-.4.46l.13.3c.23-.11.42-.33.56-.62.19.08.37.13.54.13,0,0,.31-.06.32-.07.26-.09.45-.32.61-.59.22.1.43.18.64.19l.22-.03s-.08-.31-.22-.3c-.14,0-.32-.06-.5-.15.14-.34.23-.73.24-1.15,0-.45-.1-.84-.29-1.13Zm-1.62,1.91c0,.28-.05.52-.12.74-.27-.17-.55-.41-.77-.69-.28-.34-.42-.71-.42-.99,0-.26.1-.43.47-.55.19,0,.38.1.53.32.15.21.27.53.3.91v.26Zm.43-.33c.24.34.52.63.82.84-.14.23-.29.4-.46.45l-.19.04c-.12,0-.27-.04-.43-.11.09-.27.15-.56.15-.89v-.29c-.03-.17-.07-.32-.11-.47.06.14.12.29.21.43Zm1.16-.45c0,.36-.08.7-.2.99-.25-.18-.5-.42-.69-.72-.22-.33-.33-.67-.33-.94,0-.31.12-.51.45-.62.2,0,.38.11.53.34.14.23.24.56.24.96Z"/>
                    <path class="cls-40" d="m1433.24,552.94c0-.39-.09-.74-.26-1-.17-.26-.44-.44-.83-.43-.47.08-.71.52-.67,1.19-.04-.14-.09-.28-.17-.4-.17-.27-.44-.45-.93-.43-.42.12-.64.52-.63.96,0,.32.1.69.3,1.04.21.37.48.69.77.92-.15.21-.32.37-.48.39l.05.32c.29-.05.51-.27.7-.54.21.12.42.21.63.21,0,0,.22-.03.23-.04.26-.06.5-.25.71-.5.23.16.47.27.88.26,0,0-.07-.32-.16-.31-.15,0-.34-.09-.53-.22.19-.31.32-.69.37-1.11l.02-.31Zm-2,.55c-.02.37-.12.71-.25,1-.24-.2-.47-.46-.65-.79-.18-.32-.26-.63-.26-.88,0-.35.14-.56.48-.65.19,0,.35.1.48.3.13.2.21.51.21,1.02Zm.45-.02c.19.37.44.7.71.96-.17.2-.35.35-.68.4-.13,0-.3-.06-.47-.16.16-.34.28-.73.31-1.34,0-.1-.02-.19-.04-.28.04.14.08.28.15.42Zm1.23-.53v.27c-.05.37-.17.69-.33.95-.24-.22-.46-.5-.61-.83-.14-.29-.21-.58-.21-.82,0-.4.16-.64.46-.68.19,0,.35.1.48.29.13.19.21.48.21.83Z"/>
                    <path class="cls-40" d="m1436.67,552.4c0-.36-.08-.68-.24-.92-.16-.24-.41-.41-.74-.41-.5.06-.76.53-.77,1.06-.04-.17-.1-.33-.19-.46-.16-.24-.42-.41-.8-.4-.48.09-.74.55-.73,1.06,0,.28.07.58.2.89.17.39.4.73.67.99-.18.2-.37.34-.53.35l.02.32c.3-.02.55-.21.77-.47.23.16.46.27.86.26.28-.04.53-.21.76-.45.24.19.51.33.85.34,0,0-.03-.32-.08-.32-.17,0-.37-.1-.57-.26.21-.3.38-.66.47-1.08.03-.17.05-.34.05-.5Zm-2.02.22c0,.12,0,.24-.03.37-.06.37-.19.7-.36.97-.22-.22-.43-.51-.57-.84-.12-.28-.17-.54-.17-.77,0-.43.17-.68.49-.74.18,0,.32.09.44.26.12.17.19.44.19.76Zm.42.39c.15.39.37.73.63,1-.19.19-.39.33-.67.35-.15,0-.33-.08-.51-.21.2-.32.35-.7.42-1.12.02-.13.03-.25.03-.37.03.12.06.23.1.35Zm1.27-.61c0,.14-.01.28-.04.44-.07.36-.22.66-.39.92-.22-.23-.41-.53-.54-.86-.09-.25-.14-.49-.14-.71,0-.47.19-.75.48-.79.18,0,.33.09.44.26.12.17.19.43.19.74Z"/>
                    <path class="cls-40" d="m1440.04,552.78c.06-.23.09-.44.09-.64,0-.33-.07-.62-.22-.84-.15-.22-.39-.37-.68-.37-.52.05-.8.52-.83,1.08-.03-.23-.09-.45-.2-.62-.15-.23-.4-.38-.71-.39-.53.05-.82.56-.81,1.14,0,.24.04.5.13.77.14.4.35.76.6,1.04-.19.18-.39.31-.57.3,0,0,0,.32.01.32.29-.01.56-.17.79-.41.24.2.5.34.84.34.29-.01.56-.17.81-.41.23.19.48.34.84.34,0,0-.03-.32-.08-.32-.16,0-.35-.1-.53-.26.23-.3.42-.67.53-1.08Zm-1.94-.51c0,.15-.02.33-.06.5-.08.36-.24.67-.42.92-.21-.24-.39-.54-.51-.89-.08-.23-.11-.46-.11-.66,0-.5.2-.78.51-.81.18,0,.31.09.42.24.11.16.18.4.18.7Zm.39.57c.12.4.32.76.57,1.04-.2.19-.4.31-.65.31-.16,0-.36-.1-.55-.26.22-.3.4-.67.5-1.08.04-.17.05-.33.06-.49.02.16.02.31.08.48Zm1.31-.7c0,.17-.02.36-.07.56-.09.36-.26.68-.45.93-.2-.24-.37-.53-.48-.89-.07-.22-.1-.42-.1-.61,0-.53.22-.84.54-.87.17,0,.29.08.39.22.1.15.17.38.17.65Z"/>
                    <path class="cls-40" d="m1443.46,552.9c.09-.27.13-.53.13-.77.01-.58-.28-1.09-.83-1.14-.29,0-.54.16-.69.39-.11.17-.17.39-.2.62-.03-.55-.31-1.03-.85-1.08-.28,0-.52.15-.66.37-.15.22-.22.51-.22.84,0,.2.03.42.09.64.11.41.3.78.53,1.08-.18.16-.37.26-.58.25,0,0-.03.32.05.33.27,0,.52-.15.75-.34.24.23.51.39.88.41.27,0,.52-.15.76-.35.24.23.5.39.82.4,0,0-.01-.32-.02-.32-.17,0-.37-.12-.55-.3.24-.28.46-.64.6-1.04Zm-1.9-.77c0,.19-.03.39-.09.61-.1.35-.28.65-.48.89-.19-.26-.36-.57-.46-.93-.05-.2-.08-.39-.08-.56,0-.28.06-.51.17-.65.1-.14.23-.22.39-.22.32.03.53.34.54.87Zm.85,1.79c-.19.16-.39.27-.63.26-.17,0-.37-.12-.57-.3.24-.28.44-.64.57-1.04.05-.17.06-.32.07-.48,0,.16.02.32.06.49.1.41.28.78.5,1.08Zm.86-1.78c0,.2-.04.43-.11.66-.12.35-.3.65-.51.89-.18-.25-.34-.56-.42-.92-.04-.18-.06-.35-.06-.5,0-.29.07-.54.18-.7.11-.16.24-.24.42-.24.3.03.5.32.51.81Z"/>
                    <path class="cls-40" d="m1446.86,553.23c.13-.31.2-.62.2-.89,0-.52-.25-.97-.81-1.07-.3,0-.56.16-.72.41-.08.13-.14.29-.19.46-.01-.53-.27-1.01-.79-1.07-.3,0-.56.17-.72.41-.16.24-.24.56-.24.92,0,.16.02.33.05.5.09.41.26.78.47,1.08-.2.16-.41.27-.61.26,0,0-.03.32.05.33.27,0,.53-.15.77-.34.23.24.49.41.92.46.24,0,.48-.12.7-.28.22.26.47.45.77.47l.02-.32c-.16,0-.35-.14-.53-.35.27-.26.5-.6.67-.99Zm-1.84-1.04c0,.21-.04.46-.13.71-.13.33-.32.63-.54.86-.17-.25-.33-.56-.39-.92-.04-.15-.05-.3-.05-.44,0-.31.08-.57.19-.74.12-.17.25-.25.44-.26.28.04.47.32.48.79Zm.72,1.97c-.19.13-.37.22-.62.2-.17-.01-.37-.15-.56-.35.26-.27.48-.62.63-1,.04-.12.08-.23.1-.35,0,.12.01.24.03.37.07.42.23.8.42,1.12Zm.99-1.82c0,.23-.06.49-.17.77-.14.34-.35.62-.57.84-.16-.27-.3-.6-.35-.97-.02-.13-.03-.25-.03-.37,0-.32.08-.59.19-.76.12-.17.26-.26.47-.26.29.06.46.31.46.74Z"/>
                    <path class="cls-40" d="m1450.21,553.87c.2-.36.31-.72.31-1.04,0-.44-.22-.84-.81-.97-.31,0-.58.18-.75.45-.07.11-.12.25-.14.21,0-.48-.23-.93-.78-1.01-.31,0-.59.17-.75.44-.17.26-.26.61-.26,1.01l.02.3c.05.43.19.8.37,1.11-.19.13-.38.22-.62.21,0,0-.06.32.09.33.24,0,.48-.12.71-.28.21.25.44.43.72.5l.22.03c.21,0,.42-.09.63-.21.19.27.41.49.7.54l.05-.32c-.16-.02-.32-.17-.48-.39.29-.23.56-.55.77-.92Zm-1.72-1.36c0,.25-.07.54-.21.82-.16.33-.38.61-.61.83-.15-.26-.27-.58-.31-.95l-.02-.27c0-.35.09-.64.21-.83.13-.19.28-.29.51-.29.26.05.42.28.42.68Zm.21,1.01c.03.43.15.82.31,1.16-.17.1-.34.17-.63.14-.17-.03-.35-.18-.52-.38.28-.26.53-.59.71-.96.07-.14.12-.28.16-.42-.01.1-.04.18-.03.46Zm1.49-.69c0,.25-.08.57-.26.88-.18.32-.41.59-.65.79-.13-.28-.23-.63-.26-1.16,0-.36.08-.67.22-.87.13-.2.29-.3.56-.29.26.08.39.29.4.64Z"/>
                    <path class="cls-40" d="m1453.44,554.94c.32-.39.49-.82.49-1.2,0-.35-.17-.69-.53-.83l-.26-.04c-.32,0-.6.18-.79.45-.07.1-.12.22-.17.34.04-.15.08-.3.08-.44,0-.4-.19-.77-.77-.95-.34,0-.62.2-.81.49-.19.29-.29.69-.29,1.15,0,.41.1.8.24,1.14-.18.09-.35.15-.64.14l-.08.31.23.03c.21,0,.42-.08.64-.19.16.28.35.5.63.6l.31.06c.17,0,.36-.06.55-.13.14.28.33.5.56.62l.13-.3c-.14-.06-.28-.23-.4-.46.32-.19.64-.46.91-.79Zm-1.51-1.71c0,.27-.1.61-.33.94-.2.3-.45.54-.69.72-.12-.29-.19-.63-.2-.99,0-.39.09-.73.24-.95.15-.23.34-.34.62-.33.24.1.35.31.36.62Zm.16.7c-.05.15-.08.3-.09.47l-.02.29c0,.32.06.62.15.89-.16.07-.31.11-.43.11,0,0-.19-.04-.21-.04-.15-.04-.3-.22-.44-.45.3-.21.59-.5.82-.84.1-.14.16-.28.22-.43Zm1.53-.18c0,.28-.14.66-.42.99-.23.28-.51.52-.77.69-.06-.22-.12-.46-.12-.74v-.26c.04-.38.16-.69.31-.91.16-.21.34-.32.69-.29.21.09.31.26.31.52Z"/>
                  </g>
                </g>
                <g class="cls-73">
                  <g class="cls-56">
                    <path class="cls-69" d="m1491.51,553.94c0-2.28,4.74-8.48.21-10.35-2.7-1.11-9.56,6.25-13.52,5.37-3.14-.71-4.54-10.08-8.32-10.61-3.31-.47-8.16,8.01-11.87,7.7-3.4-.29-6.23-9.43-9.89-9.57-3.45-.13-7.23,8.74-10.87,8.75-3.63,0-7.44-8.86-10.89-8.72-3.66.15-6.45,9.31-9.84,9.6-3.71.32-8.58-8.14-11.89-7.66-3.78.54-5.13,9.92-8.27,10.64-3.95.9-10.84-6.44-13.53-5.32-4.52,1.88.27,8.06.27,10.34,0,2.28-4.75,8.47-.22,10.34,2.69,1.11,9.55-6.26,13.5-5.37,3.14.7,4.53,10.08,8.31,10.61,3.31.47,8.15-8.01,11.85-7.7,3.4.29,6.22,9.43,9.88,9.57,3.45.13,7.22-8.74,10.85-8.75,3.63,0,7.45,8.86,10.9,8.72,3.67-.15,6.46-9.3,9.86-9.6,3.71-.32,8.59,8.14,11.9,7.67,3.78-.54,5.15-9.92,8.29-10.64,3.95-.9,10.84,6.45,13.54,5.33,4.53-1.88-.23-8.06-.24-10.34Z"/>
                  </g>
                </g>
              </g>
              <g>
                <g>
                  <path class="cls-35" d="m1384.39,373.88c0-2.19,5.86-3.71,5.86-4.84v-3.28c0-1.4-5.86-3.52-5.86-5.72v-3.08c0-2.19,5.86-4.41,5.86-5.72v-2.41c0-1.4-5.86-3.53-5.86-5.72v-3.09c0-2.19,5.86-4.41,5.86-5.72v-2.41c0-1.4-5.86-3.52-5.86-5.72v-3.08c0-2.2,5.86-4.41,5.86-5.72v-2.6c0-1.33-2.42-2.56-2.42-3.55v-1.4c0-.61,11.41-10.69,20.92-18.44h66.03c9.51,7.75,20.92,17.84,20.92,18.44v6.48c0,1-2.43,2.11-2.43,3.44v2.6c0,1.3,5.86,3.8,5.86,5.99v3.09c0,2.19-5.86,4.03-5.86,5.44v2.42c0,1.3,5.86,3.8,5.86,5.99v3.09c0,2.19-5.86,4.03-5.86,5.44v2.41c0,1.3,5.86,3.8,5.86,5.99v3.08c0,2.19-5.86,4.04-5.86,5.44v3.28c0,1.13,5.86,2.93,5.86,5.12v6c0,2.42,1.99,3.58,2.28,6.06h-119.31c.29-2.48,2.28-3.64,2.28-6.06v-11.24Z"/>
                  <g>
                    <path class="cls-17" d="m1493.3,339.48l-103.05-4.96v-2.61c0-.21-.14-.45-.38-.71,0,0,93.56,3.95,103.81,4.98-.24.24-.39.47-.39.69v2.62Z"/>
                    <path class="cls-14" d="m1493.28,356.2l-103.04-4.85c0-1.42,0-2.53,0-2.53,0-.23-.16-.47-.42-.73l103.87,4.98c-.25.25-.42.49-.42.71v2.41Z"/>
                    <path class="cls-15" d="m1390.24,369.07s0-3.31,0-3.31c0-.23-.17-.49-.44-.76l103.92,4.99c-.27.26-.45.51-.45.74v3.28l-103.04-4.93Z"/>
                    <path class="cls-16" d="m1493.3,322.72l-103.04-5.34v-2.6c0-.39-.21-.77-.49-1.12l104.02,4.98-.5,1.1v2.97Z"/>
                  </g>
                  <path class="cls-29" d="m1384.62,373.13c1.07-1.78,5.54-3.07,5.62-4.07l103.05,4.96c.08,1,4.55,2.5,5.62,4.33l-114.29-5.23Z"/>
                  <path class="cls-28" d="m1384.62,356.35c.46-1.66,5.54-4,5.62-4.99l103.05,4.96c.08,1,4.55,3.43,5.62,5.26l-114.29-5.23Z"/>
                  <path class="cls-12" d="m1384.62,338.87c1.07-1.78,5.54-3.35,5.62-4.35l103.05,4.96c.08,1,4.55,2.79,5.62,4.62l-114.29-5.23Z"/>
                  <path class="cls-11" d="m1384.59,322.41c1.07-1.78,4.88-4.11,5.67-5.02,0,0,92.69,4.3,103.04,5.34.99,1.09,4.57,3.02,5.63,4.85l-114.34-5.17Z"/>
                  <path class="cls-41" d="m1382.11,391.18c.06-.54.4-1.44.4-1.44h110.79s-2.28-3.07-2.28-5.49v-6c0-2.19-5.86-3.99-5.86-5.12v-3.28c0-1.41,5.86-3.25,5.86-5.44v-3.08c0-2.19-5.86-4.69-5.86-5.99v-2.41c0-1.41,5.86-3.25,5.86-5.44v-3.08c0-2.2-5.86-4.69-5.86-5.99v-2.41c0-1.4,5.86-3.25,5.86-5.44v-3.08c0-2.2-5.86-4.69-5.86-6v-2.59c0-1.33,2.43-2.44,2.43-3.44v-5.61h8.12v6.48c0,1-2.43,2.11-2.43,3.44v2.6c0,1.3,5.86,3.8,5.86,5.99v3.09c0,2.19-5.86,4.03-5.86,5.44v2.42c0,1.3,5.86,3.8,5.86,5.99v3.09c0,2.19-5.86,4.03-5.86,5.44v2.41c0,1.3,5.86,3.8,5.86,5.99v3.08c0,2.19-5.86,4.04-5.86,5.44v3.28c0,1.13,5.86,2.93,5.86,5.12v6c0,2.42,1.99,3.58,2.28,6.06h-119.31Z"/>
                  <path class="cls-18" d="m1455.37,281.11c0-3.69-3.43-6.68-7.65-6.68h-12.45c-4.22,0-7.65,2.99-7.65,6.68s3.43,6.69,7.65,6.69h12.45c4.22,0,7.65-2.99,7.65-6.69Z"/>
                  <path class="cls-34" d="m1403.6,304.92l-1.62,1.67h-.2l-2.04,2.37c-.4.41-.64.69-.7.81l-.05.06h.03v1.4c0,.22.13.46.32.7h0s.04.04.05.06c.02.02.04.05.06.07.43.52,1.31,1.39,1.47,1.56.03.04.06.07.09.1.03.04.06.09.1.13.09.13.17.26.23.4.01.03.02.05.03.08.06.15.09.3.09.45v2.6c-.62.71-3.11,2.31-4.66,3.83-.7.62-1.2,1.25-1.2,1.89v3.08c0,.27.09.54.24.8h-.03c.85,1.56,4.02,3.05,5.2,4.22h.06c.11.12.2.23.26.34,0,0,.01.02.02.03.07.12.1.23.1.33v2.44c-.04.36-.5.8-1.15,1.28-1.42.91-3.74,2.03-4.47,3.25h.25c-.3.39-.48.77-.48,1.16v3.09c0,.26.09.52.23.77h-.01c.85,1.56,4.02,3.04,5.2,4.21h.03c.11.12.2.23.28.34.01.02.02.03.03.05.07.12.11.23.11.34v.05c0,.23,0,1.19,0,2.4-.02.23-.21.49-.52.78-.39.34-.95.73-1.57,1.15-1.68,1.13-3.76,2.44-3.76,3.75v3.08c0,.57.41,1.14,1,1.7,1.52,1.49,4.37,3.23,4.41,3.26.01.01.03.03.04.04.09.09.16.18.23.27.03.04.06.08.08.12.02.03.03.07.05.1.03.08.06.16.06.23v.14c0,.63,0,3.15,0,3.17-.02.18-.18.37-.44.57-.01,0-.02.02-.03.02-.08.06-.17.12-.27.19-.02.01-.03.02-.05.03-.1.07-.21.13-.33.2,0,0-.02.01-.03.02-.48.28-1.06.58-1.66.9-.33.18-.65.36-.97.55-.04.02-.07.04-.11.07-.12.07-.23.15-.34.22-.04.03-.08.05-.11.08-.11.08-.21.15-.32.23-.04.03-.07.05-.11.08-.1.08-.19.16-.28.24-.03.03-.06.06-.09.08-.09.08-.17.16-.24.25-.02.02-.04.05-.06.07-.26.32-.43.66-.43,1.02v11.24c0,.88-.27,1.59-.61,2.27l-.12.23c-.38.69-.82,1.36-1.14,2.12h0s0,.01,0,.01c-.12.28-.21.58-.28.9-.05.19-.09.38-.11.54h-11.19c.02-.16.06-.35.11-.54.07-.32.17-.62.28-.9,0,0,0-.01,0-.01h0c.32-.77.76-1.43,1.14-2.12l.12-.23c.35-.67.61-1.38.61-2.27v-11.24c0-.36.17-.69.43-1.02.02-.02.04-.05.06-.07.07-.08.15-.17.24-.25.03-.03.06-.06.09-.08.09-.08.18-.16.28-.24.03-.03.07-.05.11-.08.1-.08.21-.15.32-.23.04-.03.08-.05.11-.08.11-.07.23-.15.34-.22.04-.02.07-.04.11-.07.32-.19.64-.37.97-.55.59-.32,1.17-.62,1.66-.9,0,0,.02-.01.03-.02.12-.07.23-.14.33-.2.02-.01.03-.02.05-.03.1-.06.19-.13.27-.19.01,0,.02-.02.03-.02.26-.2.42-.39.44-.57,0-.03,0-2.54,0-3.17v-.14c0-.07-.02-.15-.06-.23-.01-.03-.03-.07-.05-.1-.02-.04-.05-.08-.08-.12-.06-.09-.14-.18-.23-.27-.01-.01-.03-.03-.04-.04-.04-.02-2.89-1.77-4.41-3.26-.59-.55-1-1.12-1-1.7v-3.08c0-1.31,2.08-2.62,3.76-3.75.61-.42,1.18-.81,1.57-1.15.31-.29.51-.55.52-.78,0-1.2,0-2.17,0-2.4v-.05c0-.11-.04-.22-.11-.34,0-.02-.02-.03-.03-.05-.07-.11-.16-.23-.28-.34h-.03c-1.17-1.17-4.35-2.66-5.2-4.21h.01c-.14-.26-.23-.51-.23-.77v-3.09c0-.38.19-.77.48-1.15h-.25c.73-1.23,3.05-2.35,4.47-3.26.66-.48,1.12-.91,1.15-1.28v-2.44c0-.1-.03-.22-.09-.33,0,0-.01-.02-.02-.03-.07-.11-.15-.22-.26-.34h-.06c-1.17-1.17-4.35-2.66-5.2-4.22h.03c-.15-.26-.24-.53-.24-.8v-3.08c0-.64.5-1.27,1.2-1.89,1.55-1.52,4.04-3.11,4.66-3.83v-2.6c0-.15-.04-.3-.09-.45-.01-.03-.02-.05-.03-.08-.06-.13-.14-.27-.23-.4-.03-.04-.06-.09-.1-.13-.03-.04-.06-.07-.09-.1-.17-.17-1.04-1.04-1.47-1.56-.02-.02-.04-.05-.06-.07-.02-.02-.04-.05-.05-.06h0c-.19-.24-.32-.48-.32-.7v-1.4h-.03l.05-.06c.06-.13.3-.41.7-.81l2.04-2.37h.2l1.62-1.67h.47c4.2-3.76,10.35-9.04,15.86-13.53h11.19c-5.51,4.5-11.66,9.77-15.86,13.53h-.47Z"/>
                  <path class="cls-10" d="m1387.8,309.84c4.63-7.64,16.1-16.85,24.91-20.71h58.12c8.81,3.85,20.28,13.07,24.91,20.71h-107.93Z"/>
                  <path class="cls-39" d="m1412.7,289.22l14.45-10.76c.66-.49,1.45-.75,2.27-.75h24.13c.82,0,1.61.26,2.27.75l15.01,10.76h-58.12Z"/>
                  <path class="cls-9" d="m1493.45,306.6s1.69,2.1,2.29,3.24h-107.93l2.79-3.24h102.86Z"/>
                  <polygon class="cls-13" points="1390.79 306.6 1392.42 304.92 1492.04 304.92 1493.45 306.61 1390.79 306.6"/>
                  <polygon class="cls-8" points="1382.52 389.73 1383.82 387.32 1499.62 387.32 1501.03 389.73 1382.52 389.73"/>
                  <path class="cls-3" d="m1389.81,364.99s-4.35-2.66-5.2-4.22l114.31,5.23c-.84,1.52-4.02,2.85-5.19,3.97l-103.92-4.99Z"/>
                  <path class="cls-2" d="m1389.81,348.09c-1.17-1.17-4.35-2.65-5.2-4.21l114.31,5.23c-.84,1.52-4.02,2.85-5.19,3.97l-103.92-4.98Z"/>
                  <path class="cls-4" d="m1389.81,331.2c-1.17-1.17-4.35-2.65-5.2-4.22l114.31,5.23c-.84,1.52-4.02,2.85-5.19,3.97l-103.92-4.98Z"/>
                  <path class="cls-37" d="m1389.76,313.67s-1.21-1.2-1.62-1.73l107.26,5.06c-.41.51-1.14,1.06-1.62,1.65l-104.02-4.98Z"/>
                </g>
                <text/>
              </g>
            </g>
            <rect class="cls-19" x="1439.9" y=".94" width="3.93" height="273.5"/>
          </g>
          <text class="cls-51" transform="translate(113.76 402.65)"><tspan class="cls-62" x="0" y="0">C</tspan><tspan x="40.38" y="0">OPENH</tspan><tspan class="cls-58" x="263.85" y="0">A</tspan><tspan x="306.52" y="0">GEN LIGH</tspan><tspan class="cls-67" x="597.4" y="0">T</tspan><tspan x="633.41" y="0" xml:space="preserve"> FESTI</tspan><tspan class="cls-66" x="811.45" y="0">V</tspan><tspan x="851.82" y="0">A</tspan><tspan class="cls-54" x="895.9" y="0">L</tspan></text>
          <g>
            <text class="cls-50" transform="translate(114.99 558.95)"><tspan class="cls-70" x="0" y="0">W</tspan><tspan x="50.14" y="0">he</tspan><tspan class="cls-59" x="102.87" y="0">r</tspan><tspan x="120.31" y="0">e</tspan><tspan class="cls-55" x="145.93" y="0"> </tspan><tspan class="cls-52" x="155.66" y="0">A</tspan><tspan x="189.19" y="0">rt </tspan><tspan class="cls-63" x="236.61" y="0">M</tspan><tspan x="281.35" y="0">e</tspan><tspan class="cls-57" x="306.97" y="0">e</tspan><tspan class="cls-76" x="332.33" y="0">ts </tspan><tspan class="cls-61" x="382.88" y="0">I</tspan><tspan x="397" y="0">llumin</tspan><tspan class="cls-61" x="528.21" y="0">a</tspan><tspan x="552.33" y="0">tion</tspan></text>
            <text class="cls-50" transform="translate(116.86 496.28)"><tspan x="0" y="0">Ca</tspan><tspan class="cls-61" x="55.97" y="0">p</tspan><tspan x="82.91" y="0">ti</tspan><tspan class="cls-75" x="114.22" y="0">v</tspan><tspan class="cls-61" x="139.07" y="0">at</tspan><tspan x="163.19" y="0">ing</tspan></text>
            <text class="cls-49" transform="translate(382.82 496.28)"><tspan class="cls-64" x="0" y="0">N</tspan><tspan class="cls-76" x="36.64" y="0">ig</tspan><tspan class="cls-65" x="74.47" y="0">h</tspan><tspan x="101.24" y="0">ts</tspan></text>
          </g>
        </g>
      </g>
    </g>
  </g>
</svg>